<svg xmlns="http://www.w3.org/2000/svg" viewBox="0 0 96 96">
  <path d="M34 28v-5c0-5 4-9 9-9h10c5 0 9 4 9 9v5" fill="none" stroke="#225BFF" stroke-linecap="round" stroke-width="6"/>
  <rect x="12" y="26" width="72" height="56" rx="11" fill="#f59e42"/>
  <path d="M12 48c20 11 52 11 72 0v-11c0-6-5-11-11-11H23c-6 0-11 5-11 11z" fill="#f8ddc0"/>
  <path d="M12 48c20 11 52 11 72 0" fill="none" stroke="#de8128" stroke-linecap="round" stroke-width="2"/>
  <rect x="41" y="49" width="14" height="14" rx="4" fill="#225BFF"/>
  <rect x="45" y="52" width="6" height="5" rx="1.5" fill="#bcd4f6"/>
  <path d="M25 71h46" stroke="#de8128" stroke-linecap="round" stroke-width="2" opacity=".55"/>
</svg>
