<svg width="71" height="70" viewBox="0 0 71 70" fill="none" xmlns="http://www.w3.org/2000/svg">
<circle opacity="0.2" cx="22.4409" cy="47.763" r="22.1997" fill="#FB8A2E"/>
<path d="M20.0011 26.1932L35.2235 34.9988L50.4459 26.1932M35.2235 52.5577V34.9813M50.9167 41.9561V28.0066C50.916 27.395 50.7546 26.7944 50.4485 26.2649C50.1425 25.7355 49.7026 25.2958 49.173 24.99L36.9672 18.0153C36.437 17.7092 35.8356 17.548 35.2235 17.548C34.6113 17.548 34.0099 17.7092 33.4798 18.0153L21.274 24.99C20.7443 25.2958 20.3044 25.7355 19.9984 26.2649C19.6923 26.7944 19.5309 27.395 19.5303 28.0066V41.9561C19.5309 42.5676 19.6923 43.1683 19.9984 43.6978C20.3044 44.2272 20.7443 44.6669 21.274 44.9727L33.4798 51.9474C34.0099 52.2535 34.6113 52.4146 35.2235 52.4146C35.8356 52.4146 36.437 52.2535 36.9672 51.9474L49.173 44.9727C49.7026 44.6669 50.1425 44.2272 50.4485 43.6978C50.7546 43.1683 50.916 42.5676 50.9167 41.9561Z" stroke="#FB8A2E" stroke-width="3.48738" stroke-linecap="round" stroke-linejoin="round"/>
</svg>
