<svg width="19" height="22" viewBox="0 0 19 22" fill="none" xmlns="http://www.w3.org/2000/svg">
<path d="M1.28566 6.22937L9.51173 10.9879L17.7378 6.22937M9.51173 20.4766V10.9784M17.9922 14.7475V7.20933C17.9919 6.87886 17.9046 6.55427 17.7392 6.26816C17.5738 5.98204 17.3361 5.74444 17.0499 5.5792L10.454 1.8101C10.1675 1.6447 9.84253 1.55762 9.51173 1.55762C9.18092 1.55762 8.85594 1.6447 8.56945 1.8101L1.97353 5.5792C1.68732 5.74444 1.4496 5.98204 1.28421 6.26816C1.11883 6.55427 1.03159 6.87886 1.03125 7.20933V14.7475C1.03159 15.078 1.11883 15.4026 1.28421 15.6887C1.4496 15.9748 1.68732 16.2124 1.97353 16.3777L8.56945 20.1468C8.85594 20.3122 9.18092 20.3993 9.51173 20.3993C9.84253 20.3993 10.1675 20.3122 10.454 20.1468L17.0499 16.3777C17.3361 16.2124 17.5738 15.9748 17.7392 15.6887C17.9046 15.4026 17.9919 15.078 17.9922 14.7475Z" stroke="#878890" stroke-width="1.88455" stroke-linecap="round" stroke-linejoin="round"/>
</svg>
