<svg width="35" height="35" viewBox="0 0 35 35" fill="none" xmlns="http://www.w3.org/2000/svg">
<g clip-path="url(#clip0_3148_61451)">
<path opacity="0.2" d="M17.4079 20.7497C12.8733 20.7568 8.41745 19.5647 4.49219 17.2942V28.2845C4.49219 28.4258 4.52003 28.5658 4.57412 28.6964C4.62822 28.827 4.7075 28.9456 4.80746 29.0456C4.90741 29.1456 5.02607 29.2248 5.15667 29.2789C5.28726 29.333 5.42723 29.3609 5.56859 29.3609H29.2494C29.3907 29.3609 29.5307 29.333 29.6613 29.2789C29.7919 29.2248 29.9105 29.1456 30.0105 29.0456C30.1105 28.9456 30.1897 28.827 30.2438 28.6964C30.2979 28.5658 30.3258 28.4258 30.3258 28.2845V17.293C26.4 19.5643 21.9434 20.7568 17.4079 20.7497V20.7497Z" fill="#0A65CC"/>
<path d="M29.2494 9.98438H5.56859C4.97411 9.98438 4.49219 10.4663 4.49219 11.0608V28.2832C4.49219 28.8776 4.97411 29.3596 5.56859 29.3596H29.2494C29.8438 29.3596 30.3258 28.8776 30.3258 28.2832V11.0608C30.3258 10.4663 29.8438 9.98438 29.2494 9.98438Z" stroke="#0A65CC" stroke-width="1.6146" stroke-linecap="round" stroke-linejoin="round"/>
<path d="M22.7952 9.98528V7.83249C22.7952 7.26153 22.5684 6.71396 22.1647 6.31023C21.761 5.9065 21.2134 5.67969 20.6424 5.67969H14.184C13.6131 5.67969 13.0655 5.9065 12.6618 6.31023C12.2581 6.71396 12.0312 7.26153 12.0312 7.83249V9.98528" stroke="#0A65CC" stroke-width="1.6146" stroke-linecap="round" stroke-linejoin="round"/>
<path d="M30.326 17.293C26.4002 19.5642 21.9435 20.7568 17.4081 20.7497C12.8734 20.7568 8.41749 19.5646 4.49219 17.2941" stroke="#0A65CC" stroke-width="1.6146" stroke-linecap="round" stroke-linejoin="round"/>
<path d="M15.7969 16.4434H19.0261" stroke="#0A65CC" stroke-width="1.6146" stroke-linecap="round" stroke-linejoin="round"/>
</g>
<defs>
<clipPath id="clip0_3148_61451">
<rect width="34.4448" height="34.4448" fill="white" transform="translate(0.1875 0.296875)"/>
</clipPath>
</defs>
</svg>
