<svg width="8" height="5" viewBox="0 0 8 5" fill="none" xmlns="http://www.w3.org/2000/svg">
<path d="M7.2744 0.0923163L3.90814 3.3737L0.541891 0.0923163C0.48175 0.0335653 0.401011 0.000673471 0.316936 0.000673471C0.23286 0.000673471 0.152121 0.0335653 0.0919802 0.0923163C0.0628587 0.120849 0.0397233 0.154906 0.0239293 0.192493C0.00813522 0.230079 0 0.27044 0 0.31121C0 0.35198 0.00813522 0.39234 0.0239293 0.429927C0.0397233 0.467514 0.0628587 0.501571 0.0919802 0.530104L3.67308 4.02163C3.73597 4.08293 3.82032 4.11724 3.90814 4.11724C3.99597 4.11724 4.08031 4.08293 4.1432 4.02163L7.72431 0.530778C7.75363 0.502223 7.77694 0.468082 7.79286 0.430371C7.80878 0.39266 7.81698 0.352142 7.81698 0.31121C7.81698 0.270278 7.80878 0.22976 7.79286 0.192049C7.77694 0.154338 7.75363 0.120197 7.72431 0.0916425C7.66417 0.0328915 7.58343 0 7.49935 0C7.41528 0 7.33454 0.0328915 7.2744 0.0916425V0.0923163Z" fill="black"/>
</svg>
