<svg width="375" height="320" viewBox="0 0 375 320" fill="none" xmlns="http://www.w3.org/2000/svg">
<path d="M254.877 222.914C258.816 221.196 260.454 218.682 261.638 217.203C272.269 203.925 249.587 164.514 217.205 141.709C182.885 111.825 145.096 101.642 134.466 114.92C132.641 117.198 131.211 120.303 130.616 123.806L110.437 239.904C109.736 254.058 115.146 259.436 117.853 262.063C122.758 266.824 132.297 270.873 142.247 267.37C180.643 252.586 216.613 239.595 254.877 222.914Z" fill="url(#paint0_linear_4777_15785)"/>
<path d="M254.877 222.914C258.816 221.196 260.454 218.682 261.638 217.203C272.269 203.925 249.587 164.514 217.205 141.709C182.885 111.825 145.096 101.642 134.466 114.92C132.641 117.198 131.211 120.303 130.616 123.806L110.437 239.904C109.736 254.058 115.146 259.436 117.853 262.063C122.758 266.824 132.297 270.873 142.247 267.37C180.643 252.586 216.613 239.595 254.877 222.914Z" fill="url(#paint1_linear_4777_15785)"/>
<path d="M254.877 222.914C258.816 221.196 260.454 218.682 261.638 217.203C272.269 203.925 249.587 164.514 217.205 141.709C182.885 111.825 145.096 101.642 134.466 114.92C132.641 117.198 131.211 120.303 130.616 123.806L110.437 239.904C109.736 254.058 115.146 259.436 117.853 262.063C122.758 266.824 132.297 270.873 142.247 267.37C180.643 252.586 216.613 239.595 254.877 222.914Z" fill="url(#paint2_linear_4777_15785)"/>
<path d="M254.877 222.914C258.816 221.196 260.454 218.682 261.638 217.203C272.269 203.925 249.587 164.514 217.205 141.709C182.885 111.825 145.096 101.642 134.466 114.92C132.641 117.198 131.211 120.303 130.616 123.806L110.437 239.904C109.736 254.058 115.146 259.436 117.853 262.063C122.758 266.824 132.297 270.873 142.247 267.37C180.643 252.586 216.613 239.595 254.877 222.914Z" fill="url(#paint3_linear_4777_15785)"/>
<path d="M254.877 222.914C258.816 221.196 260.454 218.682 261.638 217.203C272.269 203.925 249.587 164.514 217.205 141.709C182.885 111.825 145.096 101.642 134.466 114.92C132.641 117.198 131.211 120.303 130.616 123.806L110.437 239.904C109.736 254.058 115.146 259.436 117.853 262.063C122.758 266.824 132.297 270.873 142.247 267.37C180.643 252.586 216.613 239.595 254.877 222.914Z" fill="url(#paint4_radial_4777_15785)"/>
<ellipse cx="199.885" cy="163.106" rx="72.9149" ry="26.146" transform="rotate(39.7456 199.885 163.106)" fill="url(#paint5_linear_4777_15785)"/>
<ellipse cx="199.885" cy="163.106" rx="72.9149" ry="26.146" transform="rotate(39.7456 199.885 163.106)" fill="url(#paint6_radial_4777_15785)"/>
<ellipse cx="199.885" cy="163.106" rx="72.9149" ry="26.146" transform="rotate(39.7456 199.885 163.106)" fill="url(#paint7_radial_4777_15785)"/>
<circle cx="221.423" cy="143.494" r="10.7901" fill="url(#paint8_radial_4777_15785)"/>
<circle cx="221.423" cy="143.494" r="10.7901" fill="url(#paint9_radial_4777_15785)"/>
<circle cx="309.985" cy="205.432" r="10.7901" fill="url(#paint10_radial_4777_15785)"/>
<circle cx="309.985" cy="205.432" r="10.7901" fill="url(#paint11_radial_4777_15785)"/>
<circle cx="309.985" cy="205.432" r="10.7901" fill="url(#paint12_radial_4777_15785)"/>
<circle cx="300.946" cy="62.919" r="10.7901" fill="url(#paint13_radial_4777_15785)"/>
<circle cx="300.946" cy="62.919" r="10.7901" fill="url(#paint14_radial_4777_15785)"/>
<circle cx="176.892" cy="30.1983" r="10.7901" fill="url(#paint15_radial_4777_15785)"/>
<circle cx="176.892" cy="30.1983" r="10.7901" fill="url(#paint16_radial_4777_15785)"/>
<circle cx="176.892" cy="30.1983" r="10.7901" fill="url(#paint17_radial_4777_15785)"/>
<circle cx="131.485" cy="72.7276" r="10.7901" fill="url(#paint18_radial_4777_15785)"/>
<circle cx="131.485" cy="72.7276" r="10.7901" fill="url(#paint19_radial_4777_15785)"/>
<path fill-rule="evenodd" clip-rule="evenodd" d="M258.622 18.6745C263.322 18.8943 266.954 22.8828 266.734 27.5831C266.432 34.0545 265.254 44.8351 262.443 56.3506C260.093 65.9759 256.475 76.6518 250.905 85.8047C252.252 92.9453 252.288 101.371 250.809 110.952C250.091 115.602 245.74 118.79 241.089 118.072C236.439 117.355 233.251 113.003 233.969 108.353C234.299 106.209 234.534 104.202 234.685 102.323C233.031 103.185 231.337 103.861 229.608 104.344C222.854 106.231 216.376 104.923 211.309 101.548C201.682 95.1349 197.244 81.1014 204.695 69.6284C211.784 58.7142 226.558 55.7468 237.792 63.512C239.087 64.4074 240.304 65.4162 241.437 66.5356C243.23 62.0028 244.703 57.1661 245.889 52.3094C248.411 41.9798 249.455 32.297 249.713 26.7873C249.933 22.0869 253.921 18.4547 258.622 18.6745ZM232.19 82.7131C230.897 80.0197 229.361 78.3987 228.103 77.5293C224.588 75.0999 220.725 76.2314 218.985 78.9098C217.12 81.7819 218.107 85.6015 220.756 87.3665C221.827 88.08 223.2 88.4421 225.023 87.9328C226.672 87.472 229.196 86.1338 232.19 82.7131Z" fill="url(#paint20_linear_4777_15785)"/>
<path fill-rule="evenodd" clip-rule="evenodd" d="M258.622 18.6745C263.322 18.8943 266.954 22.8828 266.734 27.5831C266.432 34.0545 265.254 44.8351 262.443 56.3506C260.093 65.9759 256.475 76.6518 250.905 85.8047C252.252 92.9453 252.288 101.371 250.809 110.952C250.091 115.602 245.74 118.79 241.089 118.072C236.439 117.355 233.251 113.003 233.969 108.353C234.299 106.209 234.534 104.202 234.685 102.323C233.031 103.185 231.337 103.861 229.608 104.344C222.854 106.231 216.376 104.923 211.309 101.548C201.682 95.1349 197.244 81.1014 204.695 69.6284C211.784 58.7142 226.558 55.7468 237.792 63.512C239.087 64.4074 240.304 65.4162 241.437 66.5356C243.23 62.0028 244.703 57.1661 245.889 52.3094C248.411 41.9798 249.455 32.297 249.713 26.7873C249.933 22.0869 253.921 18.4547 258.622 18.6745ZM232.19 82.7131C230.897 80.0197 229.361 78.3987 228.103 77.5293C224.588 75.0999 220.725 76.2314 218.985 78.9098C217.12 81.7819 218.107 85.6015 220.756 87.3665C221.827 88.08 223.2 88.4421 225.023 87.9328C226.672 87.472 229.196 86.1338 232.19 82.7131Z" fill="url(#paint21_radial_4777_15785)"/>
<path fill-rule="evenodd" clip-rule="evenodd" d="M258.622 18.6745C263.322 18.8943 266.954 22.8828 266.734 27.5831C266.432 34.0545 265.254 44.8351 262.443 56.3506C260.093 65.9759 256.475 76.6518 250.905 85.8047C252.252 92.9453 252.288 101.371 250.809 110.952C250.091 115.602 245.74 118.79 241.089 118.072C236.439 117.355 233.251 113.003 233.969 108.353C234.299 106.209 234.534 104.202 234.685 102.323C233.031 103.185 231.337 103.861 229.608 104.344C222.854 106.231 216.376 104.923 211.309 101.548C201.682 95.1349 197.244 81.1014 204.695 69.6284C211.784 58.7142 226.558 55.7468 237.792 63.512C239.087 64.4074 240.304 65.4162 241.437 66.5356C243.23 62.0028 244.703 57.1661 245.889 52.3094C248.411 41.9798 249.455 32.297 249.713 26.7873C249.933 22.0869 253.921 18.4547 258.622 18.6745ZM232.19 82.7131C230.897 80.0197 229.361 78.3987 228.103 77.5293C224.588 75.0999 220.725 76.2314 218.985 78.9098C217.12 81.7819 218.107 85.6015 220.756 87.3665C221.827 88.08 223.2 88.4421 225.023 87.9328C226.672 87.472 229.196 86.1338 232.19 82.7131Z" fill="url(#paint22_radial_4777_15785)"/>
<path fill-rule="evenodd" clip-rule="evenodd" d="M258.622 18.6745C263.322 18.8943 266.954 22.8828 266.734 27.5831C266.432 34.0545 265.254 44.8351 262.443 56.3506C260.093 65.9759 256.475 76.6518 250.905 85.8047C252.252 92.9453 252.288 101.371 250.809 110.952C250.091 115.602 245.74 118.79 241.089 118.072C236.439 117.355 233.251 113.003 233.969 108.353C234.299 106.209 234.534 104.202 234.685 102.323C233.031 103.185 231.337 103.861 229.608 104.344C222.854 106.231 216.376 104.923 211.309 101.548C201.682 95.1349 197.244 81.1014 204.695 69.6284C211.784 58.7142 226.558 55.7468 237.792 63.512C239.087 64.4074 240.304 65.4162 241.437 66.5356C243.23 62.0028 244.703 57.1661 245.889 52.3094C248.411 41.9798 249.455 32.297 249.713 26.7873C249.933 22.0869 253.921 18.4547 258.622 18.6745ZM232.19 82.7131C230.897 80.0197 229.361 78.3987 228.103 77.5293C224.588 75.0999 220.725 76.2314 218.985 78.9098C217.12 81.7819 218.107 85.6015 220.756 87.3665C221.827 88.08 223.2 88.4421 225.023 87.9328C226.672 87.472 229.196 86.1338 232.19 82.7131Z" fill="url(#paint23_radial_4777_15785)"/>
<path d="M230.361 233.261C206.99 231.637 190.598 224.642 164.04 202.7C141.194 183.824 129.851 167.079 126.066 150.003L121.68 175.237C123.472 185.113 131.179 198.916 146.454 212.719C166.431 230.772 186.321 243.548 205.991 242.988C214.086 239.827 222.194 236.603 230.361 233.261Z" fill="url(#paint24_radial_4777_15785)"/>
<path d="M181.08 252.575C169.847 253.201 154.657 244.037 138.892 230.935C125.439 219.304 118.804 206.668 117.407 199.85L112.953 225.475C114.055 229.807 117.41 235.695 127.121 245.649C137.98 256.779 148.9 261.11 155.384 262.342C159.986 260.589 164.559 258.852 169.114 257.123C173.116 255.603 177.102 254.09 181.08 252.575Z" fill="url(#paint25_radial_4777_15785)"/>
<path fill-rule="evenodd" clip-rule="evenodd" d="M337.542 117.563C305.275 111.259 286.209 126.041 280.165 132.671C276.661 136.515 270.705 136.79 266.862 133.286C263.018 129.783 262.743 123.827 266.247 119.983C275.617 109.704 300.972 91.2289 341.153 99.0784C346.257 100.076 349.587 105.022 348.59 110.126C347.593 115.23 342.646 118.56 337.542 117.563Z" fill="url(#paint26_radial_4777_15785)"/>
<path fill-rule="evenodd" clip-rule="evenodd" d="M337.542 117.563C305.275 111.259 286.209 126.041 280.165 132.671C276.661 136.515 270.705 136.79 266.862 133.286C263.018 129.783 262.743 123.827 266.247 119.983C275.617 109.704 300.972 91.2289 341.153 99.0784C346.257 100.076 349.587 105.022 348.59 110.126C347.593 115.23 342.646 118.56 337.542 117.563Z" fill="url(#paint27_radial_4777_15785)"/>
<path d="M202.578 73.6435C203.129 72.2819 203.825 70.9385 204.676 69.6285C211.764 58.7143 226.538 55.7469 237.772 63.5121C239.068 64.4074 240.284 65.4163 241.418 66.5357C241.784 65.6095 242.137 64.6707 242.477 63.7216C242.494 63.779 242.51 63.8361 242.526 63.8929C240.219 71.1621 235.04 78.9438 232.164 82.6981C230.872 80.0138 229.339 78.3971 228.083 77.5294C224.569 75.1 220.705 76.2315 218.966 78.9099C218.898 79.0141 218.834 79.1196 218.774 79.2262L202.578 73.6435Z" fill="url(#paint28_radial_4777_15785)"/>
<path d="M202.578 73.6435C203.129 72.2819 203.825 70.9385 204.676 69.6285C211.764 58.7143 226.538 55.7469 237.772 63.5121C239.068 64.4074 240.284 65.4163 241.418 66.5357C241.784 65.6095 242.137 64.6707 242.477 63.7216C242.494 63.779 242.51 63.8361 242.526 63.8929C240.219 71.1621 235.04 78.9438 232.164 82.6981C230.872 80.0138 229.339 78.3971 228.083 77.5294C224.569 75.1 220.705 76.2315 218.966 78.9099C218.898 79.0141 218.834 79.1196 218.774 79.2262L202.578 73.6435Z" fill="url(#paint29_radial_4777_15785)"/>
<path d="M242.284 151.144C279.57 132.349 320.68 142.55 337.432 149.19C343.187 151.472 346.003 157.988 343.722 163.743C341.44 169.499 334.924 172.315 329.169 170.033C314.811 164.341 281.237 156.616 252.376 171.164C233.346 180.756 219.197 193.654 211.42 202.736C205.283 199.343 198.887 195.233 192.453 190.488C202.197 178.413 219.598 162.579 242.284 151.144Z" fill="url(#paint30_linear_4777_15785)"/>
<path d="M242.284 151.144C279.57 132.349 320.68 142.55 337.432 149.19C343.187 151.472 346.003 157.988 343.722 163.743C341.44 169.499 334.924 172.315 329.169 170.033C314.811 164.341 281.237 156.616 252.376 171.164C233.346 180.756 219.197 193.654 211.42 202.736C205.283 199.343 198.887 195.233 192.453 190.488C202.197 178.413 219.598 162.579 242.284 151.144Z" fill="url(#paint31_radial_4777_15785)"/>
<path d="M242.284 151.144C279.57 132.349 320.68 142.55 337.432 149.19C343.187 151.472 346.003 157.988 343.722 163.743C341.44 169.499 334.924 172.315 329.169 170.033C314.811 164.341 281.237 156.616 252.376 171.164C233.346 180.756 219.197 193.654 211.42 202.736C205.283 199.343 198.887 195.233 192.453 190.488C202.197 178.413 219.598 162.579 242.284 151.144Z" fill="url(#paint32_radial_4777_15785)"/>
<path d="M242.284 151.144C279.57 132.349 320.68 142.55 337.432 149.19C343.187 151.472 346.003 157.988 343.722 163.743C341.44 169.499 334.924 172.315 329.169 170.033C314.811 164.341 281.237 156.616 252.376 171.164C233.346 180.756 219.197 193.654 211.42 202.736C205.283 199.343 198.887 195.233 192.453 190.488C202.197 178.413 219.598 162.579 242.284 151.144Z" fill="url(#paint33_radial_4777_15785)"/>
<path d="M163.439 55.3252C168.85 52.3149 175.676 54.2608 178.687 59.6709C183.809 68.8774 191.383 84.0392 192.349 104.046C193.282 123.391 187.996 146.146 170.533 171.553C164.611 165.712 159.435 159.832 155.148 154.157C167.531 134.474 170.578 118.065 169.954 105.126C169.238 90.2755 163.64 78.742 159.094 70.5723C156.083 65.1621 158.029 58.3356 163.439 55.3252Z" fill="url(#paint34_radial_4777_15785)"/>
<path d="M163.439 55.3252C168.85 52.3149 175.676 54.2608 178.687 59.6709C183.809 68.8774 191.383 84.0392 192.349 104.046C193.282 123.391 187.996 146.146 170.533 171.553C164.611 165.712 159.435 159.832 155.148 154.157C167.531 134.474 170.578 118.065 169.954 105.126C169.238 90.2755 163.64 78.742 159.094 70.5723C156.083 65.1621 158.029 58.3356 163.439 55.3252Z" fill="url(#paint35_radial_4777_15785)"/>
<path d="M250.898 85.8135C252.243 92.9524 252.279 101.375 250.801 110.953C250.083 115.603 245.731 118.791 241.081 118.073C236.431 117.356 233.243 113.004 233.96 108.354C234.291 106.214 234.525 104.21 234.676 102.334C243.482 96.8051 249.296 89.4482 250.898 85.8135Z" fill="url(#paint36_radial_4777_15785)"/>
<circle opacity="0.2" cx="155.751" cy="163.523" r="155.751" fill="#4680EE"/>
<defs>
<linearGradient id="paint0_linear_4777_15785" x1="125.151" y1="179.228" x2="197.458" y2="242.006" gradientUnits="userSpaceOnUse">
<stop stop-color="#B3843C"/>
<stop offset="1" stop-color="#F17A61"/>
</linearGradient>
<linearGradient id="paint1_linear_4777_15785" x1="117.161" y1="188.943" x2="138.323" y2="193.241" gradientUnits="userSpaceOnUse">
<stop stop-color="#B1853B"/>
<stop offset="1" stop-color="#B1853B" stop-opacity="0"/>
</linearGradient>
<linearGradient id="paint2_linear_4777_15785" x1="264.288" y1="213.7" x2="228.567" y2="219.585" gradientUnits="userSpaceOnUse">
<stop stop-color="#F9C26C"/>
<stop offset="1" stop-color="#F9C26C" stop-opacity="0"/>
</linearGradient>
<linearGradient id="paint3_linear_4777_15785" x1="187.331" y1="111.124" x2="164.387" y2="150.081" gradientUnits="userSpaceOnUse">
<stop stop-color="#E6BF69"/>
<stop offset="1" stop-color="#E6BF69" stop-opacity="0"/>
</linearGradient>
<radialGradient id="paint4_radial_4777_15785" cx="0" cy="0" r="1" gradientUnits="userSpaceOnUse" gradientTransform="translate(200.319 160.589) rotate(-49.3383) scale(39.0422 91.4955)">
<stop stop-color="#F5BD55" stop-opacity="0"/>
<stop offset="0.836376" stop-color="#FCCB57"/>
<stop offset="1" stop-color="#FCCB57" stop-opacity="0"/>
</radialGradient>
<linearGradient id="paint5_linear_4777_15785" x1="133.456" y1="160.216" x2="281.254" y2="167.44" gradientUnits="userSpaceOnUse">
<stop stop-color="#F3AB2C"/>
<stop offset="1" stop-color="#B57F1E"/>
</linearGradient>
<radialGradient id="paint6_radial_4777_15785" cx="0" cy="0" r="1" gradientUnits="userSpaceOnUse" gradientTransform="translate(163.107 184.038) rotate(-109.125) scale(58.0926 16.2711)">
<stop offset="0.423414" stop-color="#CA851E"/>
<stop offset="1" stop-color="#CA851E" stop-opacity="0"/>
</radialGradient>
<radialGradient id="paint7_radial_4777_15785" cx="0" cy="0" r="1" gradientUnits="userSpaceOnUse" gradientTransform="translate(223.929 184.855) rotate(-73.0972) scale(58.38 34.1879)">
<stop stop-color="#BC7F28"/>
<stop offset="1" stop-color="#BC7F28" stop-opacity="0"/>
</radialGradient>
<radialGradient id="paint8_radial_4777_15785" cx="0" cy="0" r="1" gradientUnits="userSpaceOnUse" gradientTransform="translate(226.187 140.551) rotate(138.668) scale(15.4894)">
<stop stop-color="#5AC0FF"/>
<stop offset="1" stop-color="#3279B6"/>
</radialGradient>
<radialGradient id="paint9_radial_4777_15785" cx="0" cy="0" r="1" gradientUnits="userSpaceOnUse" gradientTransform="translate(223.546 142.008) rotate(160.051) scale(15.5546 17.0498)">
<stop offset="0.534713" stop-color="#3A619E" stop-opacity="0"/>
<stop offset="1" stop-color="#3A619E"/>
</radialGradient>
<radialGradient id="paint10_radial_4777_15785" cx="0" cy="0" r="1" gradientUnits="userSpaceOnUse" gradientTransform="translate(316.238 200.872) rotate(134.569) scale(17.7352)">
<stop stop-color="#FDD46C"/>
<stop offset="1" stop-color="#F09C53"/>
</radialGradient>
<radialGradient id="paint11_radial_4777_15785" cx="0" cy="0" r="1" gradientUnits="userSpaceOnUse" gradientTransform="translate(311.995 199.929) rotate(100.827) scale(17.5675)">
<stop offset="0.792052" stop-color="#E76260" stop-opacity="0"/>
<stop offset="0.964251" stop-color="#E76260"/>
</radialGradient>
<radialGradient id="paint12_radial_4777_15785" cx="0" cy="0" r="1" gradientUnits="userSpaceOnUse" gradientTransform="translate(315.133 207.212) rotate(-147.558) scale(17.7907 20.951)">
<stop offset="0.482355" stop-color="#AA885A" stop-opacity="0"/>
<stop offset="0.90682" stop-color="#AA885A"/>
</radialGradient>
<radialGradient id="paint13_radial_4777_15785" cx="0" cy="0" r="1" gradientUnits="userSpaceOnUse" gradientTransform="translate(308.673 58.7203) rotate(132.387) scale(18.4759)">
<stop stop-color="#FF46AA"/>
<stop offset="1" stop-color="#E3189D"/>
</radialGradient>
<radialGradient id="paint14_radial_4777_15785" cx="0" cy="0" r="1" gradientUnits="userSpaceOnUse" gradientTransform="translate(305.501 64.8808) rotate(-173.29) scale(16.7906 22.471)">
<stop offset="0.522105" stop-color="#B63173" stop-opacity="0"/>
<stop offset="1" stop-color="#B63173"/>
</radialGradient>
<radialGradient id="paint15_radial_4777_15785" cx="0" cy="0" r="1" gradientUnits="userSpaceOnUse" gradientTransform="translate(183.962 25.8792) rotate(139.574) scale(16.5124)">
<stop stop-color="#FFF46F"/>
<stop offset="1" stop-color="#EFB93C"/>
</radialGradient>
<radialGradient id="paint16_radial_4777_15785" cx="0" cy="0" r="1" gradientUnits="userSpaceOnUse" gradientTransform="translate(181.6 28.451) rotate(-178.519) scale(17.1712 16.3491)">
<stop offset="0.558644" stop-color="#AA904B" stop-opacity="0"/>
<stop offset="0.943632" stop-color="#AA904B"/>
</radialGradient>
<radialGradient id="paint17_radial_4777_15785" cx="0" cy="0" r="1" gradientUnits="userSpaceOnUse" gradientTransform="translate(179.662 24.1026) rotate(102.339) scale(18.3609)">
<stop offset="0.771901" stop-color="#C47072" stop-opacity="0"/>
<stop offset="1" stop-color="#C47072"/>
</radialGradient>
<radialGradient id="paint18_radial_4777_15785" cx="0" cy="0" r="1" gradientUnits="userSpaceOnUse" gradientTransform="translate(139.212 68.5289) rotate(132.387) scale(18.4759)">
<stop stop-color="#FF46AA"/>
<stop offset="1" stop-color="#E3189D"/>
</radialGradient>
<radialGradient id="paint19_radial_4777_15785" cx="0" cy="0" r="1" gradientUnits="userSpaceOnUse" gradientTransform="translate(136.04 74.6894) rotate(-173.29) scale(16.7906 22.471)">
<stop offset="0.522105" stop-color="#B63173" stop-opacity="0"/>
<stop offset="1" stop-color="#B63173"/>
</radialGradient>
<linearGradient id="paint20_linear_4777_15785" x1="258.247" y1="18.665" x2="218.052" y2="115" gradientUnits="userSpaceOnUse">
<stop stop-color="#20B2EE"/>
<stop offset="1" stop-color="#2689DA"/>
</linearGradient>
<radialGradient id="paint21_radial_4777_15785" cx="0" cy="0" r="1" gradientUnits="userSpaceOnUse" gradientTransform="translate(249.425 49.9594) rotate(128.217) scale(69.6004 42.5729)">
<stop offset="0.80204" stop-color="#4274D2" stop-opacity="0"/>
<stop offset="0.950917" stop-color="#4274D2"/>
</radialGradient>
<radialGradient id="paint22_radial_4777_15785" cx="0" cy="0" r="1" gradientUnits="userSpaceOnUse" gradientTransform="translate(245.943 41.8988) rotate(12.0948) scale(10.0318 33.6776)">
<stop stop-color="#4D8EC0"/>
<stop offset="1" stop-color="#4D8EC0" stop-opacity="0"/>
</radialGradient>
<radialGradient id="paint23_radial_4777_15785" cx="0" cy="0" r="1" gradientUnits="userSpaceOnUse" gradientTransform="translate(265.842 20.1786) rotate(141.953) scale(12.278 11.0388)">
<stop stop-color="#5ADEFF"/>
<stop offset="1" stop-color="#5ADEFF" stop-opacity="0"/>
</radialGradient>
<radialGradient id="paint24_radial_4777_15785" cx="0" cy="0" r="1" gradientUnits="userSpaceOnUse" gradientTransform="translate(187.932 224.91) rotate(133.21) scale(38.0682 83.3476)">
<stop stop-color="#3365FF"/>
<stop offset="1" stop-color="#356DB9"/>
</radialGradient>
<radialGradient id="paint25_radial_4777_15785" cx="0" cy="0" r="1" gradientUnits="userSpaceOnUse" gradientTransform="translate(153.746 251.254) rotate(131.598) scale(23.4987 59.4418)">
<stop stop-color="#3365FF"/>
<stop offset="1" stop-color="#356DB9"/>
</radialGradient>
<radialGradient id="paint26_radial_4777_15785" cx="0" cy="0" r="1" gradientUnits="userSpaceOnUse" gradientTransform="translate(334.233 106.639) rotate(168.283) scale(38.6406 14.4159)">
<stop stop-color="#FF3BA9"/>
<stop offset="1" stop-color="#F422A7"/>
</radialGradient>
<radialGradient id="paint27_radial_4777_15785" cx="0" cy="0" r="1" gradientUnits="userSpaceOnUse" gradientTransform="translate(306.278 137.468) rotate(-127.355) scale(39.8412 71.0051)">
<stop offset="0.752144" stop-color="#B8306F" stop-opacity="0"/>
<stop offset="1" stop-color="#B8306F"/>
</radialGradient>
<radialGradient id="paint28_radial_4777_15785" cx="0" cy="0" r="1" gradientUnits="userSpaceOnUse" gradientTransform="translate(239.991 83.7767) rotate(-131.325) scale(26.4094 19.7413)">
<stop stop-color="#336BAF"/>
<stop offset="1" stop-color="#336BAF" stop-opacity="0"/>
</radialGradient>
<radialGradient id="paint29_radial_4777_15785" cx="0" cy="0" r="1" gradientUnits="userSpaceOnUse" gradientTransform="translate(242.526 66.8413) rotate(-127.657) scale(16.6373 6.7407)">
<stop stop-color="#49A4D4"/>
<stop offset="1" stop-color="#49A4D4" stop-opacity="0"/>
</radialGradient>
<linearGradient id="paint30_linear_4777_15785" x1="216.877" y1="194.565" x2="337.128" y2="163.05" gradientUnits="userSpaceOnUse">
<stop stop-color="#3797E2"/>
<stop offset="1" stop-color="#37AEFF"/>
</linearGradient>
<radialGradient id="paint31_radial_4777_15785" cx="0" cy="0" r="1" gradientTransform="matrix(-45.8451 -54.9488 137.747 -114.915 261.358 214.227)" gradientUnits="userSpaceOnUse">
<stop offset="0.622552" stop-color="#526579" stop-opacity="0"/>
<stop offset="0.962126" stop-color="#526579"/>
</radialGradient>
<radialGradient id="paint32_radial_4777_15785" cx="0" cy="0" r="1" gradientTransform="matrix(-1.88404 24.4915 -49.2425 -3.78771 301.551 175.606)" gradientUnits="userSpaceOnUse">
<stop offset="0.396078" stop-color="#6972FF"/>
<stop offset="1" stop-color="#6972FF" stop-opacity="0"/>
</radialGradient>
<radialGradient id="paint33_radial_4777_15785" cx="0" cy="0" r="1" gradientTransform="matrix(2.43356 -6.27986 4.95263 1.91906 337.976 154.961)" gradientUnits="userSpaceOnUse">
<stop stop-color="#55BFFF"/>
<stop offset="1" stop-color="#55BFFF" stop-opacity="0"/>
</radialGradient>
<radialGradient id="paint34_radial_4777_15785" cx="0" cy="0" r="1" gradientTransform="matrix(-10.7336 64.6835 -24.2301 -4.02169 184.533 57.7233)" gradientUnits="userSpaceOnUse">
<stop stop-color="#FF3AAA"/>
<stop offset="1" stop-color="#FD2F89"/>
</radialGradient>
<radialGradient id="paint35_radial_4777_15785" cx="0" cy="0" r="1" gradientTransform="matrix(36.8878 22.3213 -70.0424 115.778 150.304 125.336)" gradientUnits="userSpaceOnUse">
<stop offset="0.803698" stop-color="#DB2C6E" stop-opacity="0"/>
<stop offset="1" stop-color="#DB2C6E"/>
</radialGradient>
<radialGradient id="paint36_radial_4777_15785" cx="0" cy="0" r="1" gradientUnits="userSpaceOnUse" gradientTransform="translate(247.33 101.994) rotate(98.0559) scale(31.7245 17.6561)">
<stop stop-color="#4AB5F8"/>
<stop offset="1" stop-color="#4AB5F8" stop-opacity="0"/>
</radialGradient>
</defs>
</svg>
