<svg width="307" height="307" viewBox="0 0 307 307" fill="none" xmlns="http://www.w3.org/2000/svg">
<path d="M269.657 83.6636C255.713 62.4991 229.206 49.9305 203.59 52.3497C177.974 54.7688 154.396 71.9976 144.812 95.3972C139.9 107.339 138.365 120.737 131.046 131.421C123.543 142.374 111.036 148.907 98.768 154.366C86.5003 159.824 73.594 164.853 63.9358 174.014C54.2776 183.175 48.5858 197.911 54.2776 209.847C60.0983 221.979 74.7975 226.83 85.4135 235.303C96.0296 243.776 102.777 256.241 113.615 264.431C123.629 272.002 136.541 275.33 149.202 275.305C161.863 275.281 174.315 272.088 186.14 267.673C222.814 253.987 257.364 228.519 271.996 192.87C299.079 126.852 269.657 83.6636 269.657 83.6636Z" fill="#83ABFF"/>
<g opacity="0.7">
<path d="M269.657 83.6636C255.713 62.4991 229.206 49.9305 203.59 52.3497C177.974 54.7688 154.396 71.9976 144.812 95.3972C139.9 107.339 138.365 120.737 131.046 131.421C123.543 142.374 111.036 148.907 98.768 154.366C86.5003 159.824 73.594 164.853 63.9358 174.014C54.2776 183.175 48.5858 197.911 54.2776 209.847C60.0983 221.979 74.7975 226.83 85.4135 235.303C96.0296 243.776 102.777 256.241 113.615 264.431C123.629 272.002 136.541 275.33 149.202 275.305C161.863 275.281 174.315 272.088 186.14 267.673C222.814 253.987 257.364 228.519 271.996 192.87C299.079 126.852 269.657 83.6636 269.657 83.6636Z" fill="white"/>
</g>
<path d="M137.112 165.467C135.605 164.433 133.844 163.831 132.02 163.727C130.195 163.622 128.377 164.018 126.761 164.872C125.146 165.727 123.794 167.006 122.854 168.573C121.913 170.14 121.419 171.934 121.425 173.762V173.823C121.12 173.432 120.735 173.111 120.297 172.879C119.859 172.647 119.377 172.511 118.882 172.479C118.387 172.447 117.891 172.52 117.427 172.694C116.962 172.867 116.54 173.137 116.187 173.486C115.977 171.479 115.005 169.629 113.472 168.317C111.939 167.006 109.962 166.331 107.947 166.434C105.932 166.536 104.033 167.407 102.64 168.867C101.248 170.328 100.469 172.266 100.463 174.284C100.134 174.052 99.7516 173.907 99.3516 173.863C98.9515 173.819 98.5469 173.878 98.1756 174.033C97.8043 174.188 97.4786 174.435 97.2289 174.751C96.9792 175.066 96.8137 175.44 96.748 175.837H152.542C152.542 174.491 152.156 173.173 151.429 172.039C150.703 170.905 149.667 170.004 148.443 169.441C147.22 168.878 145.861 168.678 144.528 168.864C143.194 169.049 141.942 169.614 140.919 170.489C140.581 169.522 140.099 168.611 139.489 167.788" stroke="#263238" stroke-linecap="round" stroke-linejoin="round"/>
<path d="M232.995 92.0324C234.829 91.3915 236.791 91.199 238.715 91.4712C240.64 91.7433 242.471 92.4722 244.056 93.5968C245.641 94.7214 246.934 96.2091 247.826 97.9355C248.719 99.6619 249.185 101.577 249.186 103.52V103.594C249.556 103.12 250.023 102.731 250.554 102.45C251.086 102.169 251.671 102.004 252.271 101.965C252.871 101.926 253.473 102.015 254.036 102.224C254.6 102.434 255.112 102.761 255.541 103.183C255.815 100.762 257.002 98.537 258.859 96.9609C260.717 95.3848 263.105 94.5762 265.538 94.6999C267.971 94.8236 270.265 95.8703 271.954 97.6266C273.642 99.383 274.597 101.717 274.624 104.153C275.107 103.806 275.687 103.621 276.282 103.625C276.966 103.623 277.628 103.865 278.15 104.307C278.672 104.749 279.02 105.363 279.131 106.038H211.425C211.42 104.4 211.886 102.795 212.768 101.414C213.65 100.034 214.911 98.9362 216.399 98.2521C217.888 97.5681 219.541 97.3265 221.163 97.5562C222.785 97.786 224.307 98.4773 225.547 99.5478C226.161 97.7779 227.173 96.1728 228.506 94.8568" stroke="#263238" stroke-linecap="round" stroke-linejoin="round"/>
<path d="M25.2046 77.8982H92.9104C92.9152 76.26 92.4488 74.6551 91.5669 73.2747C90.6849 71.8942 89.4246 70.7965 87.9361 70.1125C86.4476 69.4285 84.7938 69.1869 83.1719 69.4166C81.55 69.6464 80.0283 70.3377 78.7884 71.4082C77.8477 68.6908 75.9746 66.3946 73.5017 64.9271C71.0288 63.4596 68.1159 62.9156 65.28 63.3918C62.4441 63.8681 59.8687 65.3336 58.0107 67.5284C56.1528 69.7231 55.1325 72.5052 55.131 75.3808V75.4544C54.7605 74.9809 54.2941 74.591 53.7624 74.3102C53.2307 74.0295 52.6456 73.8643 52.0456 73.8254C51.4456 73.7866 50.8442 73.875 50.2807 74.0848C49.7173 74.2947 49.2045 74.6212 48.7761 75.0431C48.5019 72.6224 47.3152 70.3974 45.4577 68.8213C43.6001 67.2452 41.2115 66.4366 38.7786 66.5603C36.3457 66.684 34.0514 67.7306 32.3633 69.487C30.6751 71.2433 29.7202 73.5772 29.6929 76.0132C29.2102 75.666 28.6297 75.4811 28.0351 75.4851C27.3542 75.4878 26.6962 75.7316 26.178 76.1734C25.6598 76.6151 25.3149 77.2262 25.2046 77.8982Z" fill="white" stroke="#263238" stroke-miterlimit="10"/>
<path d="M115.438 101.832L117.538 114.959" stroke="#83ABFF" stroke-miterlimit="10"/>
<path d="M107.499 106.48L116.236 117.059" stroke="#83ABFF" stroke-miterlimit="10"/>
<path d="M106.118 115.463L114.296 118.662" stroke="#83ABFF" stroke-miterlimit="10"/>
<path d="M64.6235 138.31V128.197" stroke="#263238" stroke-linecap="round" stroke-linejoin="round"/>
<path d="M40.8126 138.31H64.6235V130.85H40.8126V138.31Z" fill="white" stroke="#263238" stroke-linecap="round" stroke-linejoin="round"/>
<path d="M40.8125 138.31V128.197" stroke="#263238" stroke-linecap="round" stroke-linejoin="round"/>
<path d="M124.599 275.121H172.724V191.322H124.599V275.121Z" fill="white" stroke="#263238" stroke-linecap="round" stroke-linejoin="round"/>
<path d="M76.6271 275.121H124.752L124.752 160.254H76.6271L76.6271 275.121Z" fill="white" stroke="#263238" stroke-linecap="round" stroke-linejoin="round"/>
<path d="M28.2809 275.127H76.4062L76.4062 138.107H28.2809L28.2809 275.127Z" fill="white" stroke="#263238" stroke-linecap="round" stroke-linejoin="round"/>
<path d="M67.4478 146.746V269.933" stroke="#83ABFF" stroke-linecap="round" stroke-linejoin="round"/>
<path d="M56.9238 146.746V269.933" stroke="#83ABFF" stroke-linecap="round" stroke-linejoin="round"/>
<path d="M46.3999 146.746V269.933" stroke="#83ABFF" stroke-linecap="round" stroke-linejoin="round"/>
<path d="M35.8823 146.746V269.933" stroke="#83ABFF" stroke-linecap="round" stroke-linejoin="round"/>
<path d="M116.764 166.185V177.649V189.106V200.569V212.027V223.496V234.959V246.417V257.88V269.343V269.564" stroke="#83ABFF" stroke-linecap="round" stroke-linejoin="round"/>
<path d="M106.24 166.185V177.649V189.106V200.569V212.027V223.496V234.959V246.417V257.88V269.343V269.564" stroke="#83ABFF" stroke-linecap="round" stroke-linejoin="round"/>
<path d="M95.7104 166.185V177.649V189.106V200.569V212.027V223.496V234.959V246.417V257.88V269.343V269.564" stroke="#83ABFF" stroke-linecap="round" stroke-linejoin="round"/>
<path d="M85.1924 166.185V177.649V189.106V200.569V212.027V223.496V234.959V246.417V257.88V269.343V269.564" stroke="#83ABFF" stroke-linecap="round" stroke-linejoin="round"/>
<path d="M116.764 166.185H114.701H104.865H95.0225H85.1924" stroke="#83ABFF" stroke-linecap="round" stroke-linejoin="round"/>
<path d="M116.764 177.649H114.701H104.865H95.0225H85.1924" stroke="#83ABFF" stroke-linecap="round" stroke-linejoin="round"/>
<path d="M116.764 189.106H114.701H104.865H95.0225H85.1924" stroke="#83ABFF" stroke-linecap="round" stroke-linejoin="round"/>
<path d="M116.764 200.569H114.701H104.865H95.0225H85.1924" stroke="#83ABFF" stroke-linecap="round" stroke-linejoin="round"/>
<path d="M116.764 212.026H114.701H104.865H95.0225H85.1924" stroke="#83ABFF" stroke-linecap="round" stroke-linejoin="round"/>
<path d="M116.764 223.496H114.701H104.865H95.0225H85.1924" stroke="#83ABFF" stroke-linecap="round" stroke-linejoin="round"/>
<path d="M116.764 234.959H114.701H104.865H95.0225H85.1924" stroke="#83ABFF" stroke-linecap="round" stroke-linejoin="round"/>
<path d="M116.764 246.417H114.701H104.865H95.0225H85.1924" stroke="#83ABFF" stroke-linecap="round" stroke-linejoin="round"/>
<path d="M116.764 257.88H114.701H104.865H95.0225H85.1924" stroke="#83ABFF" stroke-linecap="round" stroke-linejoin="round"/>
<path d="M116.764 269.343H114.701H104.865H95.0225H85.1924" stroke="#83ABFF" stroke-linecap="round" stroke-linejoin="round"/>
<path d="M168.015 198.236H131.635" stroke="#83ABFF" stroke-linecap="round" stroke-linejoin="round"/>
<path d="M168.015 209.699H131.635" stroke="#83ABFF" stroke-linecap="round" stroke-linejoin="round"/>
<path d="M168.015 221.157H131.635" stroke="#83ABFF" stroke-linecap="round" stroke-linejoin="round"/>
<path d="M168.015 232.62H131.635" stroke="#83ABFF" stroke-linecap="round" stroke-linejoin="round"/>
<path d="M168.015 244.083H131.635" stroke="#83ABFF" stroke-linecap="round" stroke-linejoin="round"/>
<path d="M168.015 255.547H131.635" stroke="#83ABFF" stroke-linecap="round" stroke-linejoin="round"/>
<path d="M168.015 267.004H131.635" stroke="#83ABFF" stroke-linecap="round" stroke-linejoin="round"/>
<path d="M279.13 275.483H257.125H254.564H25.2046" stroke="#263238" stroke-linecap="round" stroke-linejoin="round"/>
<path d="M108.813 274.771C108.487 274.925 106.123 275.011 103.109 275.06C96.9687 275.164 88.1333 275.115 88.1333 275.115C88.1333 275.115 87.6544 275.115 87.4702 272.72C87.286 270.326 88.4648 268.422 88.5999 267.422C89.2139 262.829 87.6482 260.913 87.6237 260.575C87.5991 260.238 96.2197 260.047 96.2197 260.047L99.0441 259.857L98.4301 263.897C98.3916 264.126 98.3711 264.358 98.3687 264.591C98.3103 266.02 98.758 267.423 99.633 268.554C100.508 269.686 101.754 270.472 103.152 270.774H103.281C103.483 270.584 106.965 268.975 108.389 271.198C109.169 272.407 108.813 274.771 108.813 274.771Z" fill="#263238"/>
<mask id="mask0_7330_2371" style="mask-type:luminance" maskUnits="userSpaceOnUse" x="87" y="259" width="22" height="17">
<path d="M108.813 274.771C108.487 274.925 106.123 275.011 103.109 275.06C96.9687 275.164 88.1333 275.115 88.1333 275.115C88.1333 275.115 87.6544 275.115 87.4702 272.72C87.286 270.326 88.4648 268.422 88.5999 267.422C89.2139 262.829 87.6482 260.913 87.6237 260.575C87.5991 260.238 96.2197 260.047 96.2197 260.047L99.0441 259.857L98.4301 263.897C98.3916 264.126 98.3711 264.358 98.3687 264.591C98.3103 266.02 98.758 267.423 99.633 268.554C100.508 269.686 101.754 270.472 103.152 270.774H103.281C103.483 270.584 106.965 268.975 108.389 271.198C109.169 272.407 108.813 274.771 108.813 274.771Z" fill="white"/>
</mask>
<g mask="url(#mask0_7330_2371)">
<path opacity="0.2" d="M108.813 274.771C108.487 274.925 106.123 275.011 103.109 275.06C96.9687 275.164 88.1333 275.115 88.1333 275.115C88.1333 275.115 87.6544 275.115 87.4702 272.72C87.286 270.326 88.4648 268.422 88.5999 267.422C89.2139 262.829 87.6482 260.913 87.6237 260.575C87.5991 260.238 96.2197 260.047 96.2197 260.047L99.0441 259.857L98.4301 263.897C98.3916 264.126 98.3711 264.358 98.3687 264.591C98.3103 266.02 98.758 267.423 99.633 268.554C100.508 269.686 101.754 270.472 103.152 270.774H103.281C103.483 270.584 106.965 268.975 108.389 271.198C109.169 272.407 108.813 274.771 108.813 274.771Z" fill="white"/>
<path opacity="0.3" d="M103.109 275.072C96.9687 275.177 88.1333 275.128 88.1333 275.128C88.1333 275.128 87.6544 275.128 87.4702 272.733C87.286 270.338 88.4648 268.435 88.5999 267.434C89.2139 262.841 87.6482 260.926 87.6237 260.588C87.5991 260.25 96.2197 260.06 96.2197 260.06L99.0441 259.87L98.4301 263.91C98.3916 264.139 98.3711 264.371 98.3687 264.604C96.4223 266.212 94.875 267.508 94.875 267.508C94.875 267.508 102.765 270.111 103.109 275.072Z" fill="black"/>
</g>
<path d="M108.813 274.771C108.487 274.925 106.123 275.011 103.109 275.06C96.9687 275.164 88.1333 275.115 88.1333 275.115C88.1333 275.115 87.6544 275.115 87.4702 272.72C87.286 270.326 88.4648 268.422 88.5999 267.422C89.2139 262.829 87.6482 260.913 87.6237 260.575C87.5991 260.238 96.2197 260.047 96.2197 260.047L99.0441 259.857L98.4301 263.897C98.3916 264.126 98.3711 264.358 98.3687 264.591C98.3103 266.02 98.758 267.423 99.633 268.554C100.508 269.686 101.754 270.472 103.152 270.774H103.281C103.483 270.584 106.965 268.975 108.389 271.198C109.169 272.407 108.813 274.771 108.813 274.771Z" stroke="#263238" stroke-linecap="round" stroke-linejoin="round"/>
<path d="M100.911 254.577C101.199 256.118 101.918 256.554 101.451 257.278C101.383 257.389 101.316 257.518 101.248 257.653C100.886 258.402 100.499 259.458 99.0748 259.857C97.3986 260.33 89.3736 260.766 87.6421 260.551C85.9106 260.336 84.9282 258.709 84.83 257.333C84.7318 255.958 85.4808 255.099 85.3642 253.557C85.2475 252.016 84.0441 251.568 83.9643 250.543C83.8844 249.517 84.8791 248.025 84.8668 247C84.8668 244.839 84.9037 247.196 85.3335 234.91C85.5729 227.904 87.2676 226.382 85.3335 218.437C84.6335 215.569 77.1182 163.656 77.1182 163.656L100.297 165.043C100.297 165.043 100.665 173.885 101.083 184.329C101.611 197.616 102.218 213.494 102.237 217.067C102.274 224.325 101.623 234.493 101.076 243.518C100.849 247.368 100.462 250.021 101.076 251.5C101.149 251.655 101.193 251.821 101.205 251.992C101.31 252.968 100.616 253.035 100.911 254.577Z" fill="#83ABFF"/>
<mask id="mask1_7330_2371" style="mask-type:luminance" maskUnits="userSpaceOnUse" x="77" y="163" width="26" height="98">
<path d="M100.911 254.577C101.199 256.118 101.918 256.554 101.451 257.278C101.383 257.389 101.316 257.518 101.248 257.653C100.886 258.402 100.499 259.458 99.0748 259.857C97.3986 260.33 89.3736 260.766 87.6421 260.551C85.9106 260.336 84.9282 258.709 84.83 257.333C84.7318 255.958 85.4808 255.099 85.3642 253.557C85.2475 252.016 84.0441 251.568 83.9643 250.543C83.8844 249.517 84.8791 248.025 84.8668 247C84.8668 244.839 84.9037 247.196 85.3335 234.91C85.5729 227.904 87.2676 226.382 85.3335 218.437C84.6335 215.569 77.1182 163.656 77.1182 163.656L100.297 165.043C100.297 165.043 100.665 173.885 101.083 184.329C101.611 197.616 102.218 213.494 102.237 217.067C102.274 224.325 101.623 234.493 101.076 243.518C100.849 247.368 100.462 250.021 101.076 251.5C101.149 251.655 101.193 251.821 101.205 251.992C101.31 252.968 100.616 253.035 100.911 254.577Z" fill="white"/>
</mask>
<g mask="url(#mask1_7330_2371)">
<path opacity="0.3" d="M101.248 257.653C100.886 258.402 100.499 259.458 99.0748 259.857C97.3986 260.33 89.3736 260.766 87.6421 260.551C85.9106 260.336 84.9282 258.709 84.83 257.333C84.7318 255.958 85.4808 255.099 85.3642 253.557C85.2475 252.016 84.0441 251.568 83.9643 250.543C83.8844 249.517 84.8791 248.025 84.8668 247C84.8668 244.839 84.9037 247.196 85.3335 234.91C85.5729 227.904 87.2676 226.382 85.3335 218.437C84.6335 215.569 77.1182 163.656 77.1182 163.656L100.297 165.043C100.297 165.043 100.665 173.885 101.083 184.329C98.2889 195.946 95.047 208.729 93.8312 210.878L95.7469 214.225C95.7469 214.225 91.1665 224.853 91.1665 226.136C91.1665 227.419 92.7138 239.423 93.2479 241.916C93.7821 244.409 91.1665 242.634 91.1665 244.734C91.1665 246.668 90.9577 256.081 101.248 257.653Z" fill="black"/>
</g>
<path d="M100.911 254.577C101.199 256.118 101.918 256.554 101.451 257.278C101.383 257.389 101.316 257.518 101.248 257.653C100.886 258.402 100.499 259.458 99.0748 259.857C97.3986 260.33 89.3736 260.766 87.6421 260.551C85.9106 260.336 84.9282 258.709 84.83 257.333C84.7318 255.958 85.4808 255.099 85.3642 253.557C85.2475 252.016 84.0441 251.568 83.9643 250.543C83.8844 249.517 84.8791 248.025 84.8668 247C84.8668 244.839 84.9037 247.196 85.3335 234.91C85.5729 227.904 87.2676 226.382 85.3335 218.437C84.6335 215.569 77.1182 163.656 77.1182 163.656L100.297 165.043C100.297 165.043 100.665 173.885 101.083 184.329C101.611 197.616 102.218 213.494 102.237 217.067C102.274 224.325 101.623 234.493 101.076 243.518C100.849 247.368 100.462 250.021 101.076 251.5C101.149 251.655 101.193 251.821 101.205 251.992C101.31 252.968 100.616 253.035 100.911 254.577Z" stroke="#263238" stroke-linecap="round" stroke-linejoin="round"/>
<path d="M99.1363 181.824C99.1363 181.824 96.2935 184.28 93.8682 183.838" stroke="#263238" stroke-linecap="round" stroke-linejoin="round"/>
<path d="M98.8537 186.466C98.8537 186.466 94.0645 185.311 93.5181 184.341" stroke="#263238" stroke-linecap="round" stroke-linejoin="round"/>
<path d="M92.7139 208.342C92.7139 208.342 95.2988 215.096 98.1723 216.73" stroke="#263238" stroke-linecap="round" stroke-linejoin="round"/>
<path d="M98.3014 253.171C98.3014 253.171 92.5605 254.945 89.7054 253.649C86.8503 252.354 91.9587 256.615 97.3251 256.241" stroke="#263238" stroke-linecap="round" stroke-linejoin="round"/>
<path d="M90.1719 222.55C90.1719 222.55 90.221 240.51 94.9058 244.083" stroke="#263238" stroke-linecap="round" stroke-linejoin="round"/>
<path d="M94.9858 262.823C96.0936 262.381 97.2693 262.134 98.4611 262.092" stroke="#263238" stroke-linecap="round" stroke-linejoin="round"/>
<path d="M95.0898 265.15C95.0898 265.15 96.7538 264.536 97.9572 264.29" stroke="#263238" stroke-linecap="round" stroke-linejoin="round"/>
<path d="M95.4033 267.379L98.0865 266.574" stroke="#263238" stroke-linecap="round" stroke-linejoin="round"/>
<path d="M96.7109 269.202L98.9152 268.336" stroke="#263238" stroke-linecap="round" stroke-linejoin="round"/>
<path d="M99.21 270.768L100.493 269.779" stroke="#263238" stroke-linecap="round" stroke-linejoin="round"/>
<path d="M95.5383 260.606C95.5383 260.606 95.3234 266.746 97.2637 268.766C99.2039 270.786 101.261 270.829 101.083 271.603" stroke="#263238" stroke-linecap="round" stroke-linejoin="round"/>
<path d="M77.8366 259.888C77.8366 259.888 69.1546 260.066 69.1239 260.41C69.0932 260.753 70.3519 262.663 68.9213 267.25C68.6143 268.25 67.0793 270.148 66.8828 272.536C66.6863 274.925 67.1346 274.925 67.1346 274.925C67.1346 274.925 86.7826 275.035 87.8693 274.587C87.8693 274.587 88.6307 272.229 88.072 271.056C86.9668 268.729 82.9082 270.608 83.0372 270.633H82.9082C79.8812 269.963 78.3585 266.949 79.39 263.756L80.6978 259.722L77.8366 259.888Z" fill="#263238"/>
<mask id="mask2_7330_2371" style="mask-type:luminance" maskUnits="userSpaceOnUse" x="66" y="259" width="23" height="16">
<path d="M77.8366 259.888C77.8366 259.888 69.1546 260.066 69.1239 260.41C69.0932 260.753 70.3519 262.663 68.9213 267.25C68.6143 268.25 67.0793 270.148 66.8828 272.536C66.6863 274.925 67.1346 274.925 67.1346 274.925C67.1346 274.925 86.7826 275.035 87.8693 274.587C87.8693 274.587 88.6307 272.229 88.072 271.056C86.9668 268.729 82.9082 270.608 83.0372 270.633H82.9082C79.8812 269.963 78.3585 266.949 79.39 263.756L80.6978 259.722L77.8366 259.888Z" fill="white"/>
</mask>
<g mask="url(#mask2_7330_2371)">
<path opacity="0.25" d="M77.8366 259.888C77.8366 259.888 69.1546 260.066 69.1239 260.41C69.0932 260.753 70.3519 262.663 68.9213 267.25C68.6143 268.25 67.0793 270.148 66.8828 272.536C66.6863 274.925 67.1346 274.925 67.1346 274.925C67.1346 274.925 86.7826 275.035 87.8693 274.587C87.8693 274.587 88.6307 272.229 88.072 271.056C86.9668 268.729 82.9082 270.608 83.0372 270.633H82.9082C79.8812 269.963 78.3585 266.949 79.39 263.756L80.6978 259.722L77.8366 259.888Z" fill="white"/>
</g>
<path d="M77.8366 259.888C77.8366 259.888 69.1546 260.066 69.1239 260.41C69.0932 260.753 70.3519 262.663 68.9213 267.25C68.6143 268.25 67.0793 270.148 66.8828 272.536C66.6863 274.925 67.1346 274.925 67.1346 274.925C67.1346 274.925 86.7826 275.035 87.8693 274.587C87.8693 274.587 88.6307 272.229 88.072 271.056C86.9668 268.729 82.9082 270.608 83.0372 270.633H82.9082C79.8812 269.963 78.3585 266.949 79.39 263.756L80.6978 259.722L77.8366 259.888Z" stroke="#263238" stroke-linecap="round" stroke-linejoin="round"/>
<path d="M98.2397 165.043L75.3007 163.656C75.3007 163.656 73.8946 215.483 74.0727 218.344C74.6437 226.277 72.6912 227.794 71.2421 234.794C68.7002 247.074 69.044 244.703 68.7002 246.859C68.5344 247.884 67.2818 249.376 67.1836 250.401C67.0854 251.427 68.2151 251.875 68.0678 253.41C67.9204 254.945 67.0117 255.817 66.8827 257.18C66.7538 258.543 67.4476 260.176 69.1423 260.391C70.8369 260.606 78.9663 260.17 80.6977 259.697C82.4292 259.225 82.9266 257.855 83.516 257.125C84.1054 256.394 83.4669 255.964 83.4362 254.423C83.4055 252.882 84.0993 252.839 84.1914 251.832C84.2082 251.667 84.1936 251.5 84.1484 251.341C83.7739 249.873 84.6212 247.227 85.5054 243.359C87.593 234.351 90.006 224.196 91.2094 216.957C91.8234 213.347 93.9786 197.174 95.7469 183.801C95.7469 183.801 97.4415 181.069 98.3011 175.776" fill="#83ABFF"/>
<mask id="mask3_7330_2371" style="mask-type:luminance" maskUnits="userSpaceOnUse" x="66" y="163" width="33" height="98">
<path d="M98.2397 165.043L75.3007 163.656C75.3007 163.656 73.8946 215.483 74.0727 218.344C74.6437 226.277 72.6912 227.794 71.2421 234.794C68.7002 247.074 69.044 244.703 68.7002 246.859C68.5344 247.884 67.2818 249.376 67.1836 250.401C67.0854 251.427 68.2151 251.875 68.0678 253.41C67.9204 254.945 67.0117 255.817 66.8827 257.18C66.7538 258.543 67.4476 260.176 69.1423 260.391C70.8369 260.606 78.9663 260.17 80.6977 259.697C82.4292 259.225 82.9266 257.855 83.516 257.125C84.1054 256.394 83.4669 255.964 83.4362 254.423C83.4055 252.882 84.0993 252.839 84.1914 251.832C84.2082 251.667 84.1936 251.5 84.1484 251.341C83.7739 249.873 84.6212 247.227 85.5054 243.359C87.593 234.351 90.006 224.196 91.2094 216.957C91.8234 213.347 93.9786 197.174 95.7469 183.801C95.7469 183.801 97.4415 181.069 98.3011 175.776" fill="white"/>
</mask>
<g mask="url(#mask3_7330_2371)">
<path opacity="0.3" d="M75.227 165.454L75.0244 173.197C78.9067 173.512 82.8081 173.512 86.6904 173.197C94.2672 172.522 98.8783 169.163 98.8783 169.163L98.2643 165.043C98.2643 165.043 89.6683 167.358 85.4378 167.032C81.2074 166.707 77.155 166.197 75.227 165.454Z" fill="black"/>
</g>
<path d="M98.2397 165.043L75.3007 163.656C75.3007 163.656 73.8946 215.483 74.0727 218.344C74.6437 226.277 72.6912 227.794 71.2421 234.794C68.7002 247.074 69.044 244.703 68.7002 246.859C68.5344 247.884 67.2818 249.376 67.1836 250.401C67.0854 251.427 68.2151 251.875 68.0678 253.41C67.9204 254.945 67.0117 255.817 66.8827 257.18C66.7538 258.543 67.4476 260.176 69.1423 260.391C70.8369 260.606 78.9663 260.17 80.6977 259.697C82.4292 259.225 82.9266 257.855 83.516 257.125C84.1054 256.394 83.4669 255.964 83.4362 254.423C83.4055 252.882 84.0993 252.839 84.1914 251.832C84.2082 251.667 84.1936 251.5 84.1484 251.341C83.7739 249.873 84.6212 247.227 85.5054 243.359C87.593 234.351 90.006 224.196 91.2094 216.957C91.8234 213.347 93.9786 197.174 95.7469 183.801C95.7469 183.801 97.4415 181.069 98.3011 175.776" stroke="#263238" stroke-linecap="round" stroke-linejoin="round"/>
<path d="M86.9054 227.726C86.9054 227.726 78.9725 241.234 71.144 245.649" stroke="#263238" stroke-linecap="round" stroke-linejoin="round"/>
<path d="M71.0088 253.171L79.525 254.245C80.139 254.325 80.931 254.57 80.8696 255.221C80.8082 255.872 80.1512 256.167 79.5864 256.369C77.6902 257.077 75.6289 257.215 73.6551 256.769" stroke="#263238" stroke-linecap="round" stroke-linejoin="round"/>
<path d="M71.2607 249.075C74.32 250.829 77.7737 251.78 81.2996 251.838" stroke="#263238" stroke-linecap="round" stroke-linejoin="round"/>
<path d="M76.6022 224.491C76.6022 224.491 80.9002 224.656 83.1106 224.46C81.4712 226.707 78.8126 227.683 76.2461 227.812" stroke="#263238" stroke-linecap="round" stroke-linejoin="round"/>
<path d="M79.8198 170.078C79.8198 170.078 79.2058 192.145 78.9847 201.324C78.7637 210.504 78.3707 221.206 78.3707 221.206C78.1623 221.533 78.0208 221.899 77.9545 222.282C77.8881 222.664 77.8981 223.056 77.9839 223.435L78.3277 224.564L78.1435 227.751C77.8968 228.041 77.7176 228.382 77.6189 228.749C77.5201 229.116 77.5043 229.501 77.5725 229.875C77.8672 231.036 75.4849 239.122 75.4849 239.122L75.0735 239.656C74.6528 240.16 74.3713 240.765 74.2571 241.412C74.1429 242.058 74.2 242.723 74.4227 243.34L73.5692 250.266C73.1104 250.642 72.803 251.171 72.7036 251.756C72.6043 252.34 72.7199 252.941 73.0289 253.447L72.2307 257.057C71.8257 257.401 71.555 257.876 71.4663 258.399C71.3775 258.923 71.4765 259.461 71.7457 259.918L71.8807 260.121" stroke="#263238" stroke-linecap="round" stroke-linejoin="round"/>
<path d="M119.552 129.382C118.938 130.727 113.706 134.294 113.706 134.294C113.702 133.705 113.827 133.122 114.075 132.587C114.449 132.01 114.689 131.457 114.928 131.114C114.99 130.181 114.683 129.262 114.075 128.553C113.362 127.761 112.804 129.738 112.491 131.052C112.177 132.366 110.127 134.368 110.219 135.35C110.397 136.48 110.624 137.591 110.913 138.696C110.913 138.696 102.163 141.766 101.199 139.924C99.1579 135.967 96.9033 132.124 94.4451 128.412C92.3882 131.285 94.0091 135.252 95.1696 140.127C96.3301 145.002 99.9035 151.83 99.9035 151.83C106.301 148.76 113.571 140.778 113.571 140.778C113.571 140.778 115.278 140.017 117.39 139.292C119.502 138.568 119.195 137.947 119.533 135.872C119.871 133.797 121.645 130.96 121.541 129.892C121.437 128.823 120.178 128.044 119.552 129.382Z" fill="white" stroke="#263238" stroke-linecap="round" stroke-linejoin="round"/>
<path d="M98.854 139.753C98.7742 144.198 99.6522 159.272 100.604 165.252L74.5642 164.595V164.159C76.4737 157.086 75.2334 149.423 72.2187 142.773C70.6223 139.243 69.91 134.73 69.0873 130.457C66.9935 119.576 72.2494 116.206 76.6395 115.788C78.3341 115.708 78.4815 114.56 79.7095 114.652C80.5571 114.755 81.4169 114.65 82.2146 114.345C82.7611 116.574 85.7881 123.119 86.8257 123.868C87.3297 124.266 87.9416 124.503 88.582 124.549C89.2225 124.595 89.862 124.448 90.4176 124.126C91.4614 123.396 91.75 122.002 91.9895 120.749C92.0973 120.07 92.2913 119.408 92.5666 118.778C94.1016 119.546 96.7787 120.455 98.768 124.034C101.224 131.936 99.8732 126.871 101.764 138.463C102.09 140.238 98.854 139.753 98.854 139.753Z" fill="white" stroke="#263238" stroke-linecap="round" stroke-linejoin="round"/>
<path d="M94.7584 119.183L92.241 118.305C93.948 124.169 92.4682 130.831 88.1518 128.197C83.8354 125.563 82.1223 117.992 80.8329 114.689C80.1575 114.48 77.4129 114.382 75.9885 115.475C77.4743 118.195 81.5145 123.598 81.0417 127.988C80.5014 132.9 76.6393 137.26 69.4248 132.323C70.4072 139.765 73.5263 145.131 74.128 147.673C76.3262 156.883 74.8587 158.142 73.8333 167.229C84.2713 172.552 96.9013 169.906 102.433 168.285C100.745 159.026 101.488 135.694 94.7584 119.183Z" fill="#83ABFF"/>
<mask id="mask4_7330_2371" style="mask-type:luminance" maskUnits="userSpaceOnUse" x="69" y="114" width="34" height="57">
<path d="M94.7584 119.183L92.241 118.305C93.948 124.169 92.4682 130.831 88.1518 128.197C83.8354 125.563 82.1223 117.992 80.8329 114.689C80.1575 114.48 77.4129 114.382 75.9885 115.475C77.4743 118.195 81.5145 123.598 81.0417 127.988C80.5014 132.9 76.6393 137.26 69.4248 132.323C70.4072 139.765 73.5263 145.131 74.128 147.673C76.3262 156.883 74.8587 158.142 73.8333 167.229C84.2713 172.552 96.9013 169.906 102.433 168.285C100.745 159.026 101.488 135.694 94.7584 119.183Z" fill="white"/>
</mask>
<g mask="url(#mask4_7330_2371)">
<path opacity="0.3" d="M78.8496 158.271C78.8496 158.271 95.8758 165.7 98.3011 158.486C93.832 159.456 89.2285 159.645 84.6949 159.044L78.8496 158.271Z" fill="black"/>
<path opacity="0.3" d="M72.814 142.196L85.1861 132.372C85.1861 132.372 87.6421 139.126 81.06 143.001C76.6085 145.622 72.814 142.196 72.814 142.196Z" fill="black"/>
</g>
<path d="M94.7584 119.183L92.241 118.305C93.948 124.169 92.4682 130.831 88.1518 128.197C83.8354 125.563 82.1223 117.992 80.8329 114.689C80.1575 114.48 77.4129 114.382 75.9885 115.475C77.4743 118.195 81.5145 123.598 81.0417 127.988C80.5014 132.9 76.6393 137.26 69.4248 132.323C70.4072 139.765 73.5263 145.131 74.128 147.673C76.3262 156.883 74.8587 158.142 73.8333 167.229C84.2713 172.552 96.9013 169.906 102.433 168.285C100.745 159.026 101.488 135.694 94.7584 119.183Z" stroke="#263238" stroke-linecap="round" stroke-linejoin="round"/>
<path d="M98.301 158.246C98.1947 158.709 97.984 159.14 97.6849 159.509C97.3858 159.877 97.0064 160.172 96.5757 160.371" stroke="#263238" stroke-linecap="round" stroke-linejoin="round"/>
<path d="M93.8312 161.034C88.6526 161.505 83.4484 160.465 78.8496 158.037" stroke="#263238" stroke-linecap="round" stroke-linejoin="round"/>
<path d="M117.691 119.423L112.362 133.637C112.267 133.891 112.232 134.162 112.259 134.432C112.285 134.701 112.373 134.96 112.515 135.191L113.504 136.775C113.989 137.554 115.702 137.788 116.439 137.284C116.708 137.103 116.921 136.85 117.053 136.554L122.309 122.352C122.445 122.027 122.481 121.669 122.414 121.324C122.346 120.978 122.177 120.661 121.928 120.412L120.27 118.809C120.12 118.659 119.941 118.541 119.743 118.464C119.545 118.386 119.334 118.35 119.122 118.359C118.909 118.367 118.701 118.418 118.51 118.511C118.319 118.603 118.149 118.734 118.011 118.895C117.873 119.05 117.765 119.229 117.691 119.423Z" fill="#263238"/>
<path d="M69.4126 123.248C69.5397 125.369 70.0515 127.45 70.923 129.388C73.4834 135.479 83.2583 150.639 85.4012 151.664C87.544 152.689 109.445 140.901 111.03 139.286C111.48 138.783 111.783 138.166 111.907 137.502C112.03 136.838 111.969 136.153 111.729 135.522C111.729 135.522 111.699 137.032 112.988 136.75C113.799 136.572 113.129 134.067 113.129 134.067C113.129 134.067 114.615 133.017 113.197 131.077C113.197 131.077 115.199 131.077 115.039 129.566C114.984 128.952 109.089 128.872 108.187 130.573C107.088 132.636 105.995 138.015 105.995 138.015C105.995 138.015 91.7254 141.699 88.7659 142.245L81.0479 125.317" fill="white"/>
<path d="M69.4126 123.248C69.5397 125.369 70.0515 127.45 70.923 129.388C73.4834 135.479 83.2583 150.639 85.4012 151.664C87.544 152.689 109.445 140.901 111.03 139.286C111.48 138.783 111.783 138.166 111.907 137.502C112.03 136.838 111.969 136.153 111.729 135.522C111.729 135.522 111.699 137.032 112.988 136.75C113.799 136.572 113.129 134.067 113.129 134.067C113.129 134.067 114.615 133.017 113.197 131.077C113.197 131.077 115.199 131.077 115.039 129.566C114.984 128.952 109.089 128.872 108.187 130.573C107.088 132.636 105.995 138.015 105.995 138.015C105.995 138.015 91.7254 141.699 88.7659 142.245L81.0479 125.317" stroke="#263238" stroke-linecap="round" stroke-linejoin="round"/>
<path d="M111.257 140.201C111.702 139.08 112.469 138.116 113.461 137.432C114.615 136.885 116.206 136.713 117.464 136.474C117.464 136.474 118.447 132.311 118.981 132.427C120.608 132.765 119.337 136.59 119.337 136.59" fill="white"/>
<path d="M111.257 140.201C111.702 139.08 112.469 138.116 113.461 137.432C114.615 136.885 116.206 136.713 117.464 136.474C117.464 136.474 118.447 132.311 118.981 132.427C120.608 132.765 119.337 136.59 119.337 136.59" stroke="#263238" stroke-linecap="round" stroke-linejoin="round"/>
<path d="M121.295 130.929C121.085 130.719 120.804 130.596 120.507 130.583C120.21 130.571 119.92 130.67 119.693 130.862C118.901 131.58 117.697 133.612 116.414 134.699" stroke="#263238" stroke-linecap="round" stroke-linejoin="round"/>
<path d="M109.906 135.301C110.256 134.527 112.742 133.22 113.234 134.896" stroke="#263238" stroke-linecap="round" stroke-linejoin="round"/>
<path d="M109.906 133.238C109.906 133.238 112.785 131.666 113.363 133.613" stroke="#263238" stroke-linecap="round" stroke-linejoin="round"/>
<path d="M110.268 131.396C110.268 131.396 111.465 131.163 111.729 131.138C112.681 131.046 113.719 130.923 114.235 130.923" stroke="#263238" stroke-linecap="round" stroke-linejoin="round"/>
<path d="M95.747 183.838C95.747 183.838 91.9095 180.455 89.6807 179.81L95.747 183.838Z" fill="#83ABFF"/>
<path d="M95.747 183.838C95.747 183.838 91.9095 180.455 89.6807 179.81" stroke="#263238" stroke-linecap="round" stroke-linejoin="round"/>
<path d="M76.3691 262.86C77.5004 262.416 78.6978 262.165 79.9119 262.117" stroke="#263238" stroke-linecap="round" stroke-linejoin="round"/>
<path d="M76.2832 265.248C76.2832 265.248 77.9963 264.634 79.2181 264.37" stroke="#263238" stroke-linecap="round" stroke-linejoin="round"/>
<path d="M76.3999 267.489L79.1506 266.679" stroke="#263238" stroke-linecap="round" stroke-linejoin="round"/>
<path d="M77.5479 269.343L79.8319 268.465" stroke="#263238" stroke-linecap="round" stroke-linejoin="round"/>
<path d="M79.9121 270.934L81.2813 269.933" stroke="#263238" stroke-linecap="round" stroke-linejoin="round"/>
<path d="M77.1184 260.606C77.1184 260.606 76.3693 266.869 78.1438 268.901C79.9182 270.934 81.9567 270.995 81.7173 271.787" stroke="#263238" stroke-linecap="round" stroke-linejoin="round"/>
<path d="M92.0017 118.054C92.0017 118.054 94.5927 128.154 90.436 128.922C84.7687 129.965 80.833 114.671 80.833 114.671C81.6987 114.615 81.8031 114.253 82.5584 113.823C82.5584 113.823 88.8887 126.484 92.0017 118.054Z" fill="#263238"/>
<path d="M74.7663 116.138C74.7663 116.138 68.8412 117.311 68.8228 126.122C68.8044 134.933 72.7094 142.27 72.7094 142.27C72.7094 142.27 77.3329 141.895 80.2555 139.753C86.3955 135.27 85.4008 132.753 85.4008 132.753L82.1835 126.38C82.1835 126.38 81.1274 122.296 76.5347 115.788L74.7663 116.138Z" fill="#263238"/>
<path d="M95.1206 119.533C98.3502 128.7 98.4976 132.133 99.0809 136.363C99.0809 136.363 102.243 135.749 102.728 135.049C102.728 135.049 101.193 127.546 99.5353 123.666C98.4792 121.204 97.0915 120.344 95.1206 119.533Z" fill="#263238"/>
<path d="M91.9954 109.126C91.9954 109.126 91.5349 117.526 91.5656 118.201C91.6209 119.472 92.5419 121.161 91.6946 122.112C91.2273 122.553 90.6387 122.842 90.0048 122.944C89.3709 123.046 88.7211 122.955 88.1395 122.683C86.9877 122.111 85.9913 121.268 85.2353 120.227C83.779 118.444 82.5153 116.511 81.4653 114.462C82.1679 113.786 82.6839 112.94 82.9635 112.006C82.9635 112.006 83.1293 111.294 83.1354 111.257C83.3494 109.526 83.3266 107.775 83.0679 106.05C82.7741 103.916 82.2786 101.815 81.5881 99.775L91.9954 109.126Z" fill="white" stroke="#263238" stroke-linecap="round" stroke-linejoin="round"/>
<path d="M83.2642 117.145C84.7174 117.62 86.1267 118.219 87.4762 118.938L83.2642 117.145Z" fill="#263238"/>
<path d="M83.2642 117.145C84.7174 117.62 86.1267 118.219 87.4762 118.938" stroke="#263238" stroke-linecap="round" stroke-linejoin="round"/>
<path d="M81.981 88.8089C81.981 88.8089 76.7498 91.7991 79.4575 99.603C82.1652 107.407 88.2009 116.126 93.6716 114.953C99.1423 113.78 100.561 102.912 97.6687 95.6673C94.7768 88.4221 87.4088 84.4127 81.981 88.8089Z" fill="white" stroke="#263238" stroke-linecap="round" stroke-linejoin="round"/>
<path d="M97.5829 103.213C97.6198 103.827 97.3681 104.392 97.0242 104.441C96.6804 104.49 96.3672 103.95 96.3304 103.312C96.2936 102.673 96.533 102.139 96.8891 102.114C97.2453 102.09 97.5461 102.569 97.5829 103.213Z" fill="#263238"/>
<path d="M92.2471 102.962C92.284 103.576 92.0384 104.134 91.7007 104.159C91.363 104.184 91.0376 103.668 91.0007 103.035C90.9639 102.403 91.2095 101.856 91.5595 101.807C91.9094 101.758 92.2042 102.311 92.2471 102.962Z" fill="#263238"/>
<path d="M94.255 90.1535C90.749 86.7397 85.9782 85.6836 82.1592 88.772C82.1592 88.772 76.934 91.7622 79.6418 99.5723C80.298 101.434 81.0923 103.244 82.0179 104.988L82.1162 105.074C82.1162 105.074 80.397 103.361 87.2185 99.5907C89.4596 98.3259 92.7691 90.436 94.255 90.1535Z" fill="#263238" stroke="#263238" stroke-linecap="round" stroke-linejoin="round"/>
<path d="M88.7778 92.714C88.7778 92.714 89.2568 87.2801 93.039 87.0959C95.0099 86.9977 97.6133 89.644 97.951 91.0378C98.1628 91.9816 98.644 92.8436 99.336 93.5193C100.028 94.195 100.901 94.6554 101.85 94.8446C101.85 94.8446 100.757 98.5286 98.6264 98.7988C95.1082 99.2286 93.2846 98.4058 91.0128 95.3051C90.3784 94.4048 89.6632 93.5642 88.8761 92.7938L88.7778 92.714Z" fill="#263238" stroke="#263238" stroke-linecap="round" stroke-linejoin="round"/>
<path d="M83.1476 103.152C83.1476 103.152 81.0784 98.8908 79.2364 103.582C78.0882 106.504 82.6809 108.844 84.2528 108.07" fill="white"/>
<path d="M83.1476 103.152C83.1476 103.152 81.0784 98.8908 79.2364 103.582C78.0882 106.504 82.6809 108.844 84.2528 108.07" stroke="#263238" stroke-linecap="round" stroke-linejoin="round"/>
<path d="M95.4645 100.567C95.1162 100.952 94.8644 101.415 94.7299 101.917C94.5954 102.418 94.582 102.945 94.6909 103.453C94.8498 104.568 95.2275 105.64 95.8022 106.609L93.1743 107.45" stroke="#263238" stroke-linecap="round" stroke-linejoin="round"/>
<path d="M90.8716 109.372C91.2847 109.784 91.8068 110.07 92.3766 110.196C92.9464 110.322 93.5404 110.283 94.0889 110.084" stroke="#263238" stroke-linecap="round" stroke-linejoin="round"/>
<path d="M87.9307 100.493C87.9307 100.493 89.7727 98.4549 91.9953 99.4373" stroke="#263238" stroke-linecap="round" stroke-linejoin="round"/>
<path d="M96.4775 99.9531C96.4775 99.9531 98.8906 99.1979 98.5836 101.328" stroke="#263238" stroke-linecap="round" stroke-linejoin="round"/>
<path d="M83.1047 105.485C82.8911 105.492 82.6808 105.431 82.5042 105.311C82.3276 105.191 82.1938 105.017 82.1223 104.816C81.9442 104.429 81.8951 103.987 81.7171 103.588C81.6436 103.387 81.5085 103.214 81.331 103.093C81.1536 102.973 80.9427 102.912 80.7285 102.919" fill="#263238"/>
<path d="M83.1047 105.485C82.8911 105.492 82.6808 105.431 82.5042 105.311C82.3276 105.191 82.1938 105.017 82.1223 104.816C81.9442 104.429 81.8951 103.987 81.7171 103.588C81.6436 103.387 81.5085 103.214 81.331 103.093C81.1536 102.973 80.9427 102.912 80.7285 102.919" stroke="#263238" stroke-linecap="round" stroke-linejoin="round"/>
<path d="M90.7612 88.6431C90.5005 87.5451 90.0871 86.4889 89.5332 85.5056C89.5332 85.5056 90.534 85.2539 91.0866 85.1372C90.9638 86.2117 90.8717 87.5625 90.7612 88.6431Z" fill="#263238" stroke="#263238" stroke-linecap="round" stroke-linejoin="round"/>
<path d="M91.8113 114.72L91.8543 116.562C91.4496 116.74 91.0023 116.8 90.5649 116.734C88.2071 116.457 85.831 111.208 85.6836 110.907L85.7327 110.962C88.5203 114.038 90.5895 114.701 91.8113 114.72Z" fill="#263238"/>
<path d="M171.466 132.391H186.982" stroke="#263238" stroke-linecap="round" stroke-linejoin="round"/>
<path d="M153.666 132.391H169.421" stroke="#263238" stroke-linecap="round" stroke-linejoin="round"/>
<path d="M145.272 132.391H150.117" stroke="#263238" stroke-linecap="round" stroke-linejoin="round"/>
<path d="M158.013 140.815H186.92" stroke="#263238" stroke-linecap="round" stroke-linejoin="round"/>
<path d="M150.117 140.815H153.666" stroke="#263238" stroke-linecap="round" stroke-linejoin="round"/>
<path d="M170.95 149.245H186.859" stroke="#263238" stroke-linecap="round" stroke-linejoin="round"/>
<path d="M154.961 149.245H168.598" stroke="#263238" stroke-linecap="round" stroke-linejoin="round"/>
<path d="M168.771 157.669H186.798" stroke="#263238" stroke-linecap="round" stroke-linejoin="round"/>
<path d="M159.806 157.669H166.21" stroke="#263238" stroke-linecap="round" stroke-linejoin="round"/>
<path d="M221.783 157.976H176.605L178.871 132.071H224.049L221.783 157.976Z" fill="white" stroke="#263238" stroke-linecap="round" stroke-linejoin="round"/>
<path d="M224.049 132.078H178.871" stroke="#263238" stroke-linecap="round" stroke-linejoin="round"/>
<path d="M221.783 157.976H176.605L192.047 143.314L199.894 150L209.079 143.185L221.783 157.976Z" fill="white" stroke="#263238" stroke-linecap="round" stroke-linejoin="round"/>
<path d="M224.049 132.071L209.079 143.185L199.894 150L192.047 143.314L178.871 132.071H224.049Z" fill="white" stroke="#263238" stroke-linecap="round" stroke-linejoin="round"/>
<path d="M140.95 132.391H129.609" stroke="#263238" stroke-linecap="round" stroke-linejoin="round"/>
<path d="M184.403 102.716C175.352 110.084 158.645 114.585 158.645 114.585L167.063 105.565C162.957 104.243 159.413 101.58 157.001 98.0035C154.589 94.427 153.448 90.1441 153.76 85.8414C154.073 81.5388 155.821 77.4658 158.725 74.2755C161.629 71.0852 165.52 68.9624 169.774 68.2476C174.028 67.5328 178.4 68.2674 182.187 70.3336C185.974 72.3997 188.957 75.6777 190.659 79.642C192.36 83.6062 192.681 88.027 191.57 92.1955C190.459 96.3639 187.98 100.039 184.532 102.63" fill="white"/>
<path d="M184.403 102.716C175.352 110.084 158.645 114.585 158.645 114.585L167.063 105.565C162.957 104.243 159.413 101.58 157.001 98.0035C154.589 94.427 153.448 90.1441 153.76 85.8414C154.073 81.5388 155.821 77.4658 158.725 74.2755C161.629 71.0852 165.52 68.9624 169.774 68.2476C174.028 67.5328 178.4 68.2674 182.187 70.3336C185.974 72.3997 188.957 75.6777 190.659 79.642C192.36 83.6062 192.681 88.027 191.57 92.1955C190.459 96.3639 187.98 100.039 184.532 102.63" stroke="#263238" stroke-linecap="round" stroke-linejoin="round"/>
<path d="M184.863 78.942C187.993 78.942 190.53 76.4047 190.53 73.2748C190.53 70.1448 187.993 67.6075 184.863 67.6075C181.733 67.6075 179.196 70.1448 179.196 73.2748C179.196 76.4047 181.733 78.942 184.863 78.942Z" fill="#83ABFF" stroke="#263238" stroke-linecap="round" stroke-linejoin="round"/>
<path d="M181.578 72.0099L184.863 75.7062L192.335 66.8646L192.071 66.5883L184.863 72.7897L182.953 70.7082L181.578 72.0099Z" fill="#263238" stroke="#263238" stroke-linecap="round" stroke-linejoin="round"/>
<path d="M163.005 82.5768H184.169" stroke="#263238" stroke-linecap="round" stroke-linejoin="round"/>
<path d="M162.526 88.0414H183.69" stroke="#263238" stroke-linecap="round" stroke-linejoin="round"/>
<path d="M162.053 93.506H183.212" stroke="#263238" stroke-linecap="round" stroke-linejoin="round"/>
<path d="M228.703 34.3533V44.0422L255.209 23.6083L228.703 34.3533Z" fill="#83ABFF" stroke="#263238" stroke-linecap="round" stroke-linejoin="round"/>
<path d="M228.703 34.3533L255.817 23.2767L218.793 27.1142L228.703 34.3533Z" fill="#83ABFF" stroke="#263238" stroke-linecap="round" stroke-linejoin="round"/>
<path d="M231.89 36.3611L244.655 45.8044L255.817 23.2767L231.89 36.3611Z" fill="#83ABFF" stroke="#263238" stroke-linecap="round" stroke-linejoin="round"/>
<path d="M231.89 36.3611L228.703 44.0422L235.494 39.0258L231.89 36.3611Z" fill="#83ABFF" stroke="#263238" stroke-linecap="round" stroke-linejoin="round"/>
<path d="M127.129 117.563C127.196 117.366 127.27 117.176 127.338 116.985" stroke="#263238" stroke-linecap="round" stroke-linejoin="round"/>
<path d="M128.142 114.664C133.852 97.6137 132.827 87.366 142.098 70.8494C143.94 67.5093 153.267 51.7049 166.517 46.0684C173.406 43.1396 177.79 47.5113 176.016 50.6059C172.055 57.4949 157.51 49.2367 172.055 41.0827C185.514 33.5428 214.163 48.2849 227.592 44.0545" stroke="#263238" stroke-linecap="round" stroke-linejoin="round" stroke-dasharray="2 4"/>
<path d="M228.74 43.6308C228.93 43.551 229.114 43.465 229.298 43.3729" stroke="#263238" stroke-linecap="round" stroke-linejoin="round"/>
</svg>
