<svg width="17" height="19" viewBox="0 0 17 19" fill="none" xmlns="http://www.w3.org/2000/svg">
<path d="M1.06094 4.96561L8.33594 9.17394L15.6109 4.96561M8.33594 17.5656V9.16561M15.8359 12.4989V5.83228C15.8356 5.54 15.7585 5.25295 15.6122 4.99991C15.466 4.74687 15.2557 4.53674 15.0026 4.39061L9.16927 1.05728C8.91591 0.910995 8.6285 0.833984 8.33594 0.833984C8.04338 0.833984 7.75597 0.910995 7.5026 1.05728L1.66927 4.39061C1.41616 4.53674 1.20592 4.74687 1.05966 4.99991C0.91339 5.25295 0.836237 5.54 0.835938 5.83228V12.4989C0.836237 12.7912 0.91339 13.0783 1.05966 13.3313C1.20592 13.5843 1.41616 13.7945 1.66927 13.9406L7.5026 17.2739C7.75597 17.4202 8.04338 17.4972 8.33594 17.4972C8.6285 17.4972 8.91591 17.4202 9.16927 17.2739L15.0026 13.9406C15.2557 13.7945 15.466 13.5843 15.6122 13.3313C15.7585 13.0783 15.8356 12.7912 15.8359 12.4989Z" stroke="#667085" stroke-width="1.66667" stroke-linecap="round" stroke-linejoin="round"/>
</svg>
