<?xml version="1.0" encoding="utf-8"?>
<!-- Generator: Adobe Illustrator 27.5.0, SVG Export Plug-In . SVG Version: 6.00 Build 0)  -->
<svg version="1.1" id="Layer_1" xmlns="http://www.w3.org/2000/svg" xmlns:xlink="http://www.w3.org/1999/xlink" x="0px" y="0px"
	 viewBox="0 0 1000.8 1801.3" style="enable-background:new 0 0 1000.8 1801.3;" xml:space="preserve">
<style type="text/css">
	.st0{opacity:0.9;fill:url(#SVGID_1_);enable-background:new    ;}
	.st1{fill:#FFFFFF;}
	.st2{opacity:0.9;fill:url(#SVGID_00000162342715462315172310000017737156568809544328_);enable-background:new    ;}
	.st3{opacity:0.9;fill:url(#SVGID_00000110451282040563897590000009510336399105056924_);enable-background:new    ;}
	.st4{opacity:0.9;fill:url(#SVGID_00000085963459899987061370000016169877569294070685_);enable-background:new    ;}
	.st5{opacity:0.9;fill:url(#SVGID_00000173873419998552354600000006760697663239206819_);enable-background:new    ;}
	.st6{font-family:'CircularStd-Bold';}
	.st7{font-size:1120.4987px;}
</style>
<g>
	
		<linearGradient id="SVGID_1_" gradientUnits="userSpaceOnUse" x1="524.8914" y1="15312.7002" x2="514.3331" y2="14604.8506" gradientTransform="matrix(1 0 0 -1 0 15965.9805)">
		<stop  offset="0" style="stop-color:#00DCFC"/>
		<stop  offset="1" style="stop-color:#1C7AF2"/>
	</linearGradient>
	<path class="st0" d="M759,456.9H282.3c-100.5,0-182,35.9-182,152.7v613.3c-5.9,199.2,81.5,211.5,182,211.5H759
		c100.5,0,187.9-12.3,182-211.5V609.6C941.1,492.8,859.6,456.9,759,456.9L759,456.9z"/>
	<path class="st1" d="M818,529.6H227.9c-31.5,0-57,25.6-57,57.1V1280c0,31.5,25.5,57.1,57,57.1H818c31.5,0,57-25.6,57-57.1V586.7
		C875.1,555,849.5,529.6,818,529.6z"/>
	
		<linearGradient id="SVGID_00000047020483995811849080000005718415467193887899_" gradientUnits="userSpaceOnUse" x1="284.5252" y1="14911.1855" x2="605.7385" y2="14911.1855" gradientTransform="matrix(1 0 0 -1 0 15965.9805)">
		<stop  offset="0" style="stop-color:#00DCFC"/>
		<stop  offset="1" style="stop-color:#1C7AF2"/>
	</linearGradient>
	<path style="opacity:0.9;fill:url(#SVGID_00000047020483995811849080000005718415467193887899_);enable-background:new    ;" d="
		M573.9,1022.7H316.6c-8.6,0-16.7,3.5-22.7,9.3c-6,6-9.3,14.3-9.3,22.7c0,8.6,3.3,16.7,9.3,22.7c6,6,14.3,9.3,22.7,9.3h257.1
		c8.6,0,16.7-3.5,22.7-9.3c6-6,9.3-14.3,9.3-22.7c0-8.6-3.3-16.7-9.3-22.7C590.5,1026,582.3,1022.7,573.9,1022.7z"/>
	
		<linearGradient id="SVGID_00000095302965721391875690000004005689019140295314_" gradientUnits="userSpaceOnUse" x1="653.6819" y1="14999.9912" x2="797.3889" y2="14999.9912" gradientTransform="matrix(1 0 0 -1 0 15965.9805)">
		<stop  offset="0" style="stop-color:#00DCFC"/>
		<stop  offset="1" style="stop-color:#1C7AF2"/>
	</linearGradient>
	<path style="opacity:0.9;fill:url(#SVGID_00000095302965721391875690000004005689019140295314_);enable-background:new    ;" d="
		M789.1,1048.6c-2.7-2.9-6.2-5.3-9.9-7c-3.7-1.6-7.7-2.6-11.9-2.7c-4-0.2-8.1,0.5-11.9,2c-3.8,1.5-7.3,3.7-10.3,6.6
		c-0.4,0.4-0.7,0.7-1.1,1.1l-25.6,24.2V781.2c-0.2-8.4-3.7-16.5-9.7-22.3s-14.1-9.2-22.5-9.2c-8.4,0-16.5,3.3-22.5,9.2
		s-9.5,13.9-9.7,22.3v365.5c-0.9,4.8-0.4,9.7,1.3,14.3c1.6,4.6,4.6,8.6,8.4,11.5c2.7,2.9,6.2,5.3,9.9,7c3.7,1.6,7.7,2.6,11.9,2.7
		c4,0.2,8.1-0.5,11.9-2c3.8-1.5,7.3-3.7,10.3-6.4c0.4-0.4,0.7-0.7,1.1-1.1l78.7-78.9c6-5.9,9.5-13.7,9.9-22.2
		C797.7,1063,794.7,1054.8,789.1,1048.6L789.1,1048.6z"/>
	
		<linearGradient id="SVGID_00000161605883543697521850000000915120007455053699_" gradientUnits="userSpaceOnUse" x1="284.5391" y1="15168.8389" x2="605.9567" y2="15168.8389" gradientTransform="matrix(1 0 0 -1 0 15965.9805)">
		<stop  offset="0" style="stop-color:#00DCFC"/>
		<stop  offset="1" style="stop-color:#1C7AF2"/>
	</linearGradient>
	<path style="opacity:0.9;fill:url(#SVGID_00000161605883543697521850000000915120007455053699_);enable-background:new    ;" d="
		M573.9,765.1H316.8c-4.2,0-8.6,0.7-12.5,2.2c-4,1.6-7.5,4-10.6,7c-3.1,2.9-5.5,6.6-7.1,10.4c-1.6,3.8-2.6,8.2-2.6,12.5
		c0,4.2,0.9,8.6,2.6,12.5c1.6,4,4,7.5,7.1,10.4s6.6,5.3,10.6,7c4,1.6,8.2,2.4,12.5,2.2h257.1c4.2,0,8.6-0.7,12.5-2.2s7.5-4,10.6-7
		c3.1-2.9,5.5-6.6,7.1-10.4c1.6-4,2.6-8.2,2.6-12.5c0-4.2-0.9-8.6-2.6-12.5c-1.6-4-4-7.5-7.1-10.4s-6.6-5.3-10.6-7
		C582.3,765.8,578.1,765.1,573.9,765.1z"/>
	
		<linearGradient id="SVGID_00000118363249637220504860000016258818630306675355_" gradientUnits="userSpaceOnUse" x1="284.5391" y1="15039.9141" x2="573.8876" y2="15039.9141" gradientTransform="matrix(1 0 0 -1 0 15965.9805)">
		<stop  offset="0" style="stop-color:#00DCFC"/>
		<stop  offset="1" style="stop-color:#1C7AF2"/>
	</linearGradient>
	<path style="opacity:0.9;fill:url(#SVGID_00000118363249637220504860000016258818630306675355_);enable-background:new    ;" d="
		M316.8,958.3h225.1c8.4-0.2,16.5-3.7,22.3-9.7c5.9-6,9.2-14.1,9.2-22.5s-3.3-16.5-9.2-22.5c-5.9-6-13.9-9.5-22.3-9.7H316.8
		c-4.2,0-8.6,0.7-12.5,2.2c-4,1.6-7.5,4-10.6,7c-3.1,2.9-5.5,6.6-7.1,10.4c-1.6,4-2.6,8.2-2.6,12.5c0,4.2,0.9,8.6,2.6,12.5
		c1.6,3.8,4,7.5,7.1,10.4s6.6,5.3,10.6,7C308.1,957.7,312.4,958.5,316.8,958.3L316.8,958.3z"/>
</g>
</svg>
