<svg width="64" height="64" viewBox="0 0 64 64" fill="none" xmlns="http://www.w3.org/2000/svg">
<rect x="0.597656" y="0.655518" width="63.0368" height="63.0368" rx="4.55726" fill="#D9D9D9" fill-opacity="0.4"/>
<path d="M34.9379 18.0615H23.6477C22.8991 18.0615 22.1812 18.3589 21.6519 18.8882C21.1226 19.4176 20.8252 20.1355 20.8252 20.8841V43.4643C20.8252 44.2129 21.1226 44.9308 21.6519 45.4601C22.1812 45.9895 22.8991 46.2868 23.6477 46.2868H40.5829C41.3315 46.2868 42.0494 45.9895 42.5787 45.4601C43.1081 44.9308 43.4054 44.2129 43.4054 43.4643V26.5291M34.9379 18.0615L43.4054 26.5291M34.9379 18.0615V26.5291H43.4054M37.7604 33.5854H26.4703M37.7604 39.2305H26.4703M29.2928 27.9404H26.4703" stroke="#667085" stroke-width="2.82253" stroke-linecap="round" stroke-linejoin="round"/>
</svg>
