<svg width="34" height="34" viewBox="0 0 34 34" fill="none" xmlns="http://www.w3.org/2000/svg">
<path d="M27.1103 21.0282L27.551 21.9232C27.7713 22.3638 28.3358 22.7769 28.804 22.8595L29.3961 22.9559C31.1998 23.2588 31.6129 24.5807 30.3324 25.875L29.7816 26.4258C29.4098 26.7975 29.2171 27.5136 29.3272 28.0368L29.3961 28.3673C29.8918 30.5428 28.7351 31.3827 26.8487 30.2399L26.4494 29.992C25.9675 29.7029 25.1689 29.7029 24.6869 29.992L24.2876 30.2399C22.3874 31.3827 21.2446 30.5428 21.7403 28.3673L21.8091 28.0368C21.9193 27.5273 21.7265 26.7975 21.3547 26.4258L20.804 25.875C19.5234 24.5669 19.9365 23.2588 21.7403 22.9559L22.3324 22.8595C22.8143 22.7769 23.3651 22.3638 23.5854 21.9232L24.026 21.0282C24.8797 19.307 26.2566 19.307 27.1103 21.0282Z" fill="url(#paint0_linear_3959_24)"/>
<path d="M23.0778 3.21045H11.5391C6.52701 3.21045 3.53906 6.1984 3.53906 11.2104V22.7492C3.53906 27.7612 6.52701 30.7492 11.5391 30.7492H18.8093C19.2912 30.7492 19.6354 30.2535 19.5804 29.7716C19.5253 29.2483 19.5528 28.6287 19.7181 27.9127C19.7456 27.8163 19.7181 27.7061 19.6354 27.6235L19.3325 27.3206C18.1621 26.1364 17.7353 24.7044 18.1484 23.3963C18.5752 22.102 19.7594 21.1932 21.3979 20.9178L21.811 20.849L22.1828 20.1055C22.9401 18.5633 24.1793 17.6683 25.57 17.6683C26.9607 17.6683 28.2 18.5633 28.9573 20.1055L29.1638 20.5323C29.2602 20.7388 29.453 20.8765 29.6733 20.9178C29.7972 20.9454 29.9212 20.9729 30.0451 21.0005C30.527 21.1244 31.0778 20.7388 31.0778 20.2294V11.2104C31.0778 6.1984 28.0898 3.21045 23.0778 3.21045ZM23.1742 12.7939L19.9935 16.8972C19.5941 17.4067 19.0296 17.7371 18.3824 17.806C17.749 17.8886 17.1019 17.7096 16.6062 17.3103L14.0864 15.355C13.99 15.2724 13.8799 15.2724 13.8248 15.2862C13.7697 15.2862 13.6733 15.3137 13.5907 15.4239L10.3136 19.6786C10.107 19.9402 9.80412 20.0779 9.48743 20.0779C9.26712 20.0779 9.04681 20.0091 8.85404 19.8576C8.39965 19.5134 8.31703 18.8662 8.66127 18.4118L11.9384 14.1571C12.3377 13.6476 12.9022 13.3172 13.5494 13.2345C14.1966 13.1519 14.8299 13.3309 15.3394 13.7302L17.8592 15.713C17.9556 15.7956 18.052 15.7819 18.1208 15.7819C18.1759 15.7819 18.2723 15.7543 18.3549 15.6442L21.5356 11.5409C21.8799 11.0865 22.527 11.0039 22.9814 11.3619C23.4496 11.7061 23.5184 12.3533 23.1742 12.7939Z" fill="url(#paint1_linear_3959_24)"/>
<defs>
<linearGradient id="paint0_linear_3959_24" x1="30.8772" y1="19.7373" x2="17.7736" y2="24.6477" gradientUnits="userSpaceOnUse">
<stop stop-color="#2878FF"/>
<stop offset="1" stop-color="#2C65C8"/>
</linearGradient>
<linearGradient id="paint1_linear_3959_24" x1="30.5812" y1="3.21045" x2="-2.17994" y2="15.485" gradientUnits="userSpaceOnUse">
<stop stop-color="#2878FF"/>
<stop offset="1" stop-color="#2C65C8"/>
</linearGradient>
</defs>
</svg>
