<svg width="71" height="70" viewBox="0 0 71 70" fill="none" xmlns="http://www.w3.org/2000/svg">
<circle opacity="0.2" cx="22.9829" cy="47.763" r="22.1997" fill="#FB8A2E"/>
<path d="M35.766 26.2629C35.766 24.4131 35.0311 22.639 33.7231 21.331C32.4151 20.023 30.6411 19.2881 28.7912 19.2881H18.3291V45.4435H30.5349C31.9223 45.4435 33.2528 45.9946 34.2338 46.9756C35.2149 47.9566 35.766 49.2872 35.766 50.6745M35.766 26.2629V50.6745M35.766 26.2629C35.766 24.4131 36.5008 22.639 37.8088 21.331C39.1169 20.023 40.8909 19.2881 42.7407 19.2881H53.2029V45.4435H40.9971C39.6097 45.4435 38.2791 45.9946 37.2981 46.9756C36.3171 47.9566 35.766 49.2872 35.766 50.6745" stroke="#FB8A2E" stroke-width="3.48738" stroke-linecap="round" stroke-linejoin="round"/>
</svg>
