<svg width="64" height="64" viewBox="0 0 64 64" fill="none" xmlns="http://www.w3.org/2000/svg">
<rect x="0.632812" y="0.598633" width="63.377" height="63.377" rx="4.52693" fill="url(#paint0_radial_3148_61204)"/>
<rect x="0.632812" y="0.598633" width="63.377" height="63.377" rx="4.52693" fill="url(#paint1_radial_3148_61204)"/>
<g clip-path="url(#clip0_3148_61204)">
<path d="M27.7968 32.2868C27.7968 29.7868 29.8229 27.7596 32.323 27.7596C34.823 27.7596 36.8503 29.7868 36.8503 32.2868C36.8503 34.7869 34.823 36.8141 32.323 36.8141C29.8229 36.8141 27.7968 34.7869 27.7968 32.2868ZM25.3494 32.2868C25.3494 36.1384 28.4715 39.2604 32.323 39.2604C36.1745 39.2604 39.2966 36.1384 39.2966 32.2868C39.2966 28.4353 36.1745 25.3133 32.323 25.3133C28.4715 25.3133 25.3494 28.4353 25.3494 32.2868ZM37.9429 25.0368C37.9428 25.3591 38.0383 25.6742 38.2172 25.9423C38.3962 26.2104 38.6506 26.4193 38.9484 26.5428C39.2461 26.6663 39.5738 26.6987 39.8899 26.6359C40.2061 26.5732 40.4965 26.4181 40.7245 26.1902C40.9525 25.9624 41.1079 25.6721 41.1709 25.356C41.2339 25.0399 41.2017 24.7122 41.0785 24.4144C40.9553 24.1165 40.7465 23.8619 40.4786 23.6827C40.2106 23.5036 39.8956 23.4079 39.5733 23.4077H39.5726C39.1406 23.4079 38.7263 23.5796 38.4207 23.885C38.1151 24.1905 37.9433 24.6047 37.9429 25.0368ZM26.8363 43.3413C25.5123 43.281 24.7926 43.0604 24.3143 42.8741C23.6803 42.6273 23.2279 42.3333 22.7522 41.8583C22.2766 41.3833 21.9821 40.9313 21.7364 40.2972C21.5499 39.8192 21.3294 39.0993 21.2692 37.7752C21.2034 36.3437 21.1902 35.9137 21.1902 32.287C21.1902 28.6602 21.2044 28.2314 21.2692 26.7987C21.3295 25.4746 21.5517 24.7561 21.7364 24.2767C21.9832 23.6426 22.2772 23.1902 22.7522 22.7146C23.2272 22.2389 23.6792 21.9445 24.3143 21.6987C24.7924 21.5123 25.5123 21.2917 26.8363 21.2315C28.2679 21.1657 28.6979 21.1526 32.323 21.1526C35.9481 21.1526 36.3785 21.1668 37.8112 21.2315C39.1353 21.2918 39.8538 21.514 40.3333 21.6987C40.9673 21.9445 41.4197 22.2396 41.8954 22.7146C42.371 23.1896 42.6644 23.6426 42.9112 24.2767C43.0977 24.7547 43.3182 25.4746 43.3784 26.7987C43.4442 28.2314 43.4574 28.6602 43.4574 32.287C43.4574 35.9137 43.4442 36.3425 43.3784 37.7752C43.3181 39.0993 43.0965 39.819 42.9112 40.2972C42.6644 40.9313 42.3704 41.3837 41.8954 41.8583C41.4204 42.3328 40.9673 42.6273 40.3333 42.8741C39.8552 43.0605 39.1353 43.2811 37.8112 43.3413C36.3797 43.4071 35.9497 43.4203 32.323 43.4203C28.6963 43.4203 28.2674 43.4071 26.8363 43.3413ZM26.7239 18.7883C25.2781 18.8541 24.2902 19.0834 23.4275 19.4191C22.5339 19.7658 21.7775 20.2309 21.0217 20.9856C20.2658 21.7402 19.8019 22.4978 19.4552 23.3913C19.1195 24.2546 18.8903 25.242 18.8244 26.6878C18.7575 28.1358 18.7422 28.5987 18.7422 32.2868C18.7422 35.975 18.7575 36.4379 18.8244 37.8859C18.8903 39.3318 19.1195 40.3191 19.4552 41.1824C19.8019 42.0753 20.266 42.8338 21.0217 43.5881C21.7774 44.3425 22.5339 44.8069 23.4275 45.1546C24.2918 45.4903 25.2781 45.7196 26.7239 45.7854C28.1727 45.8512 28.6349 45.8676 32.323 45.8676C36.0111 45.8676 36.474 45.8523 37.9221 45.7854C39.3679 45.7196 40.3552 45.4903 41.2185 45.1546C42.1115 44.8069 42.8684 44.3428 43.6243 43.5881C44.3801 42.8335 44.8431 42.0753 45.1907 41.1824C45.5264 40.3191 45.7568 39.3317 45.8215 37.8859C45.8874 36.4368 45.9027 35.975 45.9027 32.2868C45.9027 28.5987 45.8874 28.1358 45.8215 26.6878C45.7557 25.2419 45.5264 24.2541 45.1907 23.3913C44.8431 22.4984 44.3789 21.7414 43.6243 20.9856C42.8696 20.2297 42.1115 19.7658 41.2196 19.4191C40.3552 19.0834 39.3678 18.8531 37.9232 18.7883C36.4751 18.7225 36.0122 18.7061 32.3241 18.7061C28.636 18.7061 28.1727 18.7214 26.7239 18.7883Z" fill="white"/>
<path d="M27.7968 32.2868C27.7968 29.7868 29.8229 27.7596 32.323 27.7596C34.823 27.7596 36.8503 29.7868 36.8503 32.2868C36.8503 34.7869 34.823 36.8141 32.323 36.8141C29.8229 36.8141 27.7968 34.7869 27.7968 32.2868ZM25.3494 32.2868C25.3494 36.1384 28.4715 39.2604 32.323 39.2604C36.1745 39.2604 39.2966 36.1384 39.2966 32.2868C39.2966 28.4353 36.1745 25.3133 32.323 25.3133C28.4715 25.3133 25.3494 28.4353 25.3494 32.2868ZM37.9429 25.0368C37.9428 25.3591 38.0383 25.6742 38.2172 25.9423C38.3962 26.2104 38.6506 26.4193 38.9484 26.5428C39.2461 26.6663 39.5738 26.6987 39.8899 26.6359C40.2061 26.5732 40.4965 26.4181 40.7245 26.1902C40.9525 25.9624 41.1079 25.6721 41.1709 25.356C41.2339 25.0399 41.2017 24.7122 41.0785 24.4144C40.9553 24.1165 40.7465 23.8619 40.4786 23.6827C40.2106 23.5036 39.8956 23.4079 39.5733 23.4077H39.5726C39.1406 23.4079 38.7263 23.5796 38.4207 23.885C38.1151 24.1905 37.9433 24.6047 37.9429 25.0368ZM26.8363 43.3413C25.5123 43.281 24.7926 43.0604 24.3143 42.8741C23.6803 42.6273 23.2279 42.3333 22.7522 41.8583C22.2766 41.3833 21.9821 40.9313 21.7364 40.2972C21.5499 39.8192 21.3294 39.0993 21.2692 37.7752C21.2034 36.3437 21.1902 35.9137 21.1902 32.287C21.1902 28.6602 21.2044 28.2314 21.2692 26.7987C21.3295 25.4746 21.5517 24.7561 21.7364 24.2767C21.9832 23.6426 22.2772 23.1902 22.7522 22.7146C23.2272 22.2389 23.6792 21.9445 24.3143 21.6987C24.7924 21.5123 25.5123 21.2917 26.8363 21.2315C28.2679 21.1657 28.6979 21.1526 32.323 21.1526C35.9481 21.1526 36.3785 21.1668 37.8112 21.2315C39.1353 21.2918 39.8538 21.514 40.3333 21.6987C40.9673 21.9445 41.4197 22.2396 41.8954 22.7146C42.371 23.1896 42.6644 23.6426 42.9112 24.2767C43.0977 24.7547 43.3182 25.4746 43.3784 26.7987C43.4442 28.2314 43.4574 28.6602 43.4574 32.287C43.4574 35.9137 43.4442 36.3425 43.3784 37.7752C43.3181 39.0993 43.0965 39.819 42.9112 40.2972C42.6644 40.9313 42.3704 41.3837 41.8954 41.8583C41.4204 42.3328 40.9673 42.6273 40.3333 42.8741C39.8552 43.0605 39.1353 43.2811 37.8112 43.3413C36.3797 43.4071 35.9497 43.4203 32.323 43.4203C28.6963 43.4203 28.2674 43.4071 26.8363 43.3413ZM26.7239 18.7883C25.2781 18.8541 24.2902 19.0834 23.4275 19.4191C22.5339 19.7658 21.7775 20.2309 21.0217 20.9856C20.2658 21.7402 19.8019 22.4978 19.4552 23.3913C19.1195 24.2546 18.8903 25.242 18.8244 26.6878C18.7575 28.1358 18.7422 28.5987 18.7422 32.2868C18.7422 35.975 18.7575 36.4379 18.8244 37.8859C18.8903 39.3318 19.1195 40.3191 19.4552 41.1824C19.8019 42.0753 20.266 42.8338 21.0217 43.5881C21.7774 44.3425 22.5339 44.8069 23.4275 45.1546C24.2918 45.4903 25.2781 45.7196 26.7239 45.7854C28.1727 45.8512 28.6349 45.8676 32.323 45.8676C36.0111 45.8676 36.474 45.8523 37.9221 45.7854C39.3679 45.7196 40.3552 45.4903 41.2185 45.1546C42.1115 44.8069 42.8684 44.3428 43.6243 43.5881C44.3801 42.8335 44.8431 42.0753 45.1907 41.1824C45.5264 40.3191 45.7568 39.3317 45.8215 37.8859C45.8874 36.4368 45.9027 35.975 45.9027 32.2868C45.9027 28.5987 45.8874 28.1358 45.8215 26.6878C45.7557 25.2419 45.5264 24.2541 45.1907 23.3913C44.8431 22.4984 44.3789 21.7414 43.6243 20.9856C42.8696 20.2297 42.1115 19.7658 41.2196 19.4191C40.3552 19.0834 39.3678 18.8531 37.9232 18.7883C36.4751 18.7225 36.0122 18.7061 32.3241 18.7061C28.636 18.7061 28.1727 18.7214 26.7239 18.7883Z" fill="white"/>
</g>
<defs>
<radialGradient id="paint0_radial_3148_61204" cx="0" cy="0" r="1" gradientUnits="userSpaceOnUse" gradientTransform="translate(9.05317 64.2751) scale(82.7367 82.7334)">
<stop offset="0.09" stop-color="#FA8F21"/>
<stop offset="0.78" stop-color="#D82D7E"/>
</radialGradient>
<radialGradient id="paint1_radial_3148_61204" cx="0" cy="0" r="1" gradientUnits="userSpaceOnUse" gradientTransform="translate(39.0697 67.1144) scale(65.2079 65.2053)">
<stop offset="0.64" stop-color="#8C3AAA" stop-opacity="0"/>
<stop offset="1" stop-color="#8C3AAA"/>
</radialGradient>
<clipPath id="clip0_3148_61204">
<rect width="27.1616" height="27.1616" fill="white" transform="translate(18.7422 18.7061)"/>
</clipPath>
</defs>
</svg>
