<svg width="17" height="17" viewBox="0 0 17 17" fill="none" xmlns="http://www.w3.org/2000/svg">
<path fill-rule="evenodd" clip-rule="evenodd" d="M8.24983 14.1227C9.02445 13.4198 9.74136 12.6558 10.3936 11.8381C11.7676 10.1119 12.6035 8.40988 12.66 6.89648C12.6824 6.28142 12.5806 5.66816 12.3607 5.09332C12.1408 4.51849 11.8072 3.99388 11.38 3.55083C10.9528 3.10779 10.4407 2.75539 9.87421 2.5147C9.30776 2.27401 8.6986 2.14996 8.08313 2.14996C7.46766 2.14996 6.85851 2.27401 6.29206 2.5147C5.7256 2.75539 5.21347 3.10779 4.78626 3.55083C4.35904 3.99388 4.02551 4.51849 3.80558 5.09332C3.58565 5.66816 3.48384 6.28142 3.50623 6.89648C3.56348 8.40988 4.39999 10.1119 5.7733 11.8381C6.42558 12.6558 7.14249 13.4198 7.91711 14.1227C7.99165 14.19 8.0471 14.239 8.08347 14.2695L8.24983 14.1227ZM7.58641 14.9073C7.58641 14.9073 2.69531 10.7881 2.69531 6.73484C2.69531 5.30581 3.26299 3.93531 4.27347 2.92483C5.28394 1.91436 6.65444 1.34668 8.08347 1.34668C9.5125 1.34668 10.883 1.91436 11.8935 2.92483C12.9039 3.93531 13.4716 5.30581 13.4716 6.73484C13.4716 10.7881 8.58053 14.9073 8.58053 14.9073C8.30843 15.1579 7.86054 15.1552 7.58641 14.9073ZM8.08347 8.62069C8.58363 8.62069 9.06331 8.422 9.41697 8.06834C9.77064 7.71467 9.96933 7.235 9.96933 6.73484C9.96933 6.23468 9.77064 5.755 9.41697 5.40134C9.06331 5.04767 8.58363 4.84898 8.08347 4.84898C7.58331 4.84898 7.10364 5.04767 6.74997 5.40134C6.3963 5.755 6.19761 6.23468 6.19761 6.73484C6.19761 7.235 6.3963 7.71467 6.74997 8.06834C7.10364 8.422 7.58331 8.62069 8.08347 8.62069ZM8.08347 9.42892C7.36896 9.42892 6.68371 9.14508 6.17847 8.63984C5.67323 8.1346 5.38939 7.44935 5.38939 6.73484C5.38939 6.02032 5.67323 5.33507 6.17847 4.82984C6.68371 4.3246 7.36896 4.04076 8.08347 4.04076C8.79798 4.04076 9.48323 4.3246 9.98847 4.82984C10.4937 5.33507 10.7775 6.02032 10.7775 6.73484C10.7775 7.44935 10.4937 8.1346 9.98847 8.63984C9.48323 9.14508 8.79798 9.42892 8.08347 9.42892Z" fill="black"/>
</svg>
