<svg width="20" height="20" viewBox="0 0 20 20" fill="none" xmlns="http://www.w3.org/2000/svg">
<path fill-rule="evenodd" clip-rule="evenodd" d="M5.0026 14.1663V8.33301H3.33594V14.1663C3.33594 16.0073 4.82832 17.4997 6.66927 17.4997H13.3359C15.1769 17.4997 16.6693 16.0073 16.6693 14.1663V8.33301H15.0026V14.1663C15.0026 15.0868 14.2564 15.833 13.3359 15.833H12.5026V14.1663C12.5026 12.7856 11.3833 11.6663 10.0026 11.6663C8.62189 11.6663 7.5026 12.7856 7.5026 14.1663V15.833H6.66927C5.7488 15.833 5.0026 15.0868 5.0026 14.1663ZM9.16927 15.833H10.8359V14.1663C10.8359 13.7061 10.4628 13.333 10.0026 13.333C9.54237 13.333 9.16927 13.7061 9.16927 14.1663V15.833Z" fill="#667085"/>
<path fill-rule="evenodd" clip-rule="evenodd" d="M12.512 7.42153C12.9576 7.43489 13.3792 7.62619 13.6827 7.95266C13.7858 8.06357 13.9046 8.15593 14.0397 8.22066C14.1689 8.2826 14.342 8.33359 14.5833 8.33359C14.9027 8.33359 15.1969 8.18147 15.436 7.87406C15.6804 7.55977 15.8333 7.11725 15.8333 6.66693C15.8333 5.11838 14.6181 4.1671 13.3337 4.1677C12.9888 4.16786 11.9272 4.16759 10.7441 4.16728L10.7413 4.16728C9.0681 4.16685 7.1536 4.16635 6.66765 4.16693C5.3811 4.16845 4.16667 5.11935 4.16667 6.66693C4.16667 7.11725 4.3196 7.55977 4.56404 7.87406C4.80314 8.18146 5.09735 8.33359 5.41667 8.33359C5.65802 8.33359 5.83108 8.2826 5.96035 8.22064C6.09542 8.1559 6.21421 8.06353 6.31732 7.9526C6.6208 7.62612 7.0424 7.4348 7.48794 7.4214C7.93349 7.408 8.36583 7.57362 8.68838 7.88127C8.91167 8.09424 9.29832 8.33349 10.0001 8.33359C10.7018 8.33369 11.0884 8.09448 11.3116 7.88151C11.6341 7.57382 12.0665 7.40816 12.512 7.42153ZM12.5168 9.14478C12.9633 9.60088 13.635 10.0003 14.5833 10.0003C15.5119 10.0003 16.2599 9.52938 16.7515 8.89729C17.2361 8.27424 17.5 7.46681 17.5 6.66693C17.5 4.05664 15.3905 2.50008 13.3329 2.50104C12.9885 2.5012 11.9265 2.50092 10.7418 2.50061C9.06963 2.50018 7.15321 2.49968 6.66568 2.50026C4.61018 2.50269 2.5 4.0558 2.5 6.66693C2.5 7.46681 2.76386 8.27424 3.24846 8.89729C3.74008 9.52938 4.48813 10.0003 5.41667 10.0003C6.36518 10.0003 7.03701 9.60069 7.48355 9.14446C7.50211 9.1255 7.52028 9.10644 7.53806 9.08731C7.55744 9.1058 7.57719 9.12416 7.59732 9.1424C8.12011 9.61596 8.89781 10.0001 9.99988 10.0003C11.102 10.0004 11.8798 9.61632 12.4026 9.14271C12.4228 9.12441 12.4426 9.10599 12.4621 9.08744C12.4799 9.10664 12.4981 9.12576 12.5168 9.14478Z" fill="#667085"/>
</svg>
