<svg width="44" height="43" viewBox="0 0 44 43" fill="none" xmlns="http://www.w3.org/2000/svg">
<path d="M16.4814 1.45215H29.4111L42.6592 14.7002V36.3564C42.6589 39.0336 40.4887 41.2041 37.8115 41.2041H16.4814C13.8043 41.2041 11.6341 39.0336 11.6338 36.3564V6.2998C11.6338 3.62245 13.8041 1.45215 16.4814 1.45215Z" fill="#EEF1F7" stroke="#CBD0DC" stroke-width="1.93911"/>
<rect x="0.484375" y="18.9043" width="29.0867" height="16.9672" rx="3.39344" fill="#D82042"/>
<path d="M5.30469 31.5094V23.4004H8.1951C8.82598 23.4004 9.34863 23.5152 9.76306 23.7449C10.1775 23.9745 10.4876 24.2886 10.6935 24.6872C10.8994 25.0832 11.0024 25.5293 11.0024 26.0255C11.0024 26.5244 10.8981 26.9732 10.6896 27.3717C10.4837 27.7677 10.1722 28.0818 9.75514 28.3141C9.34071 28.5437 8.81938 28.6586 8.19114 28.6586H6.20349V27.6212H8.08028C8.47887 27.6212 8.80222 27.5526 9.05035 27.4153C9.29848 27.2754 9.48061 27.0853 9.59676 26.8451C9.7129 26.6049 9.77098 26.3317 9.77098 26.0255C9.77098 25.7193 9.7129 25.4474 9.59676 25.2099C9.48061 24.9723 9.29716 24.7862 9.04639 24.6516C8.79826 24.517 8.47095 24.4497 8.06444 24.4497H6.52817V31.5094H5.30469Z" fill="white"/>
<path d="M15.0618 31.5094H12.4367V23.4004H15.145C15.9395 23.4004 16.6219 23.5627 17.192 23.8874C17.7622 24.2094 18.199 24.6727 18.5026 25.2772C18.8088 25.879 18.9619 26.601 18.9619 27.443C18.9619 28.2877 18.8075 29.0136 18.4986 29.6207C18.1925 30.2278 17.749 30.6951 17.1683 31.0224C16.5875 31.3471 15.8854 31.5094 15.0618 31.5094ZM13.6602 30.4403H14.9945C15.6122 30.4403 16.1256 30.3242 16.5347 30.0919C16.9439 29.857 17.2501 29.5178 17.4533 29.0743C17.6566 28.6282 17.7582 28.0844 17.7582 27.443C17.7582 26.8069 17.6566 26.2671 17.4533 25.8236C17.2527 25.3801 16.9531 25.0436 16.5545 24.8139C16.156 24.5843 15.661 24.4694 15.0697 24.4694H13.6602V30.4403Z" fill="white"/>
<path d="M20.4833 31.5094V23.4004H25.5119V24.4536H21.7068V26.9243H25.1516V27.9736H21.7068V31.5094H20.4833Z" fill="white"/>
</svg>
