<svg width="71" height="71" viewBox="0 0 71 71" fill="none" xmlns="http://www.w3.org/2000/svg">
<circle opacity="0.2" cx="22.9829" cy="48.2816" r="22.1997" fill="#1C1B1F"/>
<path d="M49.7155 35.5V52.9369H21.8165V35.5M35.766 52.9369V26.7816M35.766 26.7816H27.9194C26.7633 26.7816 25.6545 26.3223 24.837 25.5048C24.0194 24.6873 23.5602 23.5785 23.5602 22.4223C23.5602 21.2662 24.0194 20.1574 24.837 19.3399C25.6545 18.5224 26.7633 18.0631 27.9194 18.0631C34.0223 18.0631 35.766 26.7816 35.766 26.7816ZM35.766 26.7816H43.6126C44.7687 26.7816 45.8775 26.3223 46.695 25.5048C47.5125 24.6873 47.9718 23.5785 47.9718 22.4223C47.9718 21.2662 47.5125 20.1574 46.695 19.3399C45.8775 18.5224 44.7687 18.0631 43.6126 18.0631C37.5097 18.0631 35.766 26.7816 35.766 26.7816ZM18.3291 26.7816H53.2029V35.5H18.3291V26.7816Z" stroke="#667085" stroke-width="3.48738" stroke-linecap="round" stroke-linejoin="round"/>
</svg>
