<svg width="20" height="20" viewBox="0 0 20 20" fill="none" xmlns="http://www.w3.org/2000/svg">
<g clip-path="url(#clip0_3207_29310)">
<path opacity="0.2" d="M7.2933 9.82261C7.93022 11.1247 8.98572 12.1754 10.2907 12.8064C10.3862 12.8517 10.4918 12.8713 10.5972 12.8633C10.7026 12.8553 10.804 12.8201 10.8916 12.761L12.8132 11.4796C12.8981 11.423 12.9959 11.3884 13.0976 11.3791C13.1994 11.3697 13.3018 11.3859 13.3957 11.4261L16.9905 12.9668C17.1126 13.0186 17.2146 13.1088 17.281 13.2237C17.3475 13.3385 17.3748 13.4718 17.3588 13.6036C17.2452 14.4927 16.8114 15.3099 16.1386 15.9022C15.4659 16.4944 14.6003 16.8212 13.7039 16.8213C10.9355 16.8213 8.2805 15.7215 6.32294 13.7639C4.36537 11.8064 3.26563 9.15135 3.26562 6.38294C3.26567 5.4866 3.59243 4.62102 4.18472 3.94826C4.77701 3.27549 5.59421 2.84169 6.48331 2.72807C6.61503 2.71213 6.74836 2.73942 6.86322 2.80585C6.97807 2.87227 7.06823 2.97422 7.1201 3.09634L8.6621 6.69433C8.70198 6.78739 8.71823 6.88888 8.7094 6.98974C8.70057 7.09061 8.66694 7.18773 8.61149 7.27245L7.33461 9.22347C7.27649 9.31124 7.24214 9.41258 7.2349 9.51759C7.22766 9.6226 7.24778 9.7277 7.2933 9.82261Z" fill="#0A65CC"/>
<path d="M7.2933 9.82261C7.93022 11.1247 8.98572 12.1754 10.2907 12.8064C10.3862 12.8517 10.4918 12.8713 10.5972 12.8633C10.7026 12.8553 10.804 12.8201 10.8916 12.761L12.8132 11.4796C12.8981 11.423 12.9959 11.3884 13.0976 11.3791C13.1994 11.3697 13.3018 11.3859 13.3957 11.4261L16.9905 12.9668C17.1126 13.0186 17.2146 13.1088 17.281 13.2237C17.3475 13.3385 17.3748 13.4718 17.3588 13.6036C17.2452 14.4927 16.8114 15.3099 16.1386 15.9022C15.4659 16.4944 14.6003 16.8212 13.7039 16.8213C10.9355 16.8213 8.2805 15.7215 6.32294 13.7639C4.36537 11.8064 3.26563 9.15135 3.26562 6.38294C3.26567 5.4866 3.59243 4.62102 4.18472 3.94826C4.77701 3.27549 5.59421 2.84169 6.48331 2.72807C6.61503 2.71213 6.74836 2.73942 6.86322 2.80585C6.97807 2.87227 7.06823 2.97422 7.1201 3.09634L8.6621 6.69433C8.70198 6.78739 8.71823 6.88888 8.7094 6.98974C8.70058 7.09061 8.66694 7.18773 8.61149 7.27245L7.33461 9.22347C7.27649 9.31124 7.24214 9.41258 7.2349 9.51759C7.22766 9.6226 7.24778 9.7277 7.2933 9.82261V9.82261Z" stroke="#0A65CC" stroke-width="1.10523" stroke-linecap="round" stroke-linejoin="round"/>
<path d="M12.4297 3.3125C13.4706 3.59244 14.4197 4.14098 15.1819 4.90317C15.9441 5.66536 16.4926 6.61444 16.7725 7.65535" stroke="#0A65CC" stroke-width="1.10523" stroke-linecap="round" stroke-linejoin="round"/>
<path d="M11.7969 5.68555C12.4214 5.85351 12.9909 6.18264 13.4482 6.63995C13.9055 7.09726 14.2346 7.66671 14.4026 8.29126" stroke="#0A65CC" stroke-width="1.10523" stroke-linecap="round" stroke-linejoin="round"/>
</g>
<defs>
<clipPath id="clip0_3207_29310">
<rect width="19.6486" height="19.6486" fill="white" transform="translate(0.195312 0.243164)"/>
</clipPath>
</defs>
</svg>
