<svg width="20" height="20" viewBox="0 0 20 20" fill="none" xmlns="http://www.w3.org/2000/svg">
<g clip-path="url(#clip0_3207_29310)">
<path opacity="0.2" d="M7.09799 9.57945C7.73491 10.8816 8.79041 11.9323 10.0954 12.5633C10.1909 12.6085 10.2965 12.6281 10.4019 12.6201C10.5072 12.6122 10.6087 12.5769 10.6963 12.5178L12.6178 11.2365C12.7028 11.1798 12.8006 11.1452 12.9023 11.1359C13.004 11.1265 13.1065 11.1427 13.2004 11.183L16.7952 12.7236C16.9173 12.7755 17.0193 12.8656 17.0857 12.9805C17.1521 13.0953 17.1794 13.2287 17.1635 13.3604C17.0499 14.2495 16.6161 15.0667 15.9433 15.659C15.2705 16.2513 14.405 16.578 13.5086 16.5781C10.7402 16.5781 8.08519 15.4783 6.12763 13.5208C4.17006 11.5632 3.07031 8.90819 3.07031 6.13977C3.07036 5.24344 3.39712 4.37785 3.98941 3.70509C4.5817 3.03233 5.3989 2.59853 6.288 2.4849C6.41972 2.46896 6.55305 2.49626 6.6679 2.56268C6.78276 2.62911 6.87292 2.73106 6.92479 2.85318L8.46678 6.45116C8.50667 6.54423 8.52292 6.64571 8.51409 6.74658C8.50526 6.84744 8.47163 6.94456 8.41618 7.02928L7.1393 8.98031C7.08118 9.06807 7.04683 9.16941 7.03959 9.27443C7.03235 9.37944 7.05247 9.48454 7.09799 9.57945Z" fill="#0A65CC"/>
<path d="M7.09799 9.57945C7.73491 10.8816 8.79041 11.9323 10.0954 12.5633C10.1909 12.6085 10.2965 12.6281 10.4019 12.6201C10.5072 12.6122 10.6087 12.5769 10.6963 12.5178L12.6178 11.2365C12.7028 11.1798 12.8006 11.1452 12.9023 11.1359C13.004 11.1265 13.1065 11.1427 13.2004 11.183L16.7952 12.7236C16.9173 12.7755 17.0193 12.8656 17.0857 12.9805C17.1521 13.0953 17.1794 13.2287 17.1635 13.3604C17.0499 14.2495 16.6161 15.0667 15.9433 15.659C15.2705 16.2513 14.405 16.578 13.5086 16.5781C10.7402 16.5781 8.08519 15.4783 6.12763 13.5208C4.17006 11.5632 3.07031 8.90819 3.07031 6.13977C3.07036 5.24344 3.39712 4.37785 3.98941 3.70509C4.5817 3.03233 5.3989 2.59853 6.288 2.4849C6.41972 2.46896 6.55305 2.49626 6.6679 2.56268C6.78276 2.62911 6.87292 2.73106 6.92479 2.85318L8.46678 6.45116C8.50667 6.54423 8.52292 6.64571 8.51409 6.74658C8.50526 6.84744 8.47163 6.94456 8.41618 7.02928L7.1393 8.98031C7.08118 9.06807 7.04683 9.16941 7.03959 9.27443C7.03235 9.37944 7.05247 9.48454 7.09799 9.57945V9.57945Z" stroke="#0A65CC" stroke-width="1.10523" stroke-linecap="round" stroke-linejoin="round"/>
<path d="M12.2344 3.06934C13.2753 3.34928 14.2244 3.89782 14.9866 4.66001C15.7487 5.42219 16.2973 6.37127 16.5772 7.41218" stroke="#0A65CC" stroke-width="1.10523" stroke-linecap="round" stroke-linejoin="round"/>
<path d="M11.6016 5.44238C12.2261 5.61035 12.7956 5.93947 13.2529 6.39679C13.7102 6.8541 14.0393 7.42355 14.2073 8.0481" stroke="#0A65CC" stroke-width="1.10523" stroke-linecap="round" stroke-linejoin="round"/>
</g>
<defs>
<clipPath id="clip0_3207_29310">
<rect width="19.6486" height="19.6486" fill="white"/>
</clipPath>
</defs>
</svg>
