<svg width="34" height="34" viewBox="0 0 34 34" fill="none" xmlns="http://www.w3.org/2000/svg">
<path d="M31.0773 4.33591H3.53856C2.97402 4.33591 2.50586 3.86775 2.50586 3.30321C2.50586 2.73867 2.97402 2.27051 3.53856 2.27051H31.0773C31.6418 2.27051 32.11 2.73867 32.11 3.30321C32.11 3.86775 31.6418 4.33591 31.0773 4.33591Z" fill="url(#paint0_linear_3959_1604)"/>
<path d="M23.7394 31.3104C23.5604 31.6684 23.1886 31.8749 22.8169 31.8749C22.6654 31.8749 22.5002 31.8336 22.3625 31.7647L17.3091 29.245L12.2558 31.7647C12.1181 31.8336 11.9528 31.8749 11.8014 31.8749C11.4296 31.8749 11.0578 31.6684 10.8788 31.3104C10.6172 30.7871 10.8237 30.1675 11.347 29.9197L16.2764 27.4549V23.9575H18.3418V27.4549L23.2713 29.9197C23.7945 30.1675 24.001 30.7871 23.7394 31.3104Z" fill="url(#paint1_linear_3959_1604)"/>
<path d="M4.91602 3.30322V19.9642C4.91602 22.5803 6.29295 23.9573 8.90913 23.9573H25.7078C28.3239 23.9573 29.7009 22.5803 29.7009 19.9642V3.30322H4.91602ZM24.1656 12.3635L19.8282 15.9848C19.4289 16.3153 18.9195 16.453 18.4375 16.3703C17.9418 16.2877 17.515 15.9848 17.2534 15.5442L15.8076 13.1345L11.7732 16.4943C11.5804 16.6595 11.3463 16.7284 11.1122 16.7284C10.8231 16.7284 10.5201 16.6044 10.3136 16.3566C9.94183 15.916 10.0107 15.2688 10.4513 14.897L14.7886 11.2757C15.188 10.9452 15.6974 10.8075 16.1794 10.8901C16.6751 10.9728 17.1019 11.2757 17.3635 11.7163L18.8093 14.1259L22.8437 10.7662C23.2843 10.3944 23.9315 10.4633 24.3033 10.9039C24.6613 11.3445 24.6062 11.9917 24.1656 12.3635Z" fill="url(#paint2_linear_3959_1604)"/>
<defs>
<linearGradient id="paint0_linear_3959_1604" x1="31.5761" y1="2.27051" x2="30.2302" y2="9.4985" gradientUnits="userSpaceOnUse">
<stop stop-color="#2878FF"/>
<stop offset="1" stop-color="#2C65C8"/>
</linearGradient>
<linearGradient id="paint1_linear_3959_1604" x1="23.6166" y1="23.9575" x2="10.7841" y2="31.9048" gradientUnits="userSpaceOnUse">
<stop stop-color="#2878FF"/>
<stop offset="1" stop-color="#2C65C8"/>
</linearGradient>
<linearGradient id="paint2_linear_3959_1604" x1="29.2539" y1="3.30322" x2="1.28384" y2="15.8786" gradientUnits="userSpaceOnUse">
<stop stop-color="#2878FF"/>
<stop offset="1" stop-color="#2C65C8"/>
</linearGradient>
</defs>
</svg>
