<svg width="17" height="17" viewBox="0 0 17 17" fill="none" xmlns="http://www.w3.org/2000/svg">
<path d="M8.08594 3.0314V1.76855M8.08594 14.3971V13.1342" stroke="black" stroke-width="1.01028" stroke-linecap="round" stroke-linejoin="round"/>
<path d="M8.08532 3.53613C7.18616 3.53613 6.30719 3.80277 5.55956 4.30232C4.81193 4.80186 4.22922 5.51189 3.88513 6.34261C3.54103 7.17333 3.451 8.08743 3.62642 8.96932C3.80184 9.85121 4.23483 10.6613 4.87063 11.2971C5.50644 11.9329 6.3165 12.3659 7.19839 12.5413C8.08028 12.7167 8.99438 12.6267 9.8251 12.2826C10.6558 11.9385 11.3658 11.3558 11.8654 10.6082C12.3649 9.86053 12.6316 8.98156 12.6316 8.08239C12.6316 6.87665 12.1526 5.72029 11.3 4.8677C10.4474 4.01511 9.29107 3.53613 8.08532 3.53613Z" stroke="black" stroke-width="0.67352" stroke-miterlimit="10"/>
<path d="M13.1313 8.08301H14.3941M1.76562 8.08301H3.02847" stroke="black" stroke-width="1.01028" stroke-linecap="round" stroke-linejoin="round"/>
</svg>
