<svg width="14" height="14" viewBox="0 0 14 14" fill="none" xmlns="http://www.w3.org/2000/svg">
<path d="M12.6313 12.6284L9.70621 9.70328M9.70621 9.70328C10.2066 9.20293 10.6035 8.60893 10.8742 7.95519C11.145 7.30145 11.2844 6.60078 11.2844 5.89318C11.2844 5.18558 11.145 4.48491 10.8742 3.83117C10.6035 3.17743 10.2066 2.58343 9.70621 2.08308C9.20586 1.58273 8.61186 1.18583 7.95812 0.915042C7.30438 0.644255 6.60371 0.504883 5.89611 0.504883C5.18851 0.504883 4.48784 0.644255 3.8341 0.915042C3.18036 1.18583 2.58636 1.58273 2.08601 2.08308C1.07551 3.09358 0.507812 4.46411 0.507812 5.89318C0.507813 7.32224 1.07551 8.69278 2.08601 9.70328C3.09651 10.7138 4.46704 11.2815 5.89611 11.2815C7.32517 11.2815 8.69571 10.7138 9.70621 9.70328Z" stroke="black" stroke-width="1.01028" stroke-linecap="round" stroke-linejoin="round"/>
</svg>
