<svg width="15" height="16" viewBox="0 0 15 16" fill="none" xmlns="http://www.w3.org/2000/svg">
<path d="M12.7548 4.56125C12.7426 4.56125 12.7245 4.56125 12.7063 4.56125C9.5007 4.24009 6.30117 4.11889 3.13193 4.44006L1.89575 4.56125C1.64124 4.58549 1.41703 4.4037 1.39279 4.14919C1.36855 3.89468 1.55035 3.67653 1.79879 3.6523L3.03498 3.5311C6.25875 3.20388 9.52494 3.33113 12.7972 3.6523C13.0456 3.67653 13.2274 3.90074 13.2032 4.14919C13.185 4.38552 12.985 4.56125 12.7548 4.56125Z" fill="#292D32"/>
<path d="M5.18149 3.94893C5.15725 3.94893 5.13301 3.94893 5.10271 3.94287C4.86033 3.90045 4.69065 3.66412 4.73307 3.42173L4.86639 2.62791C4.96334 2.04618 5.09665 1.24023 6.50857 1.24023H8.09622C9.51419 1.24023 9.6475 2.07648 9.7384 2.63397L9.87171 3.42173C9.91413 3.67018 9.74446 3.90651 9.50207 3.94287C9.25362 3.98529 9.01729 3.81561 8.98094 3.57323L8.84762 2.78546C8.76279 2.25827 8.74461 2.15525 8.10228 2.15525H6.51463C5.8723 2.15525 5.86018 2.24009 5.76928 2.7794L5.62991 3.56717C5.59355 3.79138 5.39964 3.94893 5.18149 3.94893Z" fill="#292D32"/>
<path d="M9.24705 14.2687H5.35671C3.24187 14.2687 3.15703 13.0992 3.09038 12.1539L2.69649 6.05174C2.67831 5.80329 2.87223 5.58514 3.12067 5.56696C3.37518 5.55484 3.58727 5.74269 3.60545 5.99114L3.99933 12.0933C4.06599 13.0144 4.09023 13.3598 5.35671 13.3598H9.24705C10.5196 13.3598 10.5438 13.0144 10.6044 12.0933L10.9983 5.99114C11.0165 5.74269 11.2346 5.55484 11.4831 5.56696C11.7315 5.58514 11.9254 5.79723 11.9073 6.05174L11.5134 12.1539C11.4467 13.0992 11.3619 14.2687 9.24705 14.2687Z" fill="#292D32"/>
<path d="M8.3083 10.9363H6.29042C6.04197 10.9363 5.83594 10.7303 5.83594 10.4818C5.83594 10.2334 6.04197 10.0273 6.29042 10.0273H8.3083C8.55675 10.0273 8.76278 10.2334 8.76278 10.4818C8.76278 10.7303 8.55675 10.9363 8.3083 10.9363Z" fill="#292D32"/>
<path d="M8.81246 8.51247H5.7826C5.53416 8.51247 5.32812 8.30644 5.32812 8.05799C5.32812 7.80955 5.53416 7.60352 5.7826 7.60352H8.81246C9.06091 7.60352 9.26694 7.80955 9.26694 8.05799C9.26694 8.30644 9.06091 8.51247 8.81246 8.51247Z" fill="#292D32"/>
</svg>
