<svg width="21" height="23" viewBox="0 0 21 23" fill="none" xmlns="http://www.w3.org/2000/svg">
<path d="M1.79344 6.20014L10.5234 11.2501L19.2534 6.20014M10.5234 21.3201V11.2401M19.5234 15.2401V7.24014C19.5231 6.88941 19.4305 6.54495 19.255 6.2413C19.0795 5.93765 18.8272 5.6855 18.5234 5.51014L11.5234 1.51014C11.2194 1.3346 10.8745 1.24219 10.5234 1.24219C10.1724 1.24219 9.82748 1.3346 9.52344 1.51014L2.52344 5.51014C2.2197 5.6855 1.96742 5.93765 1.7919 6.2413C1.61638 6.54495 1.5238 6.88941 1.52344 7.24014V15.2401C1.5238 15.5909 1.61638 15.9353 1.7919 16.239C1.96742 16.5426 2.2197 16.7948 2.52344 16.9701L9.52344 20.9701C9.82748 21.1457 10.1724 21.2381 10.5234 21.2381C10.8745 21.2381 11.2194 21.1457 11.5234 20.9701L18.5234 16.9701C18.8272 16.7948 19.0795 16.5426 19.255 16.239C19.4305 15.9353 19.5231 15.5909 19.5234 15.2401Z" stroke="black" stroke-opacity="0.9" stroke-width="2" stroke-linecap="round" stroke-linejoin="round"/>
</svg>
