<svg width="64" height="65" viewBox="0 0 64 65" fill="none" xmlns="http://www.w3.org/2000/svg">
<rect x="0.632812" y="0.884766" width="63.377" height="63.377" rx="4.52693" fill="#FF0000"/>
<path d="M32.925 42.1346L27.3524 42.0306C25.5481 41.9944 23.7393 42.0668 21.9705 41.6913C19.2795 41.1304 19.0889 38.3799 18.8894 36.0728C18.6145 32.8292 18.7209 29.5268 19.2396 26.3104C19.5322 24.5054 20.6848 23.4287 22.467 23.3111C28.4829 22.8859 34.5387 22.9356 40.5413 23.1347C41.1753 23.1528 41.8137 23.2523 42.4387 23.3654C45.5243 23.9173 45.5996 27.0342 45.7991 29.658C45.9986 32.3089 45.9144 34.9735 45.5331 37.6063C45.2273 39.7868 44.6421 41.6144 42.1728 41.7908C39.0784 42.0216 36.0549 42.207 32.9516 42.1482C32.9516 42.1346 32.9339 42.1346 32.925 42.1346ZM29.6489 36.6156C31.9807 35.2494 34.2683 33.9058 36.5869 32.5487C34.2506 31.1825 31.9674 29.839 29.6489 28.4818V36.6156Z" fill="white"/>
</svg>
