<?xml version="1.0" encoding="utf-8"?>
<!-- Generator: Adobe Illustrator 26.3.1, SVG Export Plug-In . SVG Version: 6.00 Build 0)  -->
<svg version="1.1" id="Layer_1" xmlns="http://www.w3.org/2000/svg" xmlns:xlink="http://www.w3.org/1999/xlink" x="0px" y="0px"
	 viewBox="0 0 744.1 540.1" style="enable-background:new 0 0 744.1 540.1;" xml:space="preserve">
<style type="text/css">
	.st0{fill:#FFB6B6;}
	.st1{fill:#E6E6E6;}
	.st2{fill:#CCCCCC;}
	.st3{fill:#2F2E41;}
	.st4{fill:#FFB8B8;}
	.st5{fill:#7DD3FC;}
	.st6{fill:#FFFFFF;}
	.st7{fill:#E4E4E4;}
	.st8{fill:#3F3D56;}
</style>
<polygon class="st0" points="628.5,244.1 555.5,235.1 559.5,171.1 628.5,171.1 "/>
<g id="f547979f-30db-4d62-a257-d4bfbfe667e0">
	<path class="st1" d="M670.1,322.3c-2.3,0-4.5-1.4-5.4-3.6l-10.1-23.6l30,0.1l20.6-21.8l9.9,23.1c1.2,2.9-0.1,6.3-3,7.7l-39.7,17.6
		C671.7,322.2,670.9,322.3,670.1,322.3z"/>
	<path class="st2" d="M680,298.2c-0.2,0-0.5,0-0.8,0l-24.1-1.4l-0.7-1.5l0.5-0.2l50.2-22.4l0.7,1.5l-15.4,19
		C687.9,296.4,684.1,298.2,680,298.2z"/>
</g>
<g id="ec5190b7-0dc9-4fc1-a6ea-a2851344a52e">
	<path id="a41acc16-2a15-4b6f-9345-341b037288f3-1292" class="st3" d="M637.5,79.3l-71.3,0.9c-2.8,0-5-2.3-5-5V51.6
		c0-20.7,16.8-37.6,37.6-37.6s37.6,16.8,37.6,37.6l6.2,22.7C642.5,77,640.3,79.3,637.5,79.3L637.5,79.3z"/>
	<path id="a3d22c3d-6f1c-436e-b4fd-75bc616be34e-1293" class="st0" d="M672.4,288.7c-4.5-4.1-4.8-11-0.8-15.5
		c0.4-0.5,0.9-0.9,1.4-1.3L660.6,235l19.5,5.2l8.8,34.2c3.4,5,2.1,11.9-2.9,15.3C681.8,292.5,676.1,292.1,672.4,288.7L672.4,288.7z"
		/>
	<path id="fe496b5f-eacb-49bf-835d-e5ac3c7bd013-1294" class="st0" d="M587.9,525.7l-14.6-2.4l2.2-57.6l21.6,3.5L587.9,525.7z"/>
	<path id="adde0c44-329e-48ad-9999-13284ac28796-1295" class="st0" d="M660.8,495.2l-13.2,6.7l-35-50.9l19.5-9.9L660.8,495.2z"/>
	<circle id="ab67ec02-b830-445c-9023-1829e58b9383" class="st4" cx="598.4" cy="53.9" r="26"/>
	<path id="ac700c97-6387-43c9-81e9-ad7c0d932a24-1296" class="st3" d="M619,476.7l-60.9-155.4c-21.8-59.6-2.3-100.6-2.1-101l0.1-0.2
		l0.2-0.1c2.5,9.7,59.2,9.1,72.2-5.9c7.6,6.4,17.7,21.4,19.9,39.3c2.3,19.2,0.5,38.7-5,57.3l-24,81.4L649,459L619,476.7z"/>
	<path id="e883732b-3258-425b-994e-3a6a30ec2938-1297" class="st3" d="M589.6,380.4l-22,111.6l29.3,5.5l18.4-96.6L589.6,380.4z"/>
	<path class="st5" d="M557.5,190.1c4.7,1.3,51,20.3,73,1l17.2-85.2l-20.7-6.5l-7.2-8.8c-1.6-1.9-4-3-6.4-3L587.8,88
		c-2.3,0-4.5,1-6,2.7l-8.2,9.2l-18.5,4.3L557.5,190.1z"/>
	<path id="a25c4561-38e3-49ca-954a-abf72052a615-1298" class="st5" d="M639.9,112.6l5.6-7.5c0,0,10.3,2.7,15.5,17.4
		s26.6,132.6,26.6,132.6l-23.1,10.7l-31.2-104.1L639.9,112.6z"/>
	<path id="a027b147-c881-4d9f-8b61-00879d10f14f-1299" class="st0" d="M455.1,252.9c0.8-6,6.3-10.2,12.3-9.4
		c0.6,0.1,1.3,0.2,1.9,0.4l23.4-31l6.8,19l-23.3,26.5c-2.2,5.6-8.6,8.4-14.3,6.2C457.1,262.8,454.3,258,455.1,252.9L455.1,252.9z"/>
	<path id="f5b89bac-f8c6-4779-b05c-fe0d4c0fe303-1300" class="st5" d="M563.3,111l-7.8-6.8c0,0-8.1,2.1-13.4,16.8
		s-72,113.6-72,113.6l23.1,10.7l76.5-85.2L563.3,111z"/>
	<path id="ba40f7a0-bee8-41f1-97d8-6a2b5672d4e5-1301" class="st3" d="M625.5,52.2h-36.4c-1.4,0-2.6-1.1-2.8-2.5l-0.5-3.8
		c-0.1-0.9-1-1.6-1.9-1.5c-0.6,0.1-1.1,0.4-1.3,1l-2.4,5.1c-0.5,1-1.5,1.6-2.5,1.6h-5.5c-1.5,0-2.8-1.2-2.8-2.8c0-0.1,0-0.2,0-0.3
		l2.2-22.7c0.1-1,0.7-1.9,1.6-2.3c16.7-7.8,33.5-7.8,50.2,0c0.9,0.4,1.5,1.2,1.6,2.2l3.3,22.7c0.2,1.5-0.8,3-2.4,3.2
		C625.8,52.2,625.7,52.2,625.5,52.2L625.5,52.2z"/>
</g>
<path id="a3cc64c2-abbc-45ce-be54-f5a6fdde0299-1302" class="st1" d="M39,18c-2.6,0-4.8,2.1-4.8,4.8L33,533.2c0,2.6,2.1,4.8,4.8,4.8
	l411.2,0.9c2.6,0,4.8-2.1,4.8-4.8l1.2-510.4c0-2.6-2.1-4.8-4.8-4.8L39,18z"/>
<path id="efbfa0e2-5865-4f91-9d47-e58aafc36f5f-1303" class="st6" d="M54.2,33.3c-2.6,0-4.8,2.1-4.8,4.8L48.3,518
	c0,2.6,2.1,4.8,4.8,4.8l380.7,0.9c2.6,0,4.8-2.1,4.8-4.8L439.6,39c0-2.6-2.1-4.8-4.8-4.8L54.2,33.3z"/>
<path id="bdd7e382-c488-46e1-abb6-e0dcfe2b45ff-1304" class="st1" d="M384.3,241.7L103.8,241c-4-0.1-7.1-3.3-7.1-7.3
	c0.1-3.9,3.2-7,7.1-7.1l280.5,0.6c4,0.1,7.1,3.3,7.1,7.3C391.4,238.5,388.2,241.7,384.3,241.7L384.3,241.7z"/>
<path id="a030302a-8aea-40b9-b209-283f220e96ee-1305" class="st1" d="M387,108.4l-186.1-0.4c-2.6,0-4.7-3.2-4.7-7.2s2.1-7.2,4.8-7.1
	l186.1,0.4c2.6,0,4.7,3.2,4.7,7.2S389.7,108.4,387,108.4z"/>
<path id="a8f20448-9372-4a75-b338-6e14c20e819a-1306" class="st1" d="M386.9,149.4L200.8,149c-2.6,0-4.7-3.2-4.7-7.2
	s2.1-7.2,4.8-7.1l186.1,0.4c2.6,0,4.7,3.2,4.7,7.2S389.6,149.4,386.9,149.4z"/>
<path id="b6db1193-8bf6-43ce-8bbd-82156e7f6c80-1307" class="st1" d="M384.2,288l-280.5-0.6c-4-0.1-7.1-3.3-7.1-7.3
	c0.1-3.9,3.2-7,7.1-7.1l280.5,0.6c4,0,7.2,3.1,7.2,7.1c0,4-3.1,7.2-7.1,7.2l0,0C384.3,288,384.3,288,384.2,288L384.2,288z"/>
<path id="e8bd11eb-6651-49db-b69e-2aeb489d8156-1308" class="st1" d="M384.1,334.2l-280.5-0.6c-4-0.1-7.1-3.3-7.1-7.3
	c0.1-3.9,3.2-7,7.1-7.1l280.5,0.6c4,0,7.2,3.1,7.2,7.1c0,4-3.1,7.2-7.1,7.2c0,0,0,0,0,0C384.2,334.2,384.2,334.2,384.1,334.2
	L384.1,334.2z"/>
<path id="f336a5d0-52e6-422c-aaf1-5eee2a5d72af-1309" class="st1" d="M384,380.5l-280.5-0.6c-4-0.1-7.1-3.3-7.1-7.3
	c0.1-3.9,3.2-7,7.1-7.1l280.5,0.6c4,0,7.2,3.1,7.2,7.1c0,3.9-3.1,7.2-7.1,7.2C384.1,380.5,384.1,380.5,384,380.5L384,380.5z"/>
<path id="ac9f3bd3-9abe-42cb-b3e3-99cb75c73ae6-1310" class="st1" d="M245.9,424.8l-142.5-0.6c-4-0.1-7.1-3.3-7.1-7.3
	c0.1-3.9,3.2-7,7.1-7.1l142.5,0.6c4,0,7.2,3.1,7.2,7.1c0,3.9-3.1,7.2-7.1,7.2C246,424.8,245.9,424.8,245.9,424.8z"/>
<path id="f6760762-a9bc-4797-b1cd-005f4be61990-1311" class="st1" d="M245.8,471.1l-142.5-0.6c-4-0.1-7.1-3.3-7.1-7.3
	c0.1-3.9,3.2-7,7.1-7.1l142.5,0.6c4,0,7.2,3.1,7.2,7.1c0,3.9-3.1,7.2-7.1,7.2C245.9,471.1,245.8,471.1,245.8,471.1L245.8,471.1z"/>
<path id="b178569c-1ea7-4785-9e0a-4827d572b4f6-1312" class="st1" d="M192.4,241.3"/>
<path id="e143acc2-6a50-448e-bf71-b0fcbdb3a8d4-1313" class="st5" d="M325.5,53.7v-34c0.2-10.6-8.2-19.5-18.8-19.7
	c-10.6-0.2-19.5,8.2-19.7,18.8c0,0,0,0,0,0h4.2c0.3-8.1,6.9-14.4,15-14.5h0.2c8.3,0.1,14.9,7,14.8,15.3V54c-0.1,5.5-4.6,9.9-10.1,10
	h-0.1c-5.6-0.1-10-4.7-10-10.2l0-33.8c0-2.8,2.3-5.1,5.1-5.1c2.8,0,5.1,2.3,5.1,5.1l0,0v9.8c0,1.2,0.9,2.1,2.1,2.1s2.1-0.9,2.1-2.1
	v-9.9c0-5.1-4.2-9.3-9.3-9.3c-5.1,0-9.3,4.2-9.3,9.3l0,0l0,33.8c-0.1,7.9,6.2,14.4,14.1,14.5h0.2c7.8,0,14.2-6.3,14.3-14.2
	C325.5,53.9,325.5,53.8,325.5,53.7z"/>
<path class="st7" d="M383.5,440.9c0,5.6-1,11.2-3,16.5c-0.9,2.4-2,4.8-3.3,7c-13,22.7-41.9,30.5-64.6,17.5
	c-7.3-4.2-13.3-10.2-17.5-17.5c-0.4-0.7-0.8-1.5-1.2-2.2c-11.8-23.3-2.4-51.8,20.9-63.5s51.8-2.4,63.5,20.9
	C381.8,426.2,383.5,433.5,383.5,440.9L383.5,440.9z"/>
<circle class="st5" cx="338.7" cy="439.8" r="9"/>
<path class="st8" d="M294,462.2c4-4.3,9.3-11.1,14.3-6.2c2.5,2.3,6.4,8.1,10.2,4.3l29.3-29.3c2.3-2.3,6-2.2,8.2,0.1
	c0,0,0.1,0.1,0.1,0.1l24.4,26.3c-0.9,2.4-2,4.8-3.3,7h-82.1L294,462.2z"/>
<path class="st7" d="M171.5,119.9c0,5.6-1,11.2-3,16.5c-0.9,2.4-2,4.8-3.3,7c-13,22.7-41.9,30.5-64.6,17.5
	c-7.3-4.2-13.3-10.2-17.5-17.5c-0.4-0.7-0.8-1.5-1.2-2.2c-11.8-23.3-2.4-51.8,20.9-63.5c23.3-11.8,51.8-2.4,63.5,20.9
	C169.8,105.2,171.5,112.5,171.5,119.9L171.5,119.9z"/>
<circle class="st5" cx="126.7" cy="118.8" r="9"/>
<path class="st8" d="M82,141.2c4-4.3,9.3-11.1,14.3-6.2c2.5,2.3,6.4,8.1,10.2,4.3l29.3-29.3c2.3-2.3,6-2.2,8.2,0.1
	c0,0,0.1,0.1,0.1,0.1l24.4,26.3c-0.9,2.4-2,4.8-3.3,7H83.2L82,141.2z"/>
<circle class="st5" cx="309.5" cy="55.1" r="5"/>
<path class="st3" d="M595.4,539.1h-9.5l-1.7-9l-4.4,9h-25.2c-3.1,0-5.7-2.5-5.7-5.7c0-1.9,0.9-3.6,2.5-4.7l20.2-13.9v-9.1l21.2,1.3
	L595.4,539.1z"/>
<path class="st3" d="M679.7,516.9l-8,5.2l-6.3-6.6l1.2,9.9L645.4,539c-2.6,1.7-6.1,0.9-7.8-1.7c-1-1.6-1.2-3.5-0.5-5.3l9.4-22.6
	l-4.9-7.6l18.5-10.4L679.7,516.9z"/>
<rect id="ec7b4546-a015-4f0c-8a9e-c44dd1859d9d" y="538.1" class="st2" width="744.1" height="2"/>
</svg>
