<?xml version="1.0" encoding="utf-8"?>
<!-- Generator: Adobe Illustrator 26.3.1, SVG Export Plug-In . SVG Version: 6.00 Build 0)  -->
<svg version="1.1" id="Layer_1" xmlns="http://www.w3.org/2000/svg" xmlns:xlink="http://www.w3.org/1999/xlink" x="0px" y="0px"
	 viewBox="0 0 785.2 507.8" style="enable-background:new 0 0 785.2 507.8;" xml:space="preserve">
<style type="text/css">
	.st0{fill:#3F3D56;}
	.st1{fill:#E6E6E6;}
	.st2{fill:#FFFFFF;}
	.st3{fill:#E4E4E4;}
	.st4{fill:#7DD3FC;}
	.st5{fill:#FFB8B8;}
	.st6{fill:#F0F0F0;}
	.st7{fill:#2F2E41;}
	.st8{fill:#CCCCCC;}
</style>
<path class="st0" d="M548,342.4c-80.8,0-151.1-60.3-161.4-142.4l2-0.3c10.3,81.2,79.7,140.7,159.5,140.7c6.8,0,13.5-0.4,20.3-1.3
	c88-11.1,150.5-91.7,139.4-179.7l2-0.3c11.3,89.1-52.1,170.7-141.1,182C561.7,342,554.9,342.4,548,342.4z"/>
<path class="st0" d="M612.4,80.6c-11-29,3.6-61.3,32.6-72.3c29-11,61.3,3.6,72.3,32.6l-1.9,0.7c-10.6-27.9-41.8-42-69.7-31.5
	c-27.9,10.6-42,41.8-31.5,69.7L612.4,80.6z"/>
<path class="st1" d="M774.9,178.5H673.2c-5.7,0-10.3-4.6-10.3-10.3V33.6c0-5.7,4.6-10.3,10.3-10.3h101.7c5.7,0,10.3,4.6,10.3,10.3
	v134.6C785.2,173.9,780.6,178.5,774.9,178.5z"/>
<path class="st2" d="M734.5,170.5h-54.1c-5.3,0-9.6-4.3-9.6-9.6V41c0-5.3,4.3-9.6,9.6-9.6h87.4c5.3,0,9.6,4.3,9.6,9.6v86.5
	C777.3,151.3,758.2,170.4,734.5,170.5z"/>
<path class="st3" d="M759,91.5h-69.9c-1.3,0-2.3-1-2.3-2.3s1-2.3,2.3-2.3H759c1.3,0,2.3,1,2.3,2.3S760.3,91.5,759,91.5z"/>
<path class="st3" d="M759,100.5h-69.9c-1.3,0-2.3-1-2.3-2.3c0-1.3,1-2.3,2.3-2.3H759c1.3,0,2.3,1,2.3,2.3S760.3,100.5,759,100.5
	C759,100.5,759,100.5,759,100.5z"/>
<path class="st3" d="M719.4,109.5h-30.3c-1.3,0-2.3-1-2.3-2.3c0-1.3,1-2.3,2.3-2.3h30.3c1.3,0,2.3,1,2.3,2.3
	C721.7,108.5,720.7,109.5,719.4,109.5L719.4,109.5z"/>
<path class="st3" d="M759,54.7h-69.9c-1.3,0-2.3-1-2.3-2.3c0-1.3,1-2.3,2.3-2.3c0,0,0,0,0,0H759c1.3,0,2.3,1,2.3,2.3
	C761.3,53.7,760.3,54.7,759,54.7C759,54.7,759,54.7,759,54.7z"/>
<path class="st3" d="M759,63.7h-69.9c-1.3,0-2.3-1-2.3-2.3c0-1.3,1-2.3,2.3-2.3H759c1.3,0,2.3,1,2.3,2.3S760.3,63.7,759,63.7
	C759,63.7,759,63.7,759,63.7z"/>
<path class="st3" d="M719.4,72.7h-30.3c-1.3,0-2.3-1-2.3-2.3c0-1.3,1-2.3,2.3-2.3h30.3c1.3,0,2.3,1,2.3,2.3
	C721.7,71.7,720.7,72.7,719.4,72.7z"/>
<path class="st4" d="M759,129.6h-69.9c-1.3,0-2.3-1-2.3-2.3s1-2.3,2.3-2.3H759c1.3,0,2.3,1,2.3,2.3S760.3,129.6,759,129.6z"/>
<path class="st4" d="M700,138.6h-10.9c-1.3,0-2.3-1-2.3-2.3c0-1.3,1-2.3,2.3-2.3H700c1.3,0,2.3,1,2.3,2.3S701.3,138.6,700,138.6
	C700,138.6,700,138.6,700,138.6L700,138.6z"/>
<path class="st4" d="M719.4,147.6h-30.3c-1.3,0-2.3-1-2.3-2.3c0-1.3,1-2.3,2.3-2.3h30.3c1.3,0,2.3,1,2.3,2.3
	C721.7,146.6,720.7,147.6,719.4,147.6z"/>
<path class="st0" d="M388.1,174c-18.4-48.6,6.1-102.8,54.7-121.2c48.6-18.3,102.8,6.1,121.2,54.7l-1.9,0.7
	c-18-47.5-71.1-71.5-118.6-53.6s-71.5,71.1-53.6,118.6c0,0,0,0,0,0.1L388.1,174z"/>
<circle class="st1" cx="562.9" cy="11.1" r="9.5"/>
<circle class="st1" cx="575.9" cy="286.1" r="9.5"/>
<circle class="st1" cx="330.9" cy="59.1" r="9.5"/>
<path class="st1" d="M462.7,451.4H244.2c-12.2,0-22.1-9.9-22.1-22.1V139.9c0-12.2,9.9-22.1,22.1-22.1h218.5
	c12.2,0,22.1,9.9,22.1,22.1v289.4C484.8,441.5,474.9,451.4,462.7,451.4z"/>
<path class="st2" d="M379.3,433.5H259.5c-11.1,0-20.1-9-20.1-20.1V155.9c0-11.1,9-20.1,20.1-20.1h187.8c11.1,0,20.1,9,20.1,20.1
	v189.4C467.4,394,428,433.4,379.3,433.5z"/>
<path class="st4" d="M428.6,185.2H278.3c-2.7,0-4.9-2.2-4.9-4.9c0-2.7,2.2-4.9,4.9-4.9c0,0,0,0,0,0h150.3c2.7,0,4.9,2.2,4.9,4.9
	C433.5,183,431.3,185.2,428.6,185.2C428.6,185.2,428.6,185.2,428.6,185.2z"/>
<path class="st4" d="M428.6,204.6H278.3c-2.7,0-4.9-2.2-4.9-4.9s2.2-4.9,4.9-4.9h150.3c2.7,0,4.9,2.2,4.9,4.9
	S431.3,204.6,428.6,204.6z"/>
<path class="st4" d="M343.4,223.9h-65.2c-2.7,0-4.9-2.2-4.9-4.9s2.2-4.9,4.9-4.9h65.2c2.7,0,4.9,2.2,4.9,4.9
	S346.1,223.9,343.4,223.9L343.4,223.9z"/>
<path class="st3" d="M428.6,264.5H278.3c-2.7,0-4.9-2.2-4.9-4.9c0-2.7,2.2-4.9,4.9-4.9c0,0,0,0,0,0h150.3c2.7,0,4.9,2.2,4.9,4.9
	C433.5,262.3,431.3,264.5,428.6,264.5C428.6,264.5,428.6,264.5,428.6,264.5z"/>
<path class="st3" d="M428.6,283.9H278.3c-2.7,0-4.9-2.2-4.9-4.9c0-2.7,2.2-4.9,4.9-4.9h150.3c2.7,0,4.9,2.2,4.9,4.9
	C433.5,281.7,431.3,283.9,428.6,283.9z"/>
<path class="st3" d="M343.4,303.3h-65.2c-2.7,0-4.9-2.2-4.9-4.9c0-2.7,2.2-4.9,4.9-4.9h65.2c2.7,0,4.9,2.2,4.9,4.9
	C348.3,301.1,346.1,303.3,343.4,303.3L343.4,303.3z"/>
<path class="st3" d="M428.6,343.8H278.3c-2.7,0-4.9-2.2-4.9-4.9c0-2.7,2.2-4.9,4.9-4.9c0,0,0,0,0,0h150.3c2.7,0,4.9,2.2,4.9,4.9
	C433.5,341.6,431.3,343.8,428.6,343.8C428.6,343.8,428.6,343.8,428.6,343.8z"/>
<path class="st3" d="M428.6,363.2H278.3c-2.7,0-4.9-2.2-4.9-4.9s2.2-4.9,4.9-4.9h150.3c2.7,0,4.9,2.2,4.9,4.9
	S431.3,363.2,428.6,363.2z"/>
<path class="st3" d="M343.4,382.6h-65.2c-2.7,0-4.9-2.2-4.9-4.9c0-2.7,2.2-4.9,4.9-4.9h65.2c2.7,0,4.9,2.2,4.9,4.9
	C348.3,380.4,346.1,382.6,343.4,382.6z"/>
<path class="st1" d="M631.1,236.5H520.4c-6.2,0-11.2-5-11.2-11.2V78.8c0-6.2,5-11.2,11.2-11.2h110.7c6.2,0,11.2,5,11.2,11.2v146.5
	C642.3,231.5,637.3,236.5,631.1,236.5z"/>
<path class="st2" d="M590,227.7h-61.9c-5.8,0-10.4-4.7-10.4-10.4V86.9c0-5.8,4.7-10.4,10.4-10.4h95.1c5.8,0,10.4,4.7,10.4,10.4V184
	C633.7,208.1,614.2,227.7,590,227.7z"/>
<path class="st3" d="M613.8,101.7h-76.1c-1.4,0-2.5-1.1-2.5-2.5s1.1-2.5,2.5-2.5l0,0h76.1c1.4,0,2.5,1.1,2.5,2.5
	S615.2,101.7,613.8,101.7L613.8,101.7z"/>
<path class="st3" d="M613.8,111.5h-76.1c-1.4,0-2.5-1.1-2.5-2.5c0-1.4,1.1-2.5,2.5-2.5h76.1c1.4,0,2.5,1.1,2.5,2.5
	C616.3,110.4,615.2,111.5,613.8,111.5z"/>
<path class="st3" d="M570.7,121.3h-33c-1.4,0-2.5-1.1-2.5-2.5c0-1.4,1.1-2.5,2.5-2.5h33c1.4,0,2.5,1.1,2.5,2.5
	C573.1,120.2,572,121.3,570.7,121.3z"/>
<path class="st4" d="M613.8,141.9h-76.1c-1.4,0-2.5-1.1-2.5-2.5s1.1-2.5,2.5-2.5l0,0h76.1c1.4,0,2.5,1.1,2.5,2.5
	S615.2,141.9,613.8,141.9L613.8,141.9z"/>
<path class="st4" d="M593.8,151.7h-56.1c-1.4,0-2.5-1.1-2.5-2.5c0-1.4,1.1-2.5,2.5-2.5h56.1c1.4,0,2.5,1.1,2.5,2.5
	C596.3,150.6,595.2,151.7,593.8,151.7z"/>
<path class="st4" d="M570.7,161.5h-33c-1.4,0-2.5-1.1-2.5-2.5c0-1.4,1.1-2.5,2.5-2.5h33c1.4,0,2.5,1.1,2.5,2.5
	C573.1,160.4,572,161.5,570.7,161.5z"/>
<path class="st3" d="M613.8,182.1h-76.1c-1.4,0-2.5-1.1-2.5-2.5s1.1-2.5,2.5-2.5l0,0h76.1c1.4,0,2.5,1.1,2.5,2.5
	S615.2,182.1,613.8,182.1L613.8,182.1z"/>
<path class="st3" d="M613.8,191.9h-76.1c-1.4,0-2.5-1.1-2.5-2.5c0-1.4,1.1-2.5,2.5-2.5h76.1c1.4,0,2.5,1.1,2.5,2.5
	C616.3,190.8,615.2,191.9,613.8,191.9z"/>
<path class="st3" d="M570.7,201.7h-33c-1.4,0-2.5-1.1-2.5-2.5c0-1.4,1.1-2.5,2.5-2.5h33c1.4,0,2.5,1.1,2.5,2.5
	C573.1,200.6,572,201.7,570.7,201.7z"/>
<path class="st5" d="M129.4,286.9c3.2-3.5,3-8.9-0.5-12.1c-0.4-0.3-0.8-0.6-1.2-0.9l7-29.6l-14.9,5.4l-4.4,27.3
	c-2.3,4.2-0.8,9.4,3.4,11.7C122.4,290.6,126.7,289.8,129.4,286.9L129.4,286.9z"/>
<path class="st4" d="M165.1,162.7l-6,15.3c0,0,2.6,15.3-1.7,18.7s-2.6,3.4-2.6,6c-0.3,3.7-2.2,7.1-5.1,9.4
	c-3.4,2.6-18.7,54.5-18.7,54.5h-15.3c0.5-4,0.5-8,0-11.9c-0.9-6,2.6-21.3,4.3-23.9s0-6,0-11.1s3.4-7.7,3.4-16.2s10.2-75,9.4-82.6
	s8.5-14.5,8.5-14.5h8.5L165.1,162.7z"/>
<polygon class="st5" points="201.2,195.3 215.4,258.5 124.6,252.9 149.3,190.8 "/>
<path class="st6" d="M3.2,433c2.7,9.8,6.9,19.1,12.5,27.5c12.5,18.9,30.3,33.3,50,44.8c1.4,0.8,2.7,1.6,4.1,2.4h13.8l0.5-1.1v0
	l0.6-1.3l0.1-0.2l0,0.2l0.5,2.4h6.8c0.6-0.8,1.1-1.6,1.6-2.4c0.8-1.2,1.5-2.3,2.3-3.5c1.3-2.1,2.4-4.3,3.4-6.5
	c0.1-0.2,0.2-0.5,0.3-0.8l-0.5-0.5l1.9-8.2l-3.8-0.6l4.1-12.7c-0.1-0.5-0.3-0.9-0.5-1.4c-2.3-5.8-6.6-10.2-11.8-13.9
	c-5.3-3.8-11.5-6.8-17.1-10c-2.7-1.5-5.3-3.1-7.8-4.7v0c-3.3-2.1-6.4-4.4-9.5-6.8c-0.1,0-0.1-0.1-0.1-0.1c0,0-0.1-0.1-0.1-0.1
	c-13.7-10.7-25.4-23.9-34.3-38.9c0,0,0,0,0,0c0,0,0,0,0,0c-0.3-0.5-0.6-1-0.9-1.4v0c-3.7-6.3-6.8-12.9-9.4-19.7v0
	c-0.2-0.5-0.4-1-0.6-1.5c-0.3,0.4-0.5,0.9-0.8,1.3c0,0,0,0,0,0c0,0,0,0,0,0C-1.2,392.7-2.1,413.6,3.2,433z"/>
<path class="st2" d="M8.5,375.3c-0.1,9.3,0.9,18.5,2.9,27.5c0.9,4.1,2,8.2,3.4,12.2c2.6,7.9,6,15.4,10.1,22.6
	c0.2,0.4,0.5,0.8,0.7,1.2v0c1.8,3,3.7,5.9,5.8,8.7c3.1,4.4,7,8.3,11.4,11.5c3.6,2.4,7.7,4,12,4.6c0.8,0.2,1.6,0.3,2.5,0.4
	c3.3,0.4,6.7,0.5,10,1.2c1.7,0.3,3.3,0.8,4.8,1.5c5.3,2.5,8.2,7.6,9.5,13.1c0.2,1,0.4,1.9,0.5,2.9c1.1,7.4-0.1,15.2,0.5,22.7
	c0.1,0.8,0.2,1.6,0.3,2.4h0.7l0.5-1.1v0c0-0.4-0.1-0.8-0.1-1.3c-0.2-3.7-0.3-7.3-0.1-11c0-1.7,0.1-3.3,0-5c0-1.3-0.1-2.7-0.2-4v0
	c-0.1-0.8-0.1-1.6-0.3-2.4c-0.3-2.5-0.9-4.9-1.8-7.2c-1.8-4.9-5.5-8.8-10.3-10.7c-1.5-0.5-2.9-1-4.5-1.2c-3.3-0.6-6.8-0.8-10.2-1.2
	c-0.4,0-0.7-0.1-1.1-0.2c-0.5-0.1-0.9-0.2-1.3-0.2c-4.4-0.8-8.6-2.6-12.2-5.3c-4.3-3.4-8-7.4-11-11.9c-1.6-2.3-3.2-4.8-4.6-7.2
	c0,0,0,0,0,0c0,0,0,0,0,0c-0.1-0.1-0.1-0.2-0.2-0.3l0,0c-6.2-10.6-10.8-22.2-13.5-34.2c-0.1-0.4-0.2-0.9-0.3-1.3
	c-1.9-8.7-2.8-17.5-2.7-26.4v0c0-0.4,0-0.8,0-1.2c0-0.9-1.3-1-1.3-0.2C8.5,374.5,8.5,374.9,8.5,375.3C8.5,375.3,8.5,375.3,8.5,375.3
	C8.5,375.3,8.5,375.3,8.5,375.3z"/>
<path class="st2" d="M26.1,438.6c-7.9,4-17.5,1.7-22.7-5.4c-0.5-0.7,0.6-1.5,1.1-0.8c4.8,6.6,13.8,8.8,21.1,5
	C26.4,436.9,26.9,438.2,26.1,438.6z"/>
<path class="st2" d="M54.2,462.6c2.8-8.3,2.3-17.3-1.2-25.3c-0.4-0.8,0.9-1.3,1.2-0.5c3.7,8.3,4.1,17.7,1.2,26.3
	C55.1,463.9,53.9,463.4,54.2,462.6L54.2,462.6z"/>
<path class="st2" d="M12.1,402c3.3-0.9,6-3.4,7-6.7c0.3-0.8,1.5-0.3,1.2,0.5c-1.2,3.6-4.1,6.4-7.8,7.4c-0.3,0.1-0.7,0-0.9-0.4
	C11.6,402.6,11.8,402.2,12.1,402L12.1,402z"/>
<path class="st6" d="M64.2,442.5L64.2,442.5c0.3,7.2,1.2,14.3,2.7,21.2v0c0.1,0.5,0.2,1,0.3,1.4c2.4,10.8,5.8,21.4,10.1,31.6
	c1.2,2.9,2.4,5.7,3.7,8.5c0.4,0.8,0.7,1.6,1.1,2.4h1.5l0.5-1.1v0l0.6-1.3l0.1-0.2l0,0.2l0.5,2.4h14.3l2.8-2.4l4-3.5l-5.7-6.2l-0.9-1
	l-0.1-0.2l-0.5-0.5l1.9-8.2l-3.8-0.6l4.1-12.7l2-6l0.5-1.5l2.9-8.8l8.6,1.6l1.4-4.9c-2.6-6-4.7-12.1-6.4-18.4c0,0,0-0.1,0-0.1
	c-4.5-16.9-5.9-34.5-4-52v0c0.1-0.6,0.1-1.1,0.2-1.7v0c0.9-7.2,2.3-14.4,4.3-21.3c0.1-0.5,0.3-1,0.5-1.6c-0.5,0.2-0.9,0.4-1.4,0.6
	l0,0h0c-0.7,0.3-1.5,0.7-2.2,1c-17.1,8.3-29.6,23.8-36.7,41.8c0,0,0,0.1-0.1,0.1c-3.7,9.4-5.9,19.3-6.6,29.4
	C64.1,434.7,64,438.6,64.2,442.5z"/>
<path class="st2" d="M90.2,507.8h1.6c0.5-0.8,1-1.6,1.6-2.4c0.9-1.2,1.7-2.4,2.7-3.5c0.8-1,1.6-2,2.4-3c0.8-1,1.6-2.1,2.4-3.1
	l-0.9-1c-0.1,0.2-0.3,0.4-0.5,0.6c-2.6,3.4-5.3,6.6-7.7,10.1C91.1,506.2,90.6,506.9,90.2,507.8z"/>
<path class="st2" d="M111.6,358.4c-0.3,0.3-0.5,0.7-0.8,1c-1.9,2.5-3.8,5.1-5.5,7.8c-3.1,4.7-5.8,9.7-8.2,14.8
	c-0.2,0.4-0.4,0.8-0.6,1.2c-5.1,11.2-8.4,23.2-9.8,35.4c0,0.1,0,0.2,0,0.3c-0.3,2.9-0.5,5.7-0.6,8.6c-0.3,5.4,0.2,10.9,1.6,16.1
	c0.2,0.7,0.4,1.4,0.7,2c0.6,1.6,1.4,3.2,2.2,4.7c0.6,1.1,1.4,2.1,2.1,3.1c0.5,0.6,1,1.2,1.5,1.8c0.3,0.3,0.6,0.7,0.9,1
	c0.3,0.2,0.5,0.5,0.8,0.8c2.7,2.6,5.7,5,8.1,7.9l-0.5,1.5c-2.4-3-5.4-5.5-8.1-8c-1.7-1.6-3.3-3.4-4.7-5.3c-0.2-0.3-0.4-0.5-0.5-0.8
	c-0.9-1.4-1.7-2.8-2.4-4.3c-0.3-0.8-0.6-1.5-0.9-2.3c-1.6-5.2-2.4-10.6-2.2-16c0-3.5,0.2-6.9,0.6-10.4c0-0.5,0.1-0.9,0.1-1.3
	c1-8.2,2.9-16.3,5.5-24.1c3.4-9.9,8-19.4,13.8-28.2c1.6-2.5,3.4-5,5.2-7.3c0.2-0.3,0.5-0.7,0.8-1
	C111.2,356.8,112.1,357.7,111.6,358.4z"/>
<path class="st2" d="M85.8,419.5c-8.7-1.5-15-9.2-14.9-18c0-0.4,0.3-0.7,0.7-0.7c0.4,0,0.6,0.3,0.7,0.6c-0.1,8.2,5.8,15.3,13.9,16.7
	C87,418.4,86.7,419.7,85.8,419.5L85.8,419.5z"/>
<path class="st2" d="M93.8,455.6c7.2-4.9,12.3-12.4,14.2-20.9c0.2-0.8,1.5-0.5,1.3,0.3c-2,8.9-7.3,16.6-14.9,21.7
	C93.7,457.2,93.1,456.1,93.8,455.6L93.8,455.6z"/>
<path class="st2" d="M96.7,381.9c3.2,1.3,6.8,0.9,9.6-1.1c0.7-0.5,1.4,0.7,0.7,1.2c-3.1,2.1-7.1,2.6-10.6,1.2
	c-0.4-0.1-0.6-0.5-0.5-0.8C95.9,382,96.3,381.8,96.7,381.9L96.7,381.9z"/>
<polygon class="st5" points="186.1,487.2 196.3,487.2 201.1,447.8 186.1,447.8 "/>
<path class="st7" d="M182.6,482.2l16.1-1v6.9l15.3,10.6c2,1.4,2.5,4,1.1,6c-0.8,1.2-2.1,1.9-3.6,1.9h-19.2l-3.3-6.8l-1.3,6.8h-7.2
	L182.6,482.2z"/>
<polygon class="st5" points="89.7,482.1 99.6,484.3 112.7,446.9 98,443.7 "/>
<path class="st7" d="M87.3,476.5l16,2.5l-1.5,6.8l12.7,13.6c1.6,1.7,1.5,4.5-0.2,6.1c-1,1-2.5,1.4-3.9,1.1l-18.8-4.1L90,495
	l-2.7,6.4l-7.1-1.5L87.3,476.5z"/>
<path class="st8" d="M17.8,506.6c0,0.7,0.5,1.2,1.2,1.2c0,0,0,0,0,0h280.3c0.7,0,1.2-0.5,1.2-1.2s-0.5-1.2-1.2-1.2l0,0H19
	C18.3,505.4,17.8,505.9,17.8,506.6C17.8,506.6,17.8,506.6,17.8,506.6z"/>
<path class="st7" d="M217.7,311.4c-7.2,39.3-9,56.3-9,56.3s5.4,6.3,1.8,9.8s0,10.7,0,10.7l-9.4,74.8l-2,11l-18.8-2.6l2.8-10.4
	l-4.8-71.9c0,0-3.6-7.2-1.8-9c1.8-1.8-1.8-12.5-1.8-12.5l-4.5-85l-27.7,93c0,0,2.7,3.6,0,6.3c-2.7,2.7-8,16.1-8,16.1l-20.4,54l-4,8
	l-2.1-1l-9.4-1.8l-1.7-0.3l-3.1-0.6l-2-0.4l-0.7-0.1l-3.2-0.6l1-4.3l7.2-10.9l7.3-53.4l0.3-1.4l0.3-1.5c0,0-1.8-4.5,0.9-7.2
	c1.6-1.7,2.3-4,1.8-6.3c-0.1-0.1-0.2-0.2-0.2-0.3c-0.3-0.4-0.5-0.9-0.6-1.5c-0.2-1.1,0-2.7,1.8-4.5c0.5-0.5,0.9-1.2,1.3-1.8
	c2.7-5.2,4.1-16.1,4.1-16.1s2.4-86.4,10.3-99.6c0.4-0.7,8.8-13.9,9.3-14.2c8.9-5.4,78.7,1,78.7,1s4.2,11.3,4.4,12.5
	C216.8,252.7,223.8,278,217.7,311.4z"/>
<path class="st5" d="M290.1,119.3c-0.6,4.7-4.9,8-9.6,7.4c-0.5-0.1-1-0.2-1.5-0.3L261,150.9l-5.4-14.9l18-21
	c1.7-4.4,6.7-6.6,11.1-4.9C288.4,111.6,290.6,115.4,290.1,119.3L290.1,119.3z"/>
<path class="st4" d="M125.1,223c-1.7,0-2.6-0.3-3-1c-0.5-1,0.4-2.4,1.5-3.9c0.8-1,1.4-2.1,1.9-3.4c0.6-2.6,5-67.5,2.4-80.5
	c-0.6-3-0.1-6.9,1.5-11.4c4.4-12.5,10.5-16.4,22.5-24.1c1-0.6,2-1.3,3.1-2c1.4-0.9,1.3-3.8,1.2-6.9c-0.1-3.4-0.2-7,1.5-9.2l0.1-0.1
	l0.2,0c4.1-0.9,17.7-2.7,25.8,0l0.1,0l0.1,0.1c1.9,1.9,2.1,5.6,2.3,9.2c0.1,3,0.3,5.7,1.4,7c8.3,9.3,17.7,9.1,17.8,9.1l0.5,0l0,0.5
	c3.6,36.8,9.4,92.3,10.7,94.5c0.1,0.2,0.1,0.5,0,0.7C214.8,205,131.3,223,125.1,223z"/>
<circle class="st5" cx="179.4" cy="45.4" r="24.7"/>
<path class="st7" d="M195.9,90.5c-1.2-1.7-7.1-22.1-9.7-28.3c-0.3,1.3-3.2,6.6-3.3,8l0,0.5l-0.5,0.1c-0.8,0.1-18.9,2.3-28.4-8.4
	c-5.6-6.3-6.9-15.9-3.8-28.3c-0.6-0.1-1.1-0.3-1.6-0.6c-1.7-1.1-2.7-3-2.9-5l-0.5,0.1c-2.7,0.7-5.7,1.7-7.6,3.9
	c-2.2,2.4-2.5,5.8-3,9.3c-0.2,1.7-0.4,3.3-0.8,5c-1.3,5.3-5,10.3-11,14.8c-6,4.5-12.2,7.1-18.3,7.7c-7.2,0.7-14.1-1.7-18.6-6.3
	c-4.9-5.2-6.2-13.1-3.1-18.9l0.5-0.9l0.6,0.9c2.8,4.6,8.9,7,14.9,6c5.1-0.9,10.2-4.1,14.3-9.2c3.7-4.6,6.3-10,8.8-15.2
	c2.5-5.3,5.2-10.8,8.9-15.5c4.3-5.3,9.6-8.7,15-9.7c3.9-0.7,7.4,0.1,9.6,2.2c1.5,1.6,2.5,3.7,2.6,5.9c1.3-0.3,2.7-0.2,4.1,0.2
	c2.6,1,4.3,3.4,4.6,6.1c7.9-4.2,18.4-3.5,23.8-0.4c2.3,1.3,3.6,3,3.8,4.8c6.4,0.4,13.3,6.6,13.3,15.4v0.6h-0.6
	c-5.1,0-9.7,2.9-12.4,7.8c-3.2,5.8-3,12.9,0.6,18.5c3.8,5.9,5.1,13.1,3.6,19.9l-2.3,10.1L195.9,90.5z"/>
<path class="st4" d="M224.2,182.7l-16.3-9.1c-28.4-19.7-35.3-35.3-36.2-44.9c-0.9-10.3,4.5-15.9,4.8-16.1l0.1-0.1l14.7-7.5
	c7.3-3.7,16.1-0.8,19.8,6.4c0.3,0.5,0.5,1.1,0.7,1.7l13.6,37.3l15-11.1l6.4-2.5l5.2-6.9l14.2-8.3l10.6,9.5l-13.3,26.5l-7.4,1.9
	l-1.6,4l-0.1,0.1L224.2,182.7z"/>
</svg>
