<?xml version="1.0" encoding="utf-8"?>
<!-- Generator: Adobe Illustrator 26.3.1, SVG Export Plug-In . SVG Version: 6.00 Build 0)  -->
<svg version="1.1" id="Layer_1" xmlns="http://www.w3.org/2000/svg" xmlns:xlink="http://www.w3.org/1999/xlink" x="0px" y="0px"
	 viewBox="0 0 668.6 593.5" style="enable-background:new 0 0 668.6 593.5;" xml:space="preserve">
<style type="text/css">
	.st0{fill:#D7D7D8;}
	.st1{fill:#FFFFFF;}
	.st2{fill:#2F2E43;}
	.st3{fill:#F3A3A6;}
	.st4{fill:#7DD3FC;}
</style>
<path class="st0" d="M80.7,0h515.2c12,0,21.8,9.7,21.8,21.8v382.9c0,12-9.7,21.8-21.8,21.8H80.7c-12,0-21.8-9.7-21.8-21.8V21.8
	C59,9.7,68.7,0,80.7,0z"/>
<path class="st1" d="M80.7,5C71.5,5,64,12.5,64,21.8v382.9c0,9.2,7.5,16.8,16.8,16.8h515.2c9.2,0,16.8-7.5,16.8-16.8V21.8
	c0-9.2-7.5-16.8-16.8-16.8H80.7z"/>
<rect x="336.3" y="2.5" class="st0" width="4" height="421.8"/>
<circle class="st0" cx="314.6" cy="65.6" r="5.6"/>
<circle class="st0" cx="362" cy="65.6" r="5.6"/>
<circle class="st0" cx="314.6" cy="139.4" r="5.6"/>
<circle class="st0" cx="362" cy="139.4" r="5.6"/>
<circle class="st0" cx="314.6" cy="213.2" r="5.6"/>
<circle class="st0" cx="362" cy="213.2" r="5.6"/>
<circle class="st0" cx="314.6" cy="287.1" r="5.6"/>
<circle class="st0" cx="362" cy="287.1" r="5.6"/>
<circle class="st0" cx="314.6" cy="360.9" r="5.6"/>
<circle class="st0" cx="362" cy="360.9" r="5.6"/>
<path class="st0" d="M315.1,63l-1-1.7c0.3-0.2,26.1-15.8,48.5,0l-1.1,1.6C340.1,47.9,315.3,62.8,315.1,63L315.1,63z"/>
<path class="st0" d="M315.1,69.9l-1-1.7c0.3-0.2,26.1-15.8,48.5,0l-1.1,1.6C340.1,54.8,315.3,69.8,315.1,69.9L315.1,69.9z"/>
<path class="st0" d="M315.1,137.1l-1-1.7c0.3-0.2,26.1-15.8,48.5,0l-1.1,1.6C340.1,122,315.3,137,315.1,137.1L315.1,137.1z"/>
<path class="st0" d="M315.1,144.1l-1-1.7c0.3-0.2,26.1-15.8,48.5,0l-1.1,1.6C340.1,129,315.3,143.9,315.1,144.1L315.1,144.1z"/>
<path class="st0" d="M315.1,211.3l-1-1.7c0.3-0.2,26.1-15.8,48.5,0l-1.1,1.6C340.1,196.2,315.3,211.1,315.1,211.3L315.1,211.3z"/>
<path class="st0" d="M315.1,218.2l-1-1.7c0.3-0.2,26.1-15.8,48.5,0l-1.1,1.6C340.1,203.1,315.3,218.1,315.1,218.2L315.1,218.2z"/>
<path class="st0" d="M315.1,285.4l-1-1.7c0.3-0.2,26.1-15.8,48.5,0l-1.1,1.6C340.1,270.4,315.3,285.3,315.1,285.4L315.1,285.4z"/>
<path class="st0" d="M315.1,292.4l-1-1.7c0.3-0.2,26.1-15.8,48.5,0l-1.1,1.6C340.1,277.3,315.3,292.2,315.1,292.4L315.1,292.4z"/>
<path class="st0" d="M315.1,359.6l-1-1.7c0.3-0.2,26.1-15.8,48.5,0l-1.1,1.6C340.1,344.5,315.3,359.4,315.1,359.6L315.1,359.6z"/>
<path class="st0" d="M315.1,366.5l-1-1.7c0.3-0.2,26.1-15.8,48.5,0l-1.1,1.6C340.1,351.4,315.3,366.4,315.1,366.5L315.1,366.5z"/>
<path class="st2" d="M464.9,111.8c0,0-20.6,2.3-21.9,34.2c-1.1,26.6-3.4,41.4,7.4,46.9c3.9,2,8.4,2.1,12.5,0.8l44.1-14.5
	c0,0,0.7-47.8-14.6-59.4S464.9,111.8,464.9,111.8L464.9,111.8z"/>
<polygon class="st3" points="489.2,185 466.8,192.4 466.8,160.2 487.1,160.2 "/>
<path id="uuid-89c22d20-9486-4802-b91b-ddf2a7c7ca0a-46-272" class="st3" d="M420.9,367.4c-1.2,7.4-6.1,12.6-11,11.8
	c-4.9-0.9-7.8-7.5-6.6-14.9c0.4-3,1.6-5.7,3.4-8.1l5.5-31.1l15,3.1l-7,30.3C421.2,361.4,421.5,364.5,420.9,367.4L420.9,367.4z"/>
<polygon class="st3" points="472,574.3 451.1,574.3 439,462.6 471.3,462.6 "/>
<path class="st2" d="M430.8,592.3c-2.2,0-4.2,0-5.6-0.2c-5.5-0.5-10.9-4.6-13.5-7c-1.2-1.1-1.6-2.8-1-4.3l0,0
	c0.5-1.1,1.3-1.8,2.5-2.2l14.7-4.2l23.8-16l0.3,0.5c0.1,0.2,2.4,4.4,3.2,7.2c0.3,1.1,0.2,2-0.2,2.7c-0.3,0.5-0.8,0.8-1.1,0.9
	c0.4,0.5,1.8,1.4,5.9,2c6.1,1,7.3-5.3,7.4-5.6l0-0.2l0.2-0.1c2.9-1.9,4.7-2.7,5.3-2.5c0.4,0.1,1,0.3,2.7,17.4
	c0.2,0.5,1.4,4.5,0.6,8.2c-0.9,4.1-18.8,2.7-22.4,2.4C453.3,591.3,440,592.3,430.8,592.3L430.8,592.3z"/>
<polygon class="st3" points="519.3,574.3 498.4,574.3 486.2,462.6 518.5,462.6 "/>
<path class="st2" d="M478,592.3c-2.2,0-4.2,0-5.6-0.2c-5.5-0.5-10.9-4.6-13.5-7c-1.2-1.1-1.6-2.8-1-4.3l0,0c0.5-1.1,1.3-1.8,2.5-2.2
	l14.7-4.2l23.8-16l0.3,0.5c0.1,0.2,2.4,4.4,3.2,7.2c0.3,1.1,0.2,2-0.2,2.7c-0.3,0.5-0.8,0.8-1.1,0.9c0.4,0.5,1.8,1.4,5.9,2
	c6.1,1,7.3-5.3,7.4-5.6l0-0.2l0.2-0.1c2.9-1.9,4.7-2.7,5.3-2.5c0.4,0.1,1,0.3,2.7,17.4c0.2,0.5,1.4,4.5,0.6,8.2
	c-0.9,4.1-18.8,2.7-22.4,2.4C500.6,591.3,487.2,592.3,478,592.3L478,592.3z"/>
<polygon class="st4" points="525.3,300 423.7,300 460.2,179.8 500.7,179.8 "/>
<path class="st4" d="M466.6,179.8c0,0-25.2-0.7-27.9,6c-2.7,6.6-33.9,164.6-33.9,164.6h20.6L466.6,179.8L466.6,179.8z"/>
<circle class="st3" cx="469.6" cy="146.9" r="22.2"/>
<path class="st2" d="M463.5,120.1c0,0-12.2,49.7,1.4,72.9l-19.2-4.1c0,0-7.4-54.4,7.5-64.3C453.2,124.6,463.5,120.1,463.5,120.1z"/>
<path class="st2" d="M504.2,300h-66.7L401,449.7c-0.7,6.3,3.3,12.2,9.5,13.9c20,5.4,68,13,140.7-8.2c7-2,11-9.4,8.8-16.4L504.2,300
	L504.2,300z"/>
<path class="st2" d="M668.6,592.3c0,0.7-0.5,1.2-1.2,1.2H1.2c-0.7,0-1.2-0.5-1.2-1.2s0.5-1.2,1.2-1.2h666.2
	C668.1,591.1,668.6,591.6,668.6,592.3z"/>
<path class="st4" d="M477.2,179.8l20.7-0.9c9,0.7,17.1,5.6,21.9,13.2c14.7,23.2,42.1,72,17.6,78.7c-32.3,8.8-47.9-40.2-47.9-40.2
	L477.2,179.8L477.2,179.8z"/>
<path class="st2" d="M458.1,197.5l50.8-37c0.6-0.4,1.4-0.3,1.9,0.3l1.2,1.7c0.4,0.6,0.3,1.4-0.3,1.9l-50.8,37h0l-6.7,2.9l-0.5-0.7
	L458.1,197.5z"/>
<path id="uuid-98bb229b-1f5d-4c6c-926b-55ef96e77de9-47-273" class="st3" d="M470.1,194.4c-4.3-6.1-4.4-13.3-0.4-16.1
	c4.1-2.8,10.8,0,15.1,6.1c1.7,2.4,2.8,5.2,3.2,8.2l17.7,26.2l-13,8.2l-16.1-26.7C474,198.9,471.8,196.8,470.1,194.4L470.1,194.4
	L470.1,194.4z"/>
<polygon class="st4" points="480.6,215.5 495.2,202.1 524.1,229 497.2,247.4 "/>
<path class="st4" d="M110.8,75.9c20.6-0.8,41.1-1.1,61.7-1s40.8,0.7,61.2,1.7c11.6,0.6,23.2,1.3,34.8,2.2c1.9,0.2,1.9-2.9,0-3
	c-20.5-1.6-41.1-2.6-61.6-3.3S166,71.7,145.6,72c-11.6,0.2-23.2,0.5-34.8,0.9C108.9,73,108.9,76,110.8,75.9L110.8,75.9L110.8,75.9z"
	/>
<path class="st2" d="M110.8,109.8c20.6-0.8,41.1-1.1,61.7-1s40.8,0.7,61.2,1.7c11.6,0.6,23.2,1.3,34.8,2.2c1.9,0.2,1.9-2.9,0-3
	c-20.5-1.6-41.1-2.6-61.6-3.3s-40.8-0.8-61.2-0.5c-11.6,0.2-23.2,0.5-34.8,0.9C108.9,106.9,108.9,109.9,110.8,109.8L110.8,109.8
	L110.8,109.8z"/>
<path class="st2" d="M110.8,143.8c16.7-0.6,33.4-1.4,50.1-1.7c14.3-0.2,28.6,0,42.8,0.7c10.2,0.5,20.3,1.2,30.5,1.9
	c1.9,0.1,1.9-2.9,0-3c-16.6-1.3-33.3-2.3-50-2.6c-14.3-0.3-28.6,0-42.8,0.5c-10.2,0.4-20.4,0.8-30.6,1.2
	C108.9,140.9,108.9,143.9,110.8,143.8L110.8,143.8L110.8,143.8z"/>
<path class="st2" d="M110.8,177.7c17.7-0.7,35.3-1.4,53-1.7c15.8-0.2,31.6,0,47.5,0.7c10.5,0.5,21.1,1.1,31.6,1.9
	c1.9,0.1,1.9-2.9,0-3c-17.6-1.3-35.3-2.3-52.9-2.6c-15.8-0.3-31.7,0-47.5,0.5c-10.5,0.3-21.1,0.7-31.6,1.1
	C108.9,174.8,108.9,177.8,110.8,177.7L110.8,177.7L110.8,177.7z"/>
<path class="st2" d="M110.8,211.6c16.1-0.6,32.1-1.6,48.2-2.4c13.3-0.6,26.5-0.8,39.8-0.4c9.9,0.3,19.9,0.9,29.8,1.7
	c1.9,0.1,1.9-2.9,0-3c-16-1.2-32-2.1-48.1-1.9c-13.3,0.1-26.6,0.9-39.8,1.6c-9.9,0.5-19.9,1-29.8,1.4
	C108.9,208.7,108.9,211.7,110.8,211.6L110.8,211.6L110.8,211.6z"/>
<path class="st2" d="M110.8,245.6c20.6-0.8,41.1-1.1,61.7-1s40.8,0.7,61.2,1.7c11.6,0.6,23.2,1.3,34.8,2.2c1.9,0.1,1.9-2.9,0-3
	c-20.5-1.6-41.1-2.6-61.6-3.3s-40.8-0.8-61.2-0.5c-11.6,0.2-23.2,0.5-34.8,0.9C108.9,242.7,108.9,245.7,110.8,245.6L110.8,245.6
	L110.8,245.6z"/>
</svg>
