<svg width="46" height="38" viewBox="0 0 46 38" fill="none" xmlns="http://www.w3.org/2000/svg">
<circle opacity="0.2" cx="16.7502" cy="16.2404" r="15.84" fill="#4680EE"/>
<path d="M12.4297 10.9114C12.4297 9.90602 12.8604 8.94182 13.6271 8.23091C14.3937 7.51999 15.4335 7.12061 16.5178 7.12061H33.499C34.5832 7.12061 35.623 7.51999 36.3897 8.23091C37.1564 8.94182 37.5871 9.90602 37.5871 10.9114V25.783H45.1343V32.1982C45.1343 33.5903 44.5379 34.9253 43.4764 35.9097C42.4149 36.894 40.9751 37.447 39.4739 37.447H18.0901C16.5889 37.447 15.1491 36.894 14.0876 35.9097C13.0261 34.9253 12.4297 33.5903 12.4297 32.1982V10.9114ZM37.5871 35.1142H39.4739C40.3079 35.1142 41.1077 34.807 41.6975 34.2601C42.2872 33.7133 42.6185 32.9716 42.6185 32.1982V28.1158H37.5871V35.1142ZM16.5178 9.45341C15.6498 9.45341 14.9454 10.1066 14.9454 10.9114V32.1982C14.9454 32.9716 15.2767 33.7133 15.8665 34.2601C16.4562 34.807 17.2561 35.1142 18.0901 35.1142H35.0713V10.9114C35.0713 10.1066 34.3669 9.45341 33.499 9.45341H16.5178ZM19.9769 14.119C19.6433 14.119 19.3234 14.2419 19.0875 14.4606C18.8516 14.6794 18.719 14.9761 18.719 15.2854C18.719 15.5948 18.8516 15.8914 19.0875 16.1102C19.3234 16.3289 19.6433 16.4518 19.9769 16.4518H30.0399C30.3735 16.4518 30.6934 16.3289 30.9293 16.1102C31.1652 15.8914 31.2977 15.5948 31.2977 15.2854C31.2977 14.9761 31.1652 14.6794 30.9293 14.4606C30.6934 14.2419 30.3735 14.119 30.0399 14.119H19.9769ZM18.719 22.2838C18.719 21.9745 18.8516 21.6778 19.0875 21.459C19.3234 21.2403 19.6433 21.1174 19.9769 21.1174H30.0399C30.3735 21.1174 30.6934 21.2403 30.9293 21.459C31.1652 21.6778 31.2977 21.9745 31.2977 22.2838C31.2977 22.5932 31.1652 22.8898 30.9293 23.1086C30.6934 23.3273 30.3735 23.4502 30.0399 23.4502H19.9769C19.6433 23.4502 19.3234 23.3273 19.0875 23.1086C18.8516 22.8898 18.719 22.5932 18.719 22.2838ZM19.9769 28.1158C19.6433 28.1158 19.3234 28.2387 19.0875 28.4574C18.8516 28.6762 18.719 28.9729 18.719 29.2822C18.719 29.5916 18.8516 29.8882 19.0875 30.107C19.3234 30.3257 19.6433 30.4486 19.9769 30.4486H25.0084C25.342 30.4486 25.6619 30.3257 25.8978 30.107C26.1337 29.8882 26.2662 29.5916 26.2662 29.2822C26.2662 28.9729 26.1337 28.6762 25.8978 28.4574C25.6619 28.2387 25.342 28.1158 25.0084 28.1158H19.9769Z" fill="#4680EE"/>
</svg>
