<svg width="20" height="20" viewBox="0 0 20 20" fill="none" xmlns="http://www.w3.org/2000/svg">
<path d="M2.50049 2.5L17.5005 17.5M8.20405 8.26137C7.76852 8.71129 7.50049 9.32435 7.50049 10C7.50049 11.3807 8.61978 12.5 10.0005 12.5C10.6859 12.5 11.3069 12.2242 11.7585 11.7775M5.41715 5.53929C3.8344 6.58361 2.62885 8.15328 2.04883 9.99997C3.11071 13.3809 6.26929 15.8333 10.0007 15.8333C11.6581 15.8333 13.2025 15.3495 14.5003 14.5153M9.16715 4.20783C9.4413 4.18061 9.71934 4.16667 10.0007 4.16667C13.732 4.16667 16.8906 6.61909 17.9525 10C17.7185 10.745 17.3827 11.4448 16.9615 12.0833" stroke="black" stroke-width="1.4" stroke-linecap="round" stroke-linejoin="round"/>
</svg>
