<svg width="16" height="16" viewBox="0 0 16 16" fill="none" xmlns="http://www.w3.org/2000/svg">
<path d="M12.2177 9.44206V12.2837C12.2176 12.6857 12.0578 13.0713 11.7735 13.3556C11.4892 13.6399 11.1036 13.7996 10.7016 13.7998H3.27693C3.07709 13.7997 2.87924 13.7602 2.69474 13.6834C2.51025 13.6066 2.34274 13.4941 2.20185 13.3524C2.06096 13.2107 1.94947 13.0425 1.87377 12.8576C1.79808 12.6726 1.75967 12.4745 1.76077 12.2747V4.85838C1.75958 4.65886 1.798 4.46108 1.87381 4.27652C1.94961 4.09196 2.06129 3.92427 2.20238 3.78319C2.34346 3.6421 2.51115 3.53042 2.69571 3.45462C2.88027 3.37881 3.07805 3.34039 3.27757 3.34158H6.11853" stroke="white" stroke-width="0.96" stroke-linecap="round" stroke-linejoin="round"/>
<path d="M12.2182 5.95667L9.6038 3.34163M4.375 10.3138V8.92819C4.37628 8.69971 4.46716 8.48019 4.6278 8.31827L10.7283 2.21779C10.8093 2.13609 10.9057 2.07125 11.0119 2.027C11.1182 1.98274 11.2321 1.95996 11.3472 1.95996C11.4622 1.95996 11.5762 1.98274 11.6824 2.027C11.7886 2.07125 11.885 2.13609 11.966 2.21779L13.3427 3.59443C13.4245 3.67538 13.4895 3.77175 13.5339 3.87799C13.5782 3.98422 13.601 4.09819 13.601 4.21331C13.601 4.32843 13.5782 4.4424 13.5339 4.54863C13.4895 4.65486 13.4245 4.75124 13.3427 4.83219L7.2422 10.9327C7.07994 11.0937 6.86088 11.1845 6.63228 11.1855H5.24668C5.0155 11.1855 4.79378 11.0936 4.63031 10.9302C4.46684 10.7667 4.375 10.545 4.375 10.3138Z" stroke="white" stroke-width="0.96" stroke-linecap="round" stroke-linejoin="round"/>
</svg>
