<svg width="99" height="124" viewBox="0 0 99 124" fill="none" xmlns="http://www.w3.org/2000/svg">
<rect x="0.776466" y="25.4412" width="71.8443" height="99.006" rx="9" transform="rotate(-7.5 0.776466 25.4412)" fill="#FAFAFA" stroke="#999999" stroke-width="2"/>
<path d="M2.94265 34.2337C2.36595 29.8532 5.44952 25.8346 9.83 25.2579L63.2137 18.2298C67.5941 17.6531 71.6127 20.7367 72.1894 25.1172L74.0574 39.3061L4.81066 48.4226L2.94265 34.2337Z" fill="#EEEEEE"/>
<rect x="86.2051" y="20.0952" width="2.91018" height="9.7006" rx="1.45509" transform="rotate(82.5 86.2051 20.0952)" fill="#999999"/>
<rect x="59.6289" y="4.02539" width="2.91018" height="9.7006" rx="1.45509" transform="rotate(-7.5 59.6289 4.02539)" fill="#999999"/>
<rect x="76.6797" y="6.67273" width="2.91018" height="9.7006" rx="1.45509" transform="rotate(37.5 76.6797 6.67273)" fill="#999999"/>
<rect x="12.0508" y="51.3833" width="56.2635" height="3.88024" rx="1.94012" transform="rotate(-7.5 12.0508 51.3833)" fill="#DCDCDC"/>
<rect x="14.582" y="70.6185" width="56.2635" height="3.88024" rx="1.94012" transform="rotate(-7.5 14.582 70.6185)" fill="#DCDCDC"/>
<rect x="17.1152" y="89.8538" width="56.2635" height="3.88024" rx="1.94012" transform="rotate(-7.5 17.1152 89.8538)" fill="#DCDCDC"/>
<rect x="13.0625" y="59.0774" width="20.3713" height="3.88024" rx="1.94012" transform="rotate(-7.5 13.0625 59.0774)" fill="#EEEEEE"/>
<rect x="15.5957" y="78.3126" width="20.3713" height="3.88024" rx="1.94012" transform="rotate(-7.5 15.5957 78.3126)" fill="#EEEEEE"/>
<rect x="18.1289" y="97.5479" width="20.3713" height="3.88024" rx="1.94012" transform="rotate(-7.5 18.1289 97.5479)" fill="#EEEEEE"/>
</svg>
