<svg width="23" height="16" viewBox="0 0 23 16" fill="none" xmlns="http://www.w3.org/2000/svg">
<path d="M9.50006 8.0005H13.5001M11.5001 6V10M11.5001 1C5.87156 1 2.49256 4.374 1.68756 5.279C1.62955 5.34519 1.59174 5.42663 1.57862 5.51366C1.56551 5.60069 1.57763 5.68966 1.61356 5.77L5.27656 14.4685C5.39456 14.749 5.73506 14.8655 6.01006 14.7345C6.91206 14.304 8.93806 13.5 11.5001 13.5C14.0621 13.5 16.0881 14.304 16.9901 14.735C17.2651 14.8655 17.6056 14.749 17.7236 14.4685L21.3866 5.77C21.4225 5.68966 21.4346 5.60069 21.4215 5.51366C21.4084 5.42663 21.3706 5.34519 21.3126 5.279C20.5076 4.374 17.1286 1 11.5001 1Z" stroke="#E72FAD" stroke-width="2" stroke-linecap="round" stroke-linejoin="round"/>
</svg>
