<svg width="54" height="47" viewBox="0 0 54 47" fill="none" xmlns="http://www.w3.org/2000/svg">
<circle opacity="0.2" cx="20.1906" cy="19.8" r="19.8" fill="#F0811A"/>
<path d="M36.9977 36H37.0157M42.3977 9H26.1977C25.2429 9 24.3272 9.37928 23.6521 10.0544C22.9769 10.7295 22.5977 11.6452 22.5977 12.6V41.4C22.5977 42.3548 22.9769 43.2705 23.6521 43.9456C24.3272 44.6207 25.2429 45 26.1977 45H47.7977C48.7524 45 49.6681 44.6207 50.3432 43.9456C51.0184 43.2705 51.3977 42.3548 51.3977 41.4V18L42.3977 9Z" stroke="#F0811A" stroke-width="3.6" stroke-linecap="round" stroke-linejoin="round"/>
<path d="M31.7812 21.6004C32.2132 20.4099 33.0498 19.4091 34.1449 18.773C35.2399 18.1368 36.5237 17.9058 37.7718 18.1202C39.02 18.3347 40.153 18.981 40.9729 19.9462C41.7928 20.9113 42.2474 22.134 42.2572 23.4004C42.2572 27.0004 36.8572 28.8004 36.8572 28.8004" stroke="#F0811A" stroke-width="3.6" stroke-linecap="round" stroke-linejoin="round"/>
</svg>
