<svg width="35" height="35" viewBox="0 0 35 35" fill="none" xmlns="http://www.w3.org/2000/svg">
<circle opacity="0.2" cx="17.472" cy="17.472" r="17.472" fill="#F0811A"/>
<path d="M18.2008 20.375H18.2075M20.2258 10.25H14.1508C13.7927 10.25 13.4494 10.3922 13.1962 10.6454C12.943 10.8986 12.8008 11.242 12.8008 11.6V22.4C12.8008 22.758 12.943 23.1014 13.1962 23.3546C13.4494 23.6078 13.7927 23.75 14.1508 23.75H22.2508C22.6088 23.75 22.9522 23.6078 23.2054 23.3546C23.4585 23.1014 23.6008 22.758 23.6008 22.4V13.625L20.2258 10.25Z" stroke="#F0811A" stroke-width="1.35" stroke-linecap="round" stroke-linejoin="round"/>
<path d="M16.2461 14.9754C16.4081 14.529 16.7218 14.1537 17.1325 13.9151C17.5431 13.6766 18.0245 13.5899 18.4926 13.6704C18.9606 13.7508 19.3855 13.9931 19.693 14.3551C20.0004 14.717 20.1709 15.1755 20.1746 15.6504C20.1746 17.0004 18.1496 17.6754 18.1496 17.6754" stroke="#F0811A" stroke-width="1.35" stroke-linecap="round" stroke-linejoin="round"/>
</svg>
