<svg width="58" height="47" viewBox="0 0 58 47" fill="none" xmlns="http://www.w3.org/2000/svg">
<circle opacity="0.2" cx="20.1906" cy="19.8" r="19.8" fill="#388B12"/>
<path d="M27.4505 19.7498L25.4408 21.0912C23.9987 22.0515 23.2777 22.5317 22.8866 23.2643C22.4956 23.9985 22.4989 24.8598 22.5055 26.5808C22.5121 28.6565 22.5319 30.7685 22.5847 32.907C22.7117 37.9807 22.7744 40.5168 24.6406 42.3813C26.5051 44.2458 29.0758 44.3118 34.2172 44.4405C37.4061 44.5203 40.5966 44.5203 43.7855 44.4405C48.9269 44.3118 51.4976 44.2475 53.3621 42.3813C55.2266 40.5168 55.291 37.9807 55.418 32.907C55.4708 30.7685 55.4906 28.6565 55.4972 26.5825C55.5022 24.8598 55.5055 23.9985 55.1144 23.2659C54.725 22.5317 54.004 22.0515 52.5619 21.0912L50.5505 19.7498" stroke="#388B12" stroke-width="3.30001" stroke-linecap="round" stroke-linejoin="round"/>
<path d="M22.5 24.6997L33.9065 31.544C36.388 33.0323 37.6288 33.7748 39 33.7748C40.3711 33.7748 41.6119 33.0323 44.0935 31.5423L55.5 24.6997" stroke="#388B12" stroke-width="3.30001" stroke-linecap="round" stroke-linejoin="round"/>
<path d="M27.4492 28.0001V18.1001C27.4492 14.9881 27.4492 13.4338 28.4161 12.4669C29.383 11.5 30.9373 11.5 34.0492 11.5H43.9492C47.0611 11.5 48.6154 11.5 49.5823 12.4669C50.5492 13.4338 50.5492 14.9881 50.5492 18.1001V28.0001M35.6992 24.7001H42.2992M35.6992 18.1001H42.2992" stroke="#388B12" stroke-width="3.30001" stroke-linecap="round" stroke-linejoin="round"/>
</svg>
