<svg width="24" height="24" viewBox="0 0 24 24" fill="none" xmlns="http://www.w3.org/2000/svg">
<path d="M2.25 4.6875C2.25 4.04103 2.50681 3.42105 2.96393 2.96393C3.42105 2.50681 4.04103 2.25 4.6875 2.25H14.8125C15.459 2.25 16.079 2.50681 16.5361 2.96393C16.9932 3.42105 17.25 4.04103 17.25 4.6875V14.25H21.75V18.375C21.75 19.2701 21.3944 20.1285 20.7615 20.7615C20.1285 21.3944 19.2701 21.75 18.375 21.75H5.625C4.72989 21.75 3.87145 21.3944 3.23851 20.7615C2.60558 20.1285 2.25 19.2701 2.25 18.375V4.6875ZM17.25 20.25H18.375C18.8723 20.25 19.3492 20.0525 19.7008 19.7008C20.0525 19.3492 20.25 18.8723 20.25 18.375V15.75H17.25V20.25ZM4.6875 3.75C4.17 3.75 3.75 4.17 3.75 4.6875V18.375C3.75 18.8723 3.94754 19.3492 4.29917 19.7008C4.65081 20.0525 5.12772 20.25 5.625 20.25H15.75V4.6875C15.75 4.17 15.33 3.75 14.8125 3.75H4.6875ZM6.75 6.75C6.55109 6.75 6.36032 6.82902 6.21967 6.96967C6.07902 7.11032 6 7.30109 6 7.5C6 7.69891 6.07902 7.88968 6.21967 8.03033C6.36032 8.17098 6.55109 8.25 6.75 8.25H12.75C12.9489 8.25 13.1397 8.17098 13.2803 8.03033C13.421 7.88968 13.5 7.69891 13.5 7.5C13.5 7.30109 13.421 7.11032 13.2803 6.96967C13.1397 6.82902 12.9489 6.75 12.75 6.75H6.75ZM6 12C6 11.8011 6.07902 11.6103 6.21967 11.4697C6.36032 11.329 6.55109 11.25 6.75 11.25H12.75C12.9489 11.25 13.1397 11.329 13.2803 11.4697C13.421 11.6103 13.5 11.8011 13.5 12C13.5 12.1989 13.421 12.3897 13.2803 12.5303C13.1397 12.671 12.9489 12.75 12.75 12.75H6.75C6.55109 12.75 6.36032 12.671 6.21967 12.5303C6.07902 12.3897 6 12.1989 6 12ZM6.75 15.75C6.55109 15.75 6.36032 15.829 6.21967 15.9697C6.07902 16.1103 6 16.3011 6 16.5C6 16.6989 6.07902 16.8897 6.21967 17.0303C6.36032 17.171 6.55109 17.25 6.75 17.25H9.75C9.94891 17.25 10.1397 17.171 10.2803 17.0303C10.421 16.8897 10.5 16.6989 10.5 16.5C10.5 16.3011 10.421 16.1103 10.2803 15.9697C10.1397 15.829 9.94891 15.75 9.75 15.75H6.75Z" fill="black"/>
</svg>
