<?xml version="1.0" encoding="utf-8"?>
<!-- Generator: Adobe Illustrator 26.3.1, SVG Export Plug-In . SVG Version: 6.00 Build 0)  -->
<svg version="1.1" id="Layer_1" xmlns="http://www.w3.org/2000/svg" xmlns:xlink="http://www.w3.org/1999/xlink" x="0px" y="0px"
	 viewBox="0 0 827.9 666.5" style="enable-background:new 0 0 827.9 666.5;" xml:space="preserve">
<style type="text/css">
	.st0{fill:#7DD3FC;}
	.st1{fill:#2F2E41;}
	.st2{fill:#E6E6E6;}
	.st3{fill:#FFFFFF;}
	.st4{fill:#3F3D56;}
</style>
<path class="st0" d="M149.2,439.2c-0.7,0-1.5-0.1-2.1-0.3c-1.8-0.6-3.2-1.8-4.1-3.5l-6.8-13.1c-1.8-3.4-0.4-7.7,3-9.4l109.3-56.4
	c3.4-1.8,7.7-0.4,9.4,3l6.8,13.1c1.8,3.4,0.4,7.7-3,9.4l-109.3,56.4C151.4,438.9,150.3,439.2,149.2,439.2z"/>
<path class="st1" d="M188.8,388c0.3,0.4,0.5,0.8,0.7,1.3l11.6,25.2c1.6,3.5,0,7.7-3.6,9.2c0,0,0,0,0,0l-38.9,13.6
	c-8.4,2.9-17.6-0.9-21.5-8.8l0.4-0.2l-0.4,0.2c-4.1-8.4-0.9-18.5,7.3-23l35.8-19.8C183.3,384.4,186.9,385.4,188.8,388L188.8,388z"/>
<path class="st2" d="M646.4,322H459.2c-4.3,0-8.4-1.6-11.6-4.4l-77.1-68c-2.6-2.3-6.1-3.6-9.6-3.6h-66.5V16.5
	c0-9.1,7.4-16.5,16.5-16.5h319c9.1,0,16.5,7.4,16.5,16.5L646.4,322z"/>
<circle class="st3" cx="370.9" cy="71.5" r="35"/>
<path class="st3" d="M506.9,52.8h-65c-2.5,0-4.5,2-4.5,4.5s2,4.5,4.5,4.5h65c2.5,0,4.5-2,4.5-4.5S509.4,52.8,506.9,52.8z"/>
<path class="st3" d="M601.3,81.2H441c-2,0-3.6,2-3.6,4.5s1.6,4.5,3.6,4.5h160.2c2,0,3.6-2,3.6-4.5S603.3,81.2,601.3,81.2z"/>
<path class="st3" d="M588.7,141.5H352.1c-1.9,0-3.5,2-3.5,4.5s1.6,4.5,3.5,4.5h236.5c1.9,0,3.5-2,3.5-4.5S590.6,141.5,588.7,141.5z"
	/>
<path class="st3" d="M588.7,169.5H352.1c-1.9,0-3.5,2-3.5,4.5s1.6,4.5,3.5,4.5h236.5c1.9,0,3.5-2,3.5-4.5S590.6,169.5,588.7,169.5z"
	/>
<path class="st3" d="M588.7,197.5H352.1c-1.9,0-3.5,2-3.5,4.5s1.6,4.5,3.5,4.5h236.5c1.9,0,3.5-2,3.5-4.5S590.6,197.5,588.7,197.5z"
	/>
<path class="st3" d="M588.7,225.5H352.1c-1.9,0-3.5,2-3.5,4.5s1.6,4.5,3.5,4.5h236.5c1.9,0,3.5-2,3.5-4.5S590.6,225.5,588.7,225.5z"
	/>
<path class="st0" d="M801.4,322H459.2c-3.4,0-6.7-1-9.6-2.9l-0.2-0.1V85.5c0-9.1,7.4-16.5,16.5-16.5h319c9.1,0,16.5,7.4,16.5,16.5
	L801.4,322z"/>
<circle class="st3" cx="525.9" cy="140.5" r="35"/>
<path class="st3" d="M661.9,121.8h-65c-2.5,0-4.5,2-4.5,4.5c0,2.5,2,4.5,4.5,4.5h65c2.5,0,4.5-2,4.5-4.5S664.4,121.8,661.9,121.8z"
	/>
<path class="st3" d="M756.3,150.2H596c-2,0-3.6,2-3.6,4.5s1.6,4.5,3.6,4.5h160.2c2,0,3.6-2,3.6-4.5S758.3,150.2,756.3,150.2z"/>
<path class="st3" d="M743.7,210.5H507.1c-1.9,0-3.5,2-3.5,4.5s1.6,4.5,3.5,4.5h236.5c1.9,0,3.5-2,3.5-4.5S745.6,210.5,743.7,210.5z"
	/>
<path class="st3" d="M743.7,238.5H507.1c-1.9,0-3.5,2-3.5,4.5s1.6,4.5,3.5,4.5h236.5c1.9,0,3.5-2,3.5-4.5S745.6,238.5,743.7,238.5z"
	/>
<path class="st3" d="M743.7,266.5H507.1c-1.9,0-3.5,2-3.5,4.5s1.6,4.5,3.5,4.5h236.5c1.9,0,3.5-2,3.5-4.5S745.6,266.5,743.7,266.5z"
	/>
<path class="st3" d="M743.7,294.5H507.1c-1.9,0-3.5,2-3.5,4.5s1.6,4.5,3.5,4.5h236.5c1.9,0,3.5-2,3.5-4.5S745.6,294.5,743.7,294.5z"
	/>
<path class="st4" d="M810.9,319.5H459.2c-3.4,0-6.7-1.1-9.3-3.2c-0.2-0.2-0.4-0.3-0.6-0.5l-29.8-26.2l-47.3-41.8
	c-3.1-2.7-7.1-4.3-11.2-4.2h-86c-9.4,0-17,7.6-17,17v389c0,9.4,7.6,17,17,17h536c9.4,0,17-7.6,17-17v-313
	C827.9,327.1,820.3,319.5,810.9,319.5z M825.9,649.5c0,8.3-6.7,15-15,15h-536c-8.3,0-15-6.7-15-15v-389c0-8.3,6.7-15,15-15h86
	c3.7,0,7.2,1.3,9.9,3.8l45.6,40.2l31.5,27.8c3.1,2.7,7.1,4.2,11.2,4.2h351.7c8.3,0,15,6.7,15,15V649.5z"/>
<circle class="st0" cx="103.3" cy="326.1" r="53.5"/>
<path class="st0" d="M102.8,665.9H88.1c-3.9,0-7-3.1-7-7v-123c0-3.9,3.1-7,7-7h14.8c3.9,0,7,3.1,7,7v123
	C109.8,662.8,106.7,665.9,102.8,665.9z"/>
<path class="st0" d="M134.8,665.9h-14.8c-3.9,0-7-3.1-7-7v-123c0-3.9,3.1-7,7-7h14.8c3.9,0,7,3.1,7,7v123
	C141.8,662.8,138.7,665.9,134.8,665.9z"/>
<path class="st1" d="M188.4,508.7c0,43.6-41,57.7-84.7,57.7s-73.3-14.1-73.3-57.7s29.4-118,73-118S188.4,465,188.4,508.7z"/>
<path class="st1" d="M102.1,345.9l-0.1-2c3.7-0.1,7-0.3,9.5-2.1c1.4-1.1,2.3-2.7,2.4-4.5c0.1-1.1-0.3-2.2-1.2-2.9
	c-1.6-1.4-4.3-0.9-6.2-0.1l-1.7,0.8l3.2-23.2l2,0.3l-2.7,19.7c2.6-0.8,5-0.4,6.7,1c1.3,1.1,2,2.8,1.9,4.5c-0.1,2.4-1.3,4.6-3.2,6.1
	C109.6,345.7,105.4,345.8,102.1,345.9z"/>
<rect x="119.9" y="313.8" class="st1" width="10.8" height="2"/>
<rect x="85.9" y="313.8" class="st1" width="10.8" height="2"/>
<path class="st2" d="M697.9,597.5h-294c-8.3,0-15-6.7-15-15v-162c0-8.3,6.7-15,15-15h294c8.3,0,15,6.7,15,15v162
	C712.9,590.8,706.2,597.5,697.9,597.5z M403.9,407.5c-7.2,0-13,5.8-13,13v162c0,7.2,5.8,13,13,13h294c7.2,0,13-5.8,13-13v-162
	c0-7.2-5.8-13-13-13H403.9z"/>
<circle class="st2" cx="451.4" cy="465.5" r="35"/>
<path class="st2" d="M587.4,446.8h-65c-2.5,0-4.5,2-4.5,4.5s2,4.5,4.5,4.5h65c2.5,0,4.5-2,4.5-4.5S589.9,446.8,587.4,446.8z"/>
<path class="st2" d="M681.8,475.2H521.5c-2,0-3.6,2-3.6,4.5s1.6,4.5,3.6,4.5h160.2c2,0,3.6-2,3.6-4.5S683.8,475.2,681.8,475.2z"/>
<path class="st2" d="M669.2,535.5H432.6c-1.9,0-3.5,2-3.5,4.5s1.6,4.5,3.5,4.5h236.5c1.9,0,3.5-2,3.5-4.5S671.1,535.5,669.2,535.5z"
	/>
<path class="st2" d="M669.2,563.5H432.6c-1.9,0-3.5,2-3.5,4.5s1.6,4.5,3.5,4.5h236.5c1.9,0,3.5-2,3.5-4.5S671.1,563.5,669.2,563.5z"
	/>
<path class="st1" d="M60.5,311.4c4.2-6.3,11.5-8.9,18.7-9.6c8.1-0.7,16,0.8,23.9,2.4c8.7,1.7,18,3.2,26.8,1.1
	c7.9-1.8,14.5-7.2,17.9-14.5c3.2-7.1,3.9-15,2-22.5c-2.1-8-7.2-15-13.4-20.3c-12.7-10.8-29.8-15.7-46.3-15.2
	c-16.4,0.4-32.3,6-45.4,16c-13.1,10.3-22.3,24.8-26.1,41c-4,16.1-2.7,33,3.7,48.3c3.6,8.4,8.8,15.9,12.9,24.1
	c3.7,7.6,6.6,16.4,4.3,24.9c-2,7.4-8.1,14-15.6,16.1c-7.2,1.9-14.3-1.2-18.2-7.4c-3.8-5.9-3.9-13.7,1.8-18.5
	c5.8-5,14.6-4.4,19.6,1.5c0.2,0.2,0.3,0.4,0.4,0.5c2.3,3,3.3,6.8,2.9,10.5c-0.3,1.9,2.6,2.7,2.9,0.8c1.6-9.2-4.6-18-13.8-19.5
	c-7.1-1.2-14.3,2.2-17.7,8.6c-3.4,6.4-1.6,14.2,2.8,19.7c4.6,6,12.2,8.7,19.5,7c7.9-1.8,14.3-8.1,17.4-15.5
	c3.4-8.2,1.8-17.4-1.5-25.3c-3.6-8.6-8.8-16.3-13-24.6c-3.8-7.5-6.2-15.6-7.1-24c-1.8-16.8,2-33.7,10.8-48
	c9-14.1,22.8-24.6,38.8-29.5c15.8-5,33.2-4.8,48.7,1.3c15.2,6,30,19.1,29.8,36.7c-0.1,7.5-2.9,15.2-8.6,20.2
	c-6.9,6-16.4,6.5-25.1,5.6c-8.7-0.9-17.1-3.5-25.9-4.1c-7.6-0.6-15.8,0-22.6,3.8c-3.2,1.8-5.8,4.3-7.8,7.3
	C56.9,311.5,59.5,313,60.5,311.4L60.5,311.4z"/>
<path class="st0" d="M45.1,562.2c-0.4,0-0.7,0-1.1-0.1l-14.6-2.2c-3.8-0.6-6.4-4.2-5.9-8l18.5-121.6c0.6-3.8,4.2-6.4,8-5.9l14.6,2.2
	c3.8,0.6,6.4,4.2,5.9,8L52,556.3C51.5,559.7,48.6,562.2,45.1,562.2z"/>
<path class="st1" d="M62.6,479.3c-0.5,0-1-0.1-1.5-0.2l-27.2-5.5c-3.8-0.8-6.2-4.5-5.4-8.3c0,0,0,0,0,0l11.8-39.4
	c2.6-8.5,11-13.7,19.8-12.2l-0.1,0.5l0.1-0.5c9.2,1.6,15.5,10.1,14.3,19.4l-5,40.6C68.7,477,65.9,479.3,62.6,479.3L62.6,479.3z"/>
<path class="st4" d="M191.9,666.5h-157c-0.6,0-1-0.4-1-1s0.4-1,1-1h157c0.6,0,1,0.4,1,1S192.4,666.5,191.9,666.5z"/>
</svg>
