<svg width="1440" height="7767" viewBox="0 0 1440 7767" fill="none" xmlns="http://www.w3.org/2000/svg">
<g opacity="0.1">
<path d="M452.836 2389.31C422.622 2318.37 411.147 2144.47 430.894 2045.2C471.524 1840.92 638.786 1941.83 646.656 2080.3C654.409 2216.72 515.883 2537.38 452.836 2389.31Z" stroke="#4680EE" stroke-width="1.5" stroke-miterlimit="10"/>
<path d="M527.702 2843.68C596.717 2979.25 712.599 2014.08 664.766 1786.22C635.356 1646.1 564.162 1663.61 506.104 1709.66C451.6 1752.88 373.721 1929.61 354.507 2223.12C344.334 2378.94 350.441 2600.94 371.988 2678.68C388.664 2738.84 411.176 2711.77 416.142 2721.78C439.817 2666.71 443.292 2645.3 462.154 2632.39C486.81 2615.49 508.722 2806.41 527.702 2843.68Z" stroke="#4680EE" stroke-width="1.5" stroke-miterlimit="10"/>
<path d="M597.726 3318.39C677.88 3246.64 764.982 1836.9 678.033 1512.47C622.659 1305.85 526.122 1397.08 458.834 1506.32C397.023 1606.66 294.101 1941.5 273.279 2421.38C261.174 2700.21 275.882 3092.46 318.025 3205.92C351.618 3296.33 394.902 3218.59 402.523 3212.6C447.57 3076.71 451.213 3007.58 484.754 2961.04C529.165 2899.49 564.228 3348.53 597.726 3318.39Z" stroke="#4680EE" stroke-width="1.5" stroke-miterlimit="10"/>
<path d="M662.674 3789.95C751.173 3657.67 812.288 1657.71 686.225 1235.61C604.864 963.213 482.955 1126.62 406.488 1299.86C337.312 1456.54 209.779 1949.58 186.974 2616.52C173.216 3018.73 196.175 3580.37 258.98 3730.04C309.446 3850.35 373.897 3726.88 383.814 3700.31C453.151 3514.44 454.028 3366.74 502.301 3286.57C566.422 3179.8 616.325 3859.08 662.674 3789.95Z" stroke="#4680EE" stroke-width="1.5" stroke-miterlimit="10"/>
<path d="M723.716 4240.05C821.723 4049.22 855.528 1459.08 690.511 937.257C583.054 600.486 435.824 834.253 350.243 1071.87C273.622 1284.57 121.638 1935.76 96.7341 2790.21C81.426 3315.44 112.532 4046.68 196.007 4232.8C263.375 4382.87 348.481 4206.84 361.185 4166.7C450.562 3884.26 452.873 3703.84 515.861 3590.62C599.708 3438.62 665.051 4354.25 723.716 4240.05Z" stroke="#4680EE" stroke-width="1.5" stroke-miterlimit="10"/>
<path d="M130.291 4729.57C214.533 4909.37 320.241 4681.02 335.813 4627.06C444.988 4248.67 449.026 4036.3 526.707 3888.97C630.295 3692.52 711.465 4846.84 781.965 4684.46C890.255 4435.03 896.333 1251.39 692.003 633.207C558.677 229.845 385.84 535.904 291.198 838.231C207.146 1106.69 30.8207 1916.04 3.75902 2958.17C-13.0631 3606.37 26.1324 4507.28 130.291 4729.57Z" stroke="#4680EE" stroke-width="1.5" stroke-miterlimit="10"/>
<path d="M1041.87 5057.6C1008.69 5059.16 968.895 5381.83 998.655 5435.71C1015.84 5466.87 1061.35 5417.58 1079.23 5329.88C1104.4 5206.45 1064.71 5056.5 1041.87 5057.6Z" stroke="#4680EE" stroke-width="1.5" stroke-miterlimit="10"/>
<path d="M951.692 5390.52C954.94 5433.82 970.145 5453.05 984.02 5505.79C1012.16 5612.81 1016.2 5663.65 1036.19 5728.19C1043.99 5753.41 1054.48 5786.54 1064.71 5771.37C1080.4 5748.12 1084.31 5647.5 1104.21 5470.28C1130.01 5239.99 1139.79 5180.45 1132.41 5058.42C1130.69 5030.05 1128.47 4938.16 1116.04 4882.11C1098.83 4804.61 1078.66 4864.47 1053.44 4813.18C1023.16 4751.67 1008.14 4642.19 994.998 4690.57C985.739 4724.65 985.395 4817.97 978.462 4980.48C973.181 5104.27 969.86 5185.5 963.439 5251.76C955.737 5330.65 948.079 5342.38 951.692 5390.52Z" stroke="#4680EE" stroke-width="1.5" stroke-miterlimit="10"/>
<path d="M900.97 5300.27C901.533 5377.03 923.036 5414.18 940.758 5525.1C977.101 5752.63 960.264 5915.22 989.396 6081.45C1001.76 6152.02 1021.15 6220.37 1040.59 6207.13C1068.18 6188.31 1077.45 6028.51 1119.92 5704.53C1175.45 5280.96 1199.1 5198 1193.92 4972.27C1192.86 4926.27 1191.82 4749.62 1170.12 4643.29C1141.18 4501.5 1106.49 4630.5 1061.18 4523.93C1010.56 4405.02 991.634 4150.79 974.563 4203.4C962.707 4239.93 967.249 4387.06 958.136 4674.01C951.685 4877.96 947.699 4997.16 934.804 5094.8C918.531 5217.93 900.363 5216.91 900.97 5300.27Z" stroke="#4680EE" stroke-width="1.5" stroke-miterlimit="10"/>
<path d="M850.197 5211C848.002 5321.02 875.847 5376.33 897.445 5545.44C941.914 5893.57 903.574 6165.67 942.55 6435.73C959.233 6551.28 987.845 6654.65 1016.42 6643.87C1056.03 6628.94 1070.66 6411.21 1135.64 5939.78C1221.07 5323.81 1257.85 5215.35 1255.44 4887.11C1254.97 4823.1 1255.19 4562.15 1224.23 4405.34C1183.54 4199.38 1134.26 4397.76 1068.95 4235.59C997.931 4059.27 975.17 3660.41 954.121 3717.08C939.676 3756.28 948.928 3957.04 937.803 4368.44C930.123 4652.56 925.494 4809.16 906.156 4938.73C881.23 5105.7 852.544 5092.5 850.197 5211Z" stroke="#4680EE" stroke-width="1.5" stroke-miterlimit="10"/>
<path d="M799.306 5121.98C794.384 5265.13 828.489 5338.81 854.015 5565.98C906.514 6034.91 846.591 6415.47 895.594 6790.21C916.542 6950.54 954.443 7088.97 992.139 7080.85C1043.79 7069.7 1063.56 6793.29 1151.21 6175.23C1266.27 5365.8 1316.34 5232.12 1316.78 4802.15C1316.87 4720.14 1318.32 4375.12 1278.14 4167.64C1225.67 3897.75 1161.89 4165.39 1076.53 3947.45C985.103 3713.97 958.502 3170.12 933.561 3230.97C916.52 3272.72 930.489 3527.27 917.353 4063.08C908.423 4427.4 903.179 4621.19 877.397 4782.87C843.797 4993.47 804.601 4968.05 799.306 5121.98Z" stroke="#4680EE" stroke-width="1.5" stroke-miterlimit="10"/>
<path d="M748.32 5033C756.563 4843.56 806.254 4881.29 848.522 4627.06C880.754 4433.23 886.613 4202.33 896.794 3757.76C911.912 3097.58 893.246 2789.19 912.884 2744.95C941.753 2679.87 972.186 3368.75 1084.03 3659.35C1189.4 3933.09 1267.8 3595.63 1331.97 3929.98C1381.45 4187.77 1378.7 4616.85 1378.05 4717.27C1374.64 5248.85 1311.37 5407.87 1166.68 6410.76C1056.35 7175.45 1031.47 7510.46 967.739 7517.88C920.93 7523.33 873.718 7349.76 848.522 7144.74C789.52 6664.99 871.144 6175.76 810.489 5586.56C781.094 5301.05 740.648 5209.24 748.32 5033Z" stroke="#4680EE" stroke-width="1.5" stroke-miterlimit="10"/>
<path d="M1170.01 1983.9C1161.35 2008.5 1143.16 1961.1 1141.56 1887.25C1139.73 1803.48 1160.31 1734.18 1169.35 1755.71C1180.04 1781.21 1181.5 1951.34 1170.01 1983.9Z" stroke="#4680EE" stroke-width="1.5" stroke-miterlimit="10"/>
<path d="M1194.41 1538.79C1209.17 1616.17 1215.62 1758.17 1223 2001.57C1230.31 2242.93 1229.16 2415.72 1222.73 2428.27C1219.23 2435.03 1209.3 2382.1 1200.79 2343.31C1184.85 2270.89 1157.57 2278.93 1150.58 2271.1C1124.98 2242.39 1117.46 2189.09 1106.76 2086.98C1101.81 2039.83 1090.26 1935.27 1085.18 1812.25C1077.43 1625.97 1042.68 1568.56 1046.91 1493.89C1050.47 1431.57 1084.9 1416.44 1107.22 1414.67C1139.22 1412.13 1171.59 1419.31 1194.41 1538.79Z" stroke="#4680EE" stroke-width="1.5" stroke-miterlimit="10"/>
<path d="M1219.99 1330.78C1244.25 1469.05 1253.8 1701.09 1268.5 2135.04C1283.43 2571.09 1283.34 2870.17 1275.98 2881.33C1270.46 2889.86 1252.57 2782.06 1237.38 2705.01C1208.73 2559.15 1157.44 2583.14 1146.87 2573.79C1098.67 2532.05 1086.8 2432.04 1068.12 2243.01C1060.33 2164.28 1038.98 1972.38 1029.26 1745.74C1014.29 1398.56 943.303 1307.65 949.176 1178.94C954.084 1071.75 1019.91 1055.31 1061.33 1064.13C1119.81 1076.88 1179 1097.05 1219.99 1330.78Z" stroke="#4680EE" stroke-width="1.5" stroke-miterlimit="10"/>
<path d="M1245.44 1124.11C1279.22 1323.23 1291.75 1645.49 1313.85 2269.87C1336.3 2900.72 1337.34 3325.41 1329.08 3335.99C1321.51 3345.83 1295.68 3183.45 1273.84 3067.94C1232.56 2848.28 1157.2 2888.67 1143.05 2878.09C1072.26 2825.11 1055.96 2676.96 1029.35 2400.59C1018.73 2290.33 987.597 2011.04 973.21 1680.92C951.041 1172.79 843.819 1048.46 851.315 865.662C857.576 713.617 954.815 695.207 1015.32 715.34C1100.28 742.198 1186.36 775.904 1245.44 1124.11Z" stroke="#4680EE" stroke-width="1.5" stroke-miterlimit="10"/>
<path d="M1270.8 917.575C1314.13 1177.54 1329.63 1590.05 1359.13 2404.85C1389.12 3230.44 1391.31 3780.6 1382.11 3790.81C1372.49 3801.59 1338.7 3585.29 1310.24 3431.24C1256.23 3138.26 1156.89 3194.64 1139.16 3182.55C1045.79 3119.03 1024.93 2922.37 990.515 2558.37C977.013 2416.66 936.136 2049.92 917.105 1616.25C887.717 947.221 744.254 789.435 753.396 552.551C760.995 355.729 889.648 336.088 969.238 366.678C1080.64 408.789 1193.67 454.756 1270.8 917.575Z" stroke="#4680EE" stroke-width="1.5" stroke-miterlimit="10"/>
<path d="M1135.23 3487.13C1019.28 3413.32 994.069 3167.29 951.648 2716.24C935.338 2542.83 884.638 2088.87 860.955 1551.71C824.386 721.696 644.66 530.492 655.433 239.564C664.385 -2.36331 824.444 -22.8655 923.124 18.1391C1061.01 75.5455 1200.97 133.69 1296.14 711.117C1349.01 1031.98 1367.47 1534.61 1404.38 2539.92C1441.85 3560.28 1445.19 4235.79 1435.1 4245.71C1423.4 4257.19 1381.71 3987.38 1346.6 3794.66C1279.87 3428.41 1156.56 3500.7 1135.23 3487.13Z" stroke="#4680EE" stroke-width="1.5" stroke-miterlimit="10"/>
<path d="M192.459 5459.45C205.624 5176.52 300.121 5309.41 412.61 4672.16C452.917 4443.81 479.942 4204.96 533.29 4167.81C538.673 4164.07 592.116 4131.31 629.834 4323.62C677.287 4565.55 648.324 4901.17 703.705 5369.24C724.104 5541.66 727.498 5491.6 742.469 5627.57C806.364 6207.99 708.913 6797.23 765.142 7386.67C791.027 7657.99 829.505 7720.28 825.848 7755.71C810.065 7907.71 156.884 6221.85 192.459 5459.45Z" stroke="#4680EE" stroke-width="1.5" stroke-miterlimit="10"/>
<path d="M547.918 4554.6C551.151 4557.06 586.389 4542.3 610.562 4678.27C641.127 4849.96 619.339 5086.35 654.358 5405.49C667.245 5523.01 669.037 5491.15 678.209 5584.1C717.338 5980.78 647.11 6379.84 681.5 6768.15C697.415 6947.92 722.539 6989.13 718.801 7006.68C701.899 7086.72 270.763 5904.27 304.626 5389.74C317.323 5196.77 386.638 5265.25 465.95 4849.63C494.789 4698.61 514.317 4529.06 547.918 4554.6Z" stroke="#4680EE" stroke-width="1.5" stroke-miterlimit="10"/>
<path d="M562.546 4941.44C563.467 4954.44 580.699 4954.15 591.29 5032.92C605.04 5135.1 590.397 5271.24 605.011 5441.69C610.372 5504.27 610.591 5490.9 613.956 5540.64C628.401 5754.56 585.248 5962.21 597.865 6149.68C603.767 6237.92 614.738 6252.97 611.813 6257.69C590.427 6240.67 385.08 5585.54 416.756 5320.03C429.124 5216.29 473.396 5221.25 519.254 5027.1C536.684 4953.29 548.093 4899.25 562.546 4941.44Z" stroke="#4680EE" stroke-width="1.5" stroke-miterlimit="10"/>
<path d="M577.174 5328.24C565.822 5514.19 521.134 5577.42 504.765 5508.66C480.629 5407.13 501.218 5274.93 528.902 5250.33C549.593 5232.08 590.163 5115.42 577.174 5328.24Z" stroke="#4680EE" stroke-width="1.5" stroke-miterlimit="10"/>
</g>
</svg>
