<svg width="35" height="35" viewBox="0 0 35 35" fill="none" xmlns="http://www.w3.org/2000/svg">
<circle opacity="0.2" cx="17.472" cy="17.472" r="17.472" fill="#388B12"/>
<path d="M13.381 14.6992L12.5771 15.2358C12.0003 15.6199 11.7118 15.812 11.5554 16.105C11.399 16.3987 11.4003 16.7433 11.403 17.4316C11.4056 18.2619 11.4135 19.1067 11.4346 19.9621C11.4855 21.9916 11.5105 23.006 12.257 23.7518C13.0028 24.4977 14.0311 24.5241 16.0876 24.5755C17.3632 24.6074 18.6394 24.6074 19.915 24.5755C21.9715 24.5241 22.9998 24.4983 23.7456 23.7518C24.4914 23.006 24.5172 21.9916 24.568 19.9621C24.5891 19.1067 24.597 18.2619 24.5997 17.4323C24.6016 16.7433 24.603 16.3987 24.4465 16.1057C24.2908 15.812 24.0024 15.6199 23.4255 15.2358L22.621 14.6992" stroke="#388B12" stroke-width="1.32" stroke-linecap="round" stroke-linejoin="round"/>
<path d="M11.4023 16.6787L15.9649 19.4164C16.9576 20.0117 17.4539 20.3087 18.0023 20.3087C18.5508 20.3087 19.0471 20.0117 20.0398 19.4158L24.6023 16.6787" stroke="#388B12" stroke-width="1.32" stroke-linecap="round" stroke-linejoin="round"/>
<path d="M13.3828 17.9995V14.0394C13.3828 12.7947 13.3828 12.1729 13.7696 11.7862C14.1563 11.3994 14.7781 11.3994 16.0228 11.3994H19.9828C21.2276 11.3994 21.8493 11.3994 22.2361 11.7862C22.6228 12.1729 22.6228 12.7947 22.6228 14.0394V17.9995M16.6828 16.6795H19.3228M16.6828 14.0394H19.3228" stroke="#388B12" stroke-width="1.32" stroke-linecap="round" stroke-linejoin="round"/>
</svg>
