<svg width="35" height="35" viewBox="0 0 35 35" fill="none" xmlns="http://www.w3.org/2000/svg">
<circle opacity="0.2" cx="17.472" cy="17.472" r="17.472" fill="#4680EE"/>
<path d="M9.98047 11.8564C9.98047 11.3599 10.1777 10.8837 10.5288 10.5327C10.8798 10.1816 11.356 9.98438 11.8525 9.98438H19.6285C20.125 9.98438 20.6011 10.1816 20.9522 10.5327C21.3032 10.8837 21.5005 11.3599 21.5005 11.8564V19.2004H24.9565V22.3684C24.9565 23.0558 24.6834 23.7151 24.1973 24.2012C23.7112 24.6873 23.0519 24.9604 22.3645 24.9604H12.5725C11.885 24.9604 11.2257 24.6873 10.7396 24.2012C10.2536 23.7151 9.98047 23.0558 9.98047 22.3684V11.8564ZM21.5005 23.8084H22.3645C22.7464 23.8084 23.1127 23.6567 23.3827 23.3866C23.6528 23.1166 23.8045 22.7503 23.8045 22.3684V20.3524H21.5005V23.8084ZM11.8525 11.1364C11.455 11.1364 11.1325 11.4589 11.1325 11.8564V22.3684C11.1325 22.7503 11.2842 23.1166 11.5542 23.3866C11.8243 23.6567 12.1906 23.8084 12.5725 23.8084H20.3485V11.8564C20.3485 11.4589 20.0259 11.1364 19.6285 11.1364H11.8525ZM13.4365 13.4404C13.2837 13.4404 13.1372 13.5011 13.0292 13.6091C12.9212 13.7171 12.8605 13.8636 12.8605 14.0164C12.8605 14.1691 12.9212 14.3156 13.0292 14.4237C13.1372 14.5317 13.2837 14.5924 13.4365 14.5924H18.0445C18.1972 14.5924 18.3437 14.5317 18.4518 14.4237C18.5598 14.3156 18.6205 14.1691 18.6205 14.0164C18.6205 13.8636 18.5598 13.7171 18.4518 13.6091C18.3437 13.5011 18.1972 13.4404 18.0445 13.4404H13.4365ZM12.8605 17.4724C12.8605 17.3196 12.9212 17.1731 13.0292 17.0651C13.1372 16.9571 13.2837 16.8964 13.4365 16.8964H18.0445C18.1972 16.8964 18.3437 16.9571 18.4518 17.0651C18.5598 17.1731 18.6205 17.3196 18.6205 17.4724C18.6205 17.6251 18.5598 17.7716 18.4518 17.8797C18.3437 17.9877 18.1972 18.0484 18.0445 18.0484H13.4365C13.2837 18.0484 13.1372 17.9877 13.0292 17.8797C12.9212 17.7716 12.8605 17.6251 12.8605 17.4724ZM13.4365 20.3524C13.2837 20.3524 13.1372 20.4131 13.0292 20.5211C12.9212 20.6291 12.8605 20.7756 12.8605 20.9284C12.8605 21.0811 12.9212 21.2276 13.0292 21.3357C13.1372 21.4437 13.2837 21.5044 13.4365 21.5044H15.7405C15.8932 21.5044 16.0397 21.4437 16.1478 21.3357C16.2558 21.2276 16.3165 21.0811 16.3165 20.9284C16.3165 20.7756 16.2558 20.6291 16.1478 20.5211C16.0397 20.4131 15.8932 20.3524 15.7405 20.3524H13.4365Z" fill="#4680EE"/>
</svg>
