<svg width="24" height="24" viewBox="0 0 24 24" fill="none" xmlns="http://www.w3.org/2000/svg">
<path d="M6.81098 22.3139L5.40478 23.7101L0.386719 18.8555L3.98192 15.3119C4.71001 14.589 5.62876 14.0847 6.63259 13.8569C7.63642 13.6292 8.6846 13.6873 9.65668 14.0245L10.4466 14.2985H15.2934C15.4984 14.2984 15.7013 14.3392 15.8901 14.4185C16.0788 14.4977 16.2497 14.6139 16.3924 14.76C16.5351 14.9061 16.6468 15.0791 16.7208 15.2689C16.7948 15.4587 16.8297 15.6613 16.8233 15.8647C16.8 16.2668 16.6212 16.6444 16.3241 16.9187C16.027 17.1929 15.6347 17.3426 15.2291 17.3365H12.3216C12.1638 17.3365 12.0125 17.3987 11.9009 17.5095C11.7894 17.6202 11.7267 17.7704 11.7267 17.9271C11.7267 18.0837 11.7894 18.2339 11.9009 18.3447C12.0125 18.4554 12.1638 18.5176 12.3216 18.5176H15.2387C15.9502 18.5211 16.6359 18.2527 17.1536 17.7681C17.6714 17.2835 17.9816 16.6198 18.0201 15.9143C18.0201 15.9025 18.0201 15.8907 18.0201 15.8765L20.7183 12.8598C20.9924 12.544 21.3785 12.3453 21.7963 12.3048C22.2142 12.2643 22.6317 12.3853 22.962 12.6425C23.1255 12.7769 23.2602 12.9425 23.3582 13.1294C23.4562 13.3163 23.5155 13.5209 23.5326 13.7309C23.5496 13.941 23.5242 14.1523 23.4576 14.3525C23.3911 14.5526 23.2849 14.7375 23.1452 14.8962L17.7584 21.0383C17.4028 21.4429 16.9639 21.767 16.4713 21.9887C15.9788 22.2104 15.444 22.3245 14.9032 22.3234L6.81098 22.3139ZM17.9345 8.95959C17.9345 8.66199 17.8154 8.37657 17.6034 8.16613C17.3915 7.9557 17.104 7.83747 16.8043 7.83747H15.1387V6.18383C15.1254 5.89544 15.0006 5.62325 14.7903 5.42385C14.5801 5.22445 14.3005 5.11319 14.0097 5.11319C13.7189 5.11319 13.4394 5.22445 13.2291 5.42385C13.0188 5.62325 12.894 5.89544 12.8807 6.18383V7.83747H11.2152C11.0625 7.83051 10.9101 7.85435 10.767 7.90755C10.6239 7.96074 10.4932 8.04218 10.3827 8.14696C10.2722 8.25173 10.1843 8.37766 10.1242 8.51713C10.0641 8.6566 10.0331 8.80672 10.0331 8.95841C10.0331 9.1101 10.0641 9.26022 10.1242 9.39969C10.1843 9.53916 10.2722 9.66508 10.3827 9.76986C10.4932 9.87463 10.6239 9.95607 10.767 10.0093C10.9101 10.0625 11.0625 10.0863 11.2152 10.0793H12.8807V11.733C12.894 12.0214 13.0188 12.2936 13.2291 12.493C13.4394 12.6924 13.7189 12.8036 14.0097 12.8036C14.3005 12.8036 14.5801 12.6924 14.7903 12.493C15.0006 12.2936 15.1254 12.0214 15.1387 11.733V10.0793H16.8043C17.1036 10.0793 17.3907 9.96144 17.6026 9.75152C17.8145 9.54159 17.9338 9.25678 17.9345 8.95959ZM7.09888 2.74189V3.96086H5.87351C5.65264 3.96086 5.44083 4.04797 5.28465 4.20303C5.12847 4.35809 5.04074 4.5684 5.04074 4.78768C5.04074 5.00697 5.12847 5.21728 5.28465 5.37233C5.44083 5.52739 5.65264 5.6145 5.87351 5.6145H7.10126V6.83348C7.10126 7.05276 7.189 7.26307 7.34517 7.41813C7.50135 7.57319 7.71317 7.6603 7.93403 7.6603C8.1549 7.6603 8.36672 7.57319 8.52289 7.41813C8.67907 7.26307 8.76681 7.05276 8.76681 6.83348V5.60978H9.98742C10.2083 5.60978 10.4201 5.52267 10.5763 5.36761C10.7325 5.21255 10.8202 5.00224 10.8202 4.78296C10.8202 4.56367 10.7325 4.35337 10.5763 4.19831C10.4201 4.04325 10.2083 3.95614 9.98742 3.95614H8.75967V2.74189C8.75967 2.5226 8.67193 2.3123 8.51575 2.15724C8.35958 2.00218 8.14776 1.91507 7.92689 1.91507C7.70603 1.91507 7.49421 2.00218 7.33803 2.15724C7.18186 2.3123 7.09412 2.5226 7.09412 2.74189H7.09888ZM17.6037 0.559082C17.4144 0.559082 17.2329 0.633749 17.099 0.766657C16.9651 0.899564 16.8899 1.07983 16.8899 1.26779V2.31667H15.8335C15.6442 2.31667 15.4626 2.39134 15.3288 2.52424C15.1949 2.65715 15.1197 2.83741 15.1197 3.02537C15.1197 3.21333 15.1949 3.39359 15.3288 3.5265C15.4626 3.65941 15.6442 3.73408 15.8335 3.73408H16.8899V4.78296C16.8899 4.97092 16.9651 5.15118 17.099 5.28409C17.2329 5.417 17.4144 5.49166 17.6037 5.49166C17.793 5.49166 17.9746 5.417 18.1085 5.28409C18.2423 5.15118 18.3175 4.97092 18.3175 4.78296V3.73408H19.374C19.4677 3.73408 19.5605 3.71575 19.6471 3.68013C19.7337 3.64451 19.8124 3.59231 19.8787 3.5265C19.945 3.46069 19.9976 3.38257 20.0334 3.29658C20.0693 3.2106 20.0878 3.11844 20.0878 3.02537C20.0878 2.9323 20.0693 2.84015 20.0334 2.75416C19.9976 2.66818 19.945 2.59005 19.8787 2.52424C19.8124 2.45843 19.7337 2.40623 19.6471 2.37062C19.5605 2.335 19.4677 2.31667 19.374 2.31667H18.3175V1.26779C18.3175 1.07983 18.2423 0.899564 18.1085 0.766657C17.9746 0.633749 17.793 0.559082 17.6037 0.559082Z" fill="white"/>
</svg>
