<svg width="20" height="20" viewBox="0 0 20 20" fill="none" xmlns="http://www.w3.org/2000/svg">
<path fill-rule="evenodd" clip-rule="evenodd" d="M5.13194 3.33301H14.8629C15.3021 3.33299 15.6811 3.33298 15.9933 3.35848C16.3227 3.3854 16.6504 3.44483 16.9657 3.60549C17.4361 3.84518 17.8186 4.22763 18.0582 4.69803C18.2189 5.01335 18.2783 5.34103 18.3053 5.67049C18.3308 5.98262 18.3307 6.36159 18.3307 6.80087V13.1985C18.3307 13.6378 18.3308 14.0167 18.3053 14.3289C18.2783 14.6583 18.2189 14.986 18.0582 15.3013C17.8186 15.7717 17.4361 16.1542 16.9657 16.3939C16.6504 16.5545 16.3227 16.6139 15.9933 16.6409C15.6811 16.6664 15.3021 16.6664 14.8628 16.6663H5.13196C4.69266 16.6664 4.31369 16.6664 4.00154 16.6409C3.67209 16.6139 3.3444 16.5545 3.02909 16.3939C2.55868 16.1542 2.17623 15.7717 1.93655 15.3013C1.77589 14.986 1.71646 14.6583 1.68954 14.3289C1.66404 14.0167 1.66405 13.6378 1.66406 13.1985V6.80089C1.66405 6.3616 1.66404 5.98263 1.68954 5.67049C1.71646 5.34103 1.77589 5.01335 1.93655 4.69803C2.17623 4.22763 2.55868 3.84518 3.02909 3.60549C3.3444 3.44483 3.67209 3.3854 4.00154 3.35848C4.31368 3.33298 4.69265 3.33299 5.13194 3.33301ZM4.13726 5.01962C3.91087 5.03811 3.82694 5.06951 3.78574 5.0905C3.62894 5.1704 3.50145 5.29788 3.42156 5.45468C3.40056 5.49589 3.36917 5.57982 3.35067 5.80621C3.33138 6.04232 3.33073 6.35255 3.33073 6.83301V13.1663C3.33073 13.6468 3.33138 13.957 3.35067 14.1931C3.36917 14.4195 3.40056 14.5035 3.42156 14.5447C3.50145 14.7015 3.62894 14.829 3.78574 14.9088C3.82694 14.9298 3.91087 14.9612 4.13726 14.9797C4.37337 14.999 4.6836 14.9997 5.16406 14.9997H14.8307C15.3112 14.9997 15.6214 14.999 15.8575 14.9797C16.0839 14.9612 16.1679 14.9298 16.2091 14.9088C16.3659 14.829 16.4933 14.7015 16.5732 14.5447C16.5942 14.5035 16.6256 14.4195 16.6441 14.1931C16.6634 13.957 16.6641 13.6468 16.6641 13.1663V6.83301C16.6641 6.35255 16.6634 6.04232 16.6441 5.80621C16.6256 5.57982 16.5942 5.49589 16.5732 5.45468C16.4933 5.29788 16.3659 5.1704 16.2091 5.0905C16.1679 5.06951 16.0839 5.03811 15.8575 5.01962C15.6214 5.00032 15.3112 4.99968 14.8307 4.99968H5.16406C4.6836 4.99968 4.37337 5.00032 4.13726 5.01962Z" fill="#667085"/>
<path fill-rule="evenodd" clip-rule="evenodd" d="M5.83333 6.66699C5.3731 6.66699 5 7.04009 5 7.50033V12.5003C5 12.9606 5.3731 13.3337 5.83333 13.3337C6.29357 13.3337 6.66667 12.9606 6.66667 12.5003V7.50033C6.66667 7.04009 6.29357 6.66699 5.83333 6.66699ZM10.8333 7.91699C10.8333 8.60735 10.2737 9.16699 9.58333 9.16699C8.89298 9.16699 8.33333 8.60735 8.33333 7.91699C8.33333 7.22664 8.89298 6.66699 9.58333 6.66699C10.2737 6.66699 10.8333 7.22664 10.8333 7.91699ZM15 7.91699C15 8.60735 14.4404 9.16699 13.75 9.16699C13.0596 9.16699 12.5 8.60735 12.5 7.91699C12.5 7.22664 13.0596 6.66699 13.75 6.66699C14.4404 6.66699 15 7.22664 15 7.91699ZM13.75 13.3337C14.4404 13.3337 15 12.774 15 12.0837C15 11.3933 14.4404 10.8337 13.75 10.8337C13.0596 10.8337 12.5 11.3933 12.5 12.0837C12.5 12.774 13.0596 13.3337 13.75 13.3337ZM10.8333 12.0837C10.8333 12.774 10.2737 13.3337 9.58333 13.3337C8.89298 13.3337 8.33333 12.774 8.33333 12.0837C8.33333 11.3933 8.89298 10.8337 9.58333 10.8337C10.2737 10.8337 10.8333 11.3933 10.8333 12.0837Z" fill="#667085"/>
</svg>
