<svg width="20" height="20" viewBox="0 0 20 20" fill="none" xmlns="http://www.w3.org/2000/svg">
<path d="M3.33594 17.5003C3.33594 17.0401 3.70903 16.667 4.16927 16.667H15.8359C16.2962 16.667 16.6693 17.0401 16.6693 17.5003C16.6693 17.9606 16.2962 18.3337 15.8359 18.3337H4.16927C3.70903 18.3337 3.33594 17.9606 3.33594 17.5003Z" fill="#667085"/>
<path fill-rule="evenodd" clip-rule="evenodd" d="M10.345 2.64525C11.6467 1.34351 13.7573 1.34351 15.059 2.64525L15.6901 3.27638C16.9919 4.57813 16.9919 6.68869 15.6901 7.99044L9.93507 13.7455C9.70387 13.9767 9.40978 14.1348 9.08941 14.2001L5.33643 14.965C4.16597 15.2036 3.13194 14.1696 3.37047 12.9991L4.13531 9.246C4.2006 8.9256 4.35869 8.6315 4.5899 8.40029L10.345 2.64525ZM13.8805 3.82377C13.2296 3.17289 12.1744 3.17289 11.5235 3.82376L11.1804 4.1668L14.1686 7.15495L14.5116 6.81192C15.1625 6.16105 15.1625 5.10577 14.5116 4.4549L13.8805 3.82377ZM7.01377 8.33345L10.0019 5.34531L12.9901 8.33346L10.0019 11.3216L7.01377 8.33345ZM5.83525 9.51196L5.76841 9.5788L5.00357 13.3319L8.75656 12.567L8.82341 12.5001L5.83525 9.51196Z" fill="#667085"/>
</svg>
