<svg width="36" height="35" viewBox="0 0 36 35" fill="none" xmlns="http://www.w3.org/2000/svg">
<path d="M8.20894 15.3656C8.20539 14.0946 8.45265 12.8355 8.93656 11.6602C9.42048 10.485 10.1315 9.41683 11.029 8.51688C11.9264 7.61692 12.9926 6.9029 14.1665 6.41571C15.3403 5.92851 16.5988 5.67773 17.8697 5.67773C19.1407 5.67773 20.3992 5.92851 21.573 6.41571C22.7469 6.9029 23.8131 7.61692 24.7105 8.51688C25.608 9.41683 26.319 10.485 26.8029 11.6602C27.2868 12.8355 27.5341 14.0946 27.5306 15.3656C27.5306 20.1845 28.5388 22.9809 29.4268 24.5093C29.5224 24.6726 29.5733 24.8583 29.5743 25.0475C29.5753 25.2368 29.5264 25.423 29.4325 25.5873C29.3386 25.7516 29.203 25.8883 29.0395 25.9835C28.8759 26.0787 28.6901 26.1291 28.5008 26.1296H7.23757C7.04828 26.1291 6.86248 26.0787 6.69889 25.9834C6.5353 25.8882 6.39972 25.7515 6.30582 25.5872C6.21193 25.4228 6.16303 25.2366 6.16408 25.0473C6.16512 24.8581 6.21607 24.6724 6.31178 24.5091C7.20025 22.9807 8.20893 20.1843 8.20893 15.3656H8.20894Z" fill="#E7F6EA" stroke="#0BA02C" stroke-width="2.1528" stroke-linecap="round" stroke-linejoin="round"/>
<path d="M13.5625 26.1309V27.2073C13.5625 28.3492 14.0161 29.4443 14.8236 30.2518C15.631 31.0592 16.7262 31.5129 17.8681 31.5129C19.01 31.5129 20.1052 31.0592 20.9126 30.2518C21.7201 29.4443 22.1737 28.3492 22.1737 27.2073V26.1309" stroke="#0BA02C" stroke-width="2.1528" stroke-linecap="round" stroke-linejoin="round"/>
<path d="M25.3281 3.52344C27.5184 4.90615 29.284 6.8672 30.43 9.19009" stroke="#0BA02C" stroke-width="2.1528" stroke-linecap="round" stroke-linejoin="round"/>
<path d="M5.3125 9.19009C6.45853 6.8672 8.22415 4.90615 10.4144 3.52344" stroke="#0BA02C" stroke-width="2.1528" stroke-linecap="round" stroke-linejoin="round"/>
</svg>
