<svg width="11" height="8" viewBox="0 0 11 8" fill="none" xmlns="http://www.w3.org/2000/svg">
<path d="M5.67678 7.6808L3.66119 7.64316C3.00856 7.63007 2.35434 7.65625 1.71454 7.52045C0.741222 7.31755 0.672272 6.32271 0.600115 5.48822C0.500698 4.31503 0.539182 3.12056 0.726791 1.95719C0.832622 1.30432 1.24953 0.914896 1.89414 0.872353C4.07008 0.718546 6.26045 0.736544 8.43158 0.808539C8.66088 0.815084 8.89179 0.851082 9.11788 0.891988C10.2339 1.09161 10.2612 2.21899 10.3333 3.16801C10.4055 4.12686 10.375 5.09061 10.2371 6.04291C10.1265 6.83158 9.91482 7.49263 9.02167 7.55644C7.90243 7.63989 6.80885 7.70698 5.6864 7.68571C5.6864 7.6808 5.67999 7.6808 5.67678 7.6808ZM4.4918 5.68457C5.33523 5.19042 6.16264 4.70446 7.00127 4.21358C6.15622 3.71943 5.33042 3.23346 4.4918 2.74259V5.68457Z" fill="#0A65CC"/>
</svg>
