<svg width="11" height="9" viewBox="0 0 11 9" fill="none" xmlns="http://www.w3.org/2000/svg">
<path d="M3.9396 8.15304C7.62638 8.15304 9.64256 5.1162 9.64256 2.48276C9.64256 2.39651 9.64079 2.31066 9.63688 2.22517C10.0292 1.94293 10.3677 1.59348 10.6367 1.19319C10.2776 1.35195 9.89108 1.45879 9.48565 1.50697C9.89948 1.26025 10.2172 0.869942 10.3671 0.404695C9.9736 0.636765 9.54316 0.800362 9.09429 0.888435C8.72853 0.501064 8.20781 0.258789 7.63121 0.258789C6.52431 0.258789 5.62671 1.15127 5.62671 2.2514C5.62671 2.4078 5.64432 2.55988 5.67871 2.70581C4.01283 2.62247 2.53565 1.82945 1.54704 0.623622C1.36898 0.927756 1.27533 1.27341 1.27564 1.62528C1.27564 2.3167 1.62949 2.92707 2.16761 3.28416C1.8493 3.2745 1.53799 3.18901 1.25983 3.0349C1.25954 3.04327 1.25954 3.05142 1.25954 3.06036C1.25954 4.02549 1.95043 4.83132 2.86758 5.01391C2.69532 5.06055 2.51758 5.08414 2.33905 5.08403C2.21012 5.08403 2.08447 5.07142 1.96235 5.04811C2.21753 5.83995 2.95747 6.41617 3.83476 6.43227C3.14873 6.96689 2.28454 7.28533 1.3453 7.28533C1.18552 7.28546 1.02587 7.27624 0.867188 7.25772C1.75427 7.82304 2.80759 8.1529 3.9397 8.1529" fill="white"/>
</svg>
