<svg width="11" height="11" viewBox="0 0 11 11" fill="none" xmlns="http://www.w3.org/2000/svg">
<path d="M3.97815 5.22172C3.97815 4.31745 4.71101 3.58421 5.61527 3.58421C6.51954 3.58421 7.25279 4.31745 7.25279 5.22172C7.25279 6.12599 6.51954 6.85923 5.61527 6.85923C4.71101 6.85923 3.97815 6.12599 3.97815 5.22172ZM3.09294 5.22172C3.09294 6.6148 4.22219 7.74405 5.61527 7.74405C7.00836 7.74405 8.1376 6.6148 8.1376 5.22172C8.1376 3.82863 7.00836 2.69939 5.61527 2.69939C4.22219 2.69939 3.09294 3.82863 3.09294 5.22172ZM7.648 2.59938C7.64795 2.71596 7.68248 2.82994 7.74721 2.9269C7.81194 3.02387 7.90397 3.09945 8.01166 3.14411C8.11935 3.18877 8.23787 3.20049 8.35222 3.17779C8.46658 3.15509 8.57163 3.09899 8.6541 3.01659C8.73657 2.93419 8.79275 2.82918 8.81554 2.71484C8.83833 2.60051 8.8267 2.48198 8.78213 2.37426C8.73756 2.26653 8.66205 2.17444 8.56514 2.10963C8.46823 2.04482 8.35428 2.0102 8.23769 2.01016H8.23746C8.08119 2.01023 7.93133 2.07232 7.82081 2.1828C7.71029 2.29328 7.64813 2.44311 7.648 2.59938ZM3.63077 9.22009C3.15185 9.19828 2.89155 9.11851 2.71856 9.05111C2.48922 8.96183 2.32559 8.85549 2.15354 8.68368C1.9815 8.51188 1.87501 8.3484 1.78612 8.11906C1.71868 7.94615 1.63891 7.68577 1.61714 7.20686C1.59332 6.68908 1.58857 6.53354 1.58857 5.22176C1.58857 3.90998 1.59372 3.75487 1.61714 3.23666C1.63895 2.75775 1.71931 2.49787 1.78612 2.32446C1.8754 2.09512 1.98174 1.93148 2.15354 1.75944C2.32535 1.5874 2.48883 1.4809 2.71856 1.39201C2.89147 1.32458 3.15185 1.2448 3.63077 1.22303C4.14854 1.19922 4.30408 1.19446 5.61527 1.19446C6.92646 1.19446 7.08216 1.19961 7.60037 1.22303C8.07929 1.24484 8.33916 1.32521 8.51258 1.39201C8.74191 1.4809 8.90555 1.58763 9.07759 1.75944C9.24963 1.93125 9.35574 2.09512 9.44502 2.32446C9.51245 2.49736 9.59223 2.75775 9.614 3.23666C9.63781 3.75487 9.64257 3.90998 9.64257 5.22176C9.64257 6.53354 9.63781 6.68864 9.614 7.20686C9.59219 7.68577 9.51202 7.94608 9.44502 8.11906C9.35574 8.3484 9.2494 8.51203 9.07759 8.68368C8.90578 8.85533 8.74191 8.96183 8.51258 9.05111C8.33967 9.11855 8.07929 9.19832 7.60037 9.22009C7.08259 9.24391 6.92705 9.24866 5.61527 9.24866C4.30349 9.24866 4.14839 9.24391 3.63077 9.22009ZM3.59009 0.339318C3.06717 0.363132 2.70984 0.446049 2.39778 0.567478C2.0746 0.692875 1.80101 0.861106 1.52762 1.13406C1.25423 1.40702 1.08643 1.68104 0.961032 2.00422C0.839604 2.31648 0.756687 2.67361 0.732873 3.19654C0.708666 3.72029 0.703125 3.88774 0.703125 5.22172C0.703125 6.5557 0.708666 6.72315 0.732873 7.2469C0.756687 7.76987 0.839604 8.12696 0.961032 8.43922C1.08643 8.7622 1.25427 9.03653 1.52762 9.30937C1.80097 9.58221 2.0746 9.75021 2.39778 9.87596C2.71043 9.99739 3.06717 10.0803 3.59009 10.1041C4.11412 10.1279 4.28129 10.1339 5.61527 10.1339C6.94925 10.1339 7.1167 10.1283 7.64045 10.1041C8.16342 10.0803 8.52051 9.99739 8.83277 9.87596C9.15575 9.75021 9.42954 9.58233 9.70293 9.30937C9.97632 9.03642 10.1438 8.7622 10.2695 8.43922C10.3909 8.12696 10.4743 7.76983 10.4977 7.2469C10.5215 6.72275 10.527 6.5557 10.527 5.22172C10.527 3.88774 10.5215 3.72029 10.4977 3.19654C10.4739 2.67357 10.3909 2.31628 10.2695 2.00422C10.1438 1.68124 9.97588 1.40746 9.70293 1.13406C9.42997 0.860674 9.15575 0.692875 8.83316 0.567478C8.52051 0.446049 8.16338 0.362739 7.64085 0.339318C7.11709 0.315504 6.94965 0.30957 5.61567 0.30957C4.28168 0.30957 4.11412 0.315111 3.59009 0.339318Z" fill="#0A65CC"/>
</svg>
