<svg width="21" height="21" viewBox="0 0 21 21" fill="none" xmlns="http://www.w3.org/2000/svg">
<g clip-path="url(#clip0_3207_29297)">
<path d="M17.4349 6.1416H3.92652C3.58741 6.1416 3.3125 6.41651 3.3125 6.75562V16.5799C3.3125 16.919 3.58741 17.1939 3.92652 17.1939H17.4349C17.774 17.1939 18.0489 16.919 18.0489 16.5799V6.75562C18.0489 6.41651 17.774 6.1416 17.4349 6.1416Z" stroke="#0A65CC" stroke-width="1.22804" stroke-linecap="round" stroke-linejoin="round"/>
<path d="M13.7574 6.14162V4.91358C13.7574 4.58789 13.628 4.27553 13.3977 4.04523C13.1674 3.81493 12.855 3.68555 12.5293 3.68555H8.84522C8.51953 3.68555 8.20717 3.81493 7.97687 4.04523C7.74657 4.27553 7.61719 4.58789 7.61719 4.91358V6.14162" stroke="#0A65CC" stroke-width="1.22804" stroke-linecap="round" stroke-linejoin="round"/>
<path d="M18.0491 10.3096C15.8097 11.6052 13.2674 12.2855 10.6802 12.2814C8.09347 12.2855 5.55164 11.6054 3.3125 10.3102" stroke="#0A65CC" stroke-width="1.22804" stroke-linecap="round" stroke-linejoin="round"/>
<path d="M9.76562 9.8252H11.6077" stroke="#0A65CC" stroke-width="1.22804" stroke-linecap="round" stroke-linejoin="round"/>
</g>
<defs>
<clipPath id="clip0_3207_29297">
<rect width="19.6486" height="19.6486" fill="white" transform="translate(0.859375 0.615234)"/>
</clipPath>
</defs>
</svg>
