<svg width="20" height="18" viewBox="0 0 20 18" fill="none" xmlns="http://www.w3.org/2000/svg">
<path d="M19.1693 14.8333C19.1693 15.2754 18.9937 15.6993 18.6811 16.0118C18.3686 16.3244 17.9446 16.5 17.5026 16.5H2.5026C2.06058 16.5 1.63665 16.3244 1.32409 16.0118C1.01153 15.6993 0.835938 15.2754 0.835938 14.8333V5.66667C0.835938 5.22464 1.01153 4.80072 1.32409 4.48816C1.63665 4.17559 2.06058 4 2.5026 4H5.83594L7.5026 1.5H12.5026L14.1693 4H17.5026C17.9446 4 18.3686 4.17559 18.6811 4.48816C18.9937 4.80072 19.1693 5.22464 19.1693 5.66667V14.8333Z" stroke="#667085" stroke-width="1.66667" stroke-linecap="round" stroke-linejoin="round"/>
<path d="M10.0026 13.1667C11.8436 13.1667 13.3359 11.6743 13.3359 9.83333C13.3359 7.99238 11.8436 6.5 10.0026 6.5C8.16165 6.5 6.66927 7.99238 6.66927 9.83333C6.66927 11.6743 8.16165 13.1667 10.0026 13.1667Z" stroke="#667085" stroke-width="1.66667" stroke-linecap="round" stroke-linejoin="round"/>
</svg>
