<svg width="34" height="34" viewBox="0 0 34 34" fill="none" xmlns="http://www.w3.org/2000/svg">
<path d="M17.3065 3.39648C9.70578 3.39648 3.53711 9.56516 3.53711 17.1658C3.53711 24.7665 9.70578 30.9352 17.3065 30.9352C24.9072 30.9352 31.0758 24.7665 31.0758 17.1658C31.0758 9.56516 24.9072 3.39648 17.3065 3.39648ZM17.3065 12.6908C16.7419 12.6908 16.2738 12.2226 16.2738 11.6581C16.2738 11.0936 16.7419 10.6254 17.3065 10.6254C20.914 10.6254 23.8469 13.5583 23.8469 17.1658C23.8469 20.7734 20.914 23.7063 17.3065 23.7063C16.7419 23.7063 16.2738 23.2381 16.2738 22.6736C16.2738 22.109 16.7419 21.6409 17.3065 21.6409C19.7712 21.6409 21.7815 19.6306 21.7815 17.1658C21.7815 14.7011 19.7712 12.6908 17.3065 12.6908ZM17.3065 27.8371C11.427 27.8371 6.63522 23.0454 6.63522 17.1658C6.63522 16.6013 7.10337 16.1331 7.66792 16.1331C8.23246 16.1331 8.70062 16.6013 8.70062 17.1658C8.70062 21.9163 12.556 25.7717 17.3065 25.7717C22.0569 25.7717 25.9123 21.9163 25.9123 17.1658C25.9123 12.4154 22.0569 8.56 17.3065 8.56C16.7419 8.56 16.2738 8.09184 16.2738 7.52729C16.2738 6.96275 16.7419 6.49459 17.3065 6.49459C23.186 6.49459 27.9777 11.2863 27.9777 17.1658C27.9777 23.0454 23.186 27.8371 17.3065 27.8371Z" fill="url(#paint0_linear_3959_1626)"/>
<defs>
<linearGradient id="paint0_linear_3959_1626" x1="30.5792" y1="3.39648" x2="-2.18189" y2="15.671" gradientUnits="userSpaceOnUse">
<stop stop-color="#2878FF"/>
<stop offset="1" stop-color="#2C65C8"/>
</linearGradient>
</defs>
</svg>
