<svg width="18" height="22" viewBox="0 0 18 22" fill="none" xmlns="http://www.w3.org/2000/svg">
<path d="M10.5634 1.55566H3.02518C2.52536 1.55566 2.04602 1.75421 1.6926 2.10764C1.33918 2.46106 1.14063 2.9404 1.14062 3.44021V18.5166C1.14063 19.0164 1.33918 19.4958 1.6926 19.8492C2.04602 20.2026 2.52536 20.4012 3.02518 20.4012H14.3325C14.8323 20.4012 15.3116 20.2026 15.6651 19.8492C16.0185 19.4958 16.217 19.0164 16.217 18.5166V7.20931M10.5634 1.55566L16.217 7.20931M10.5634 1.55566V7.20931H16.217M12.4479 11.9207H4.90973M12.4479 15.6898H4.90973M6.79428 8.15159H4.90973" stroke="#1DC438" stroke-width="1.88455" stroke-linecap="round" stroke-linejoin="round"/>
</svg>
