<svg width="18" height="22" viewBox="0 0 18 22" fill="none" xmlns="http://www.w3.org/2000/svg">
<path d="M12.4636 3.44021H14.3481C14.8479 3.44021 15.3273 3.63876 15.6807 3.99219C16.0341 4.34561 16.2327 4.82495 16.2327 5.32476V18.5166C16.2327 19.0164 16.0341 19.4958 15.6807 19.8492C15.3273 20.2026 14.8479 20.4012 14.3481 20.4012H3.0408C2.54099 20.4012 2.06164 20.2026 1.70822 19.8492C1.3548 19.4958 1.15625 19.0164 1.15625 18.5166V5.32476C1.15625 4.82495 1.3548 4.34561 1.70822 3.99219C2.06164 3.63876 2.54099 3.44021 3.0408 3.44021H4.92535M5.86763 1.55566H11.5213C12.0417 1.55566 12.4636 1.97753 12.4636 2.49794V4.38249C12.4636 4.90289 12.0417 5.32476 11.5213 5.32476H5.86763C5.34722 5.32476 4.92535 4.90289 4.92535 4.38249V2.49794C4.92535 1.97753 5.34722 1.55566 5.86763 1.55566Z" stroke="#4680EE" stroke-width="1.88455" stroke-linecap="round" stroke-linejoin="round"/>
</svg>
