<svg width="64" height="64" viewBox="0 0 64 64" fill="none" xmlns="http://www.w3.org/2000/svg">
<rect x="0.632812" y="0.233398" width="63.377" height="63.377" rx="4.52693" fill="#EDEFF5"/>
<g clip-path="url(#clip0_3148_61139)">
<path d="M24.7618 34.7557L23.8163 38.2853L20.3607 38.3584C19.328 36.4429 18.7422 34.2513 18.7422 31.9224C18.7422 29.6704 19.2899 27.5467 20.2607 25.6768H20.2614L23.3379 26.2408L24.6856 29.2988C24.4035 30.1211 24.2498 31.0039 24.2498 31.9224C24.2499 32.9194 24.4305 33.8745 24.7618 34.7557Z" fill="#FBBB00"/>
<path d="M45.6699 29.3848C45.8259 30.2063 45.9072 31.0547 45.9072 31.9218C45.9072 32.8941 45.805 33.8426 45.6103 34.7574C44.9491 37.8705 43.2217 40.5889 40.8286 42.5126L40.8279 42.5119L36.9529 42.3142L36.4045 38.8906C37.9924 37.9593 39.2333 36.502 39.887 34.7574H32.625V29.3848H39.993H45.6699Z" fill="#518EF8"/>
<path d="M40.8231 42.5126L40.8238 42.5133C38.4965 44.384 35.54 45.5033 32.3217 45.5033C27.1498 45.5033 22.6532 42.6126 20.3594 38.3585L24.7605 34.7559C25.9073 37.8167 28.8601 39.9957 32.3217 39.9957C33.8096 39.9957 35.2035 39.5934 36.3996 38.8913L40.8231 42.5126Z" fill="#28B446"/>
<path d="M40.9887 21.4674L36.5891 25.0693C35.3512 24.2955 33.8878 23.8485 32.3201 23.8485C28.7801 23.8485 25.7722 26.1273 24.6828 29.298L20.2586 25.6759H20.2578C22.5181 21.3181 27.0713 18.3408 32.3201 18.3408C35.6153 18.3408 38.6367 19.5146 40.9887 21.4674Z" fill="#F14336"/>
</g>
<defs>
<clipPath id="clip0_3148_61139">
<rect width="27.1616" height="27.1616" fill="white" transform="translate(18.7422 18.3408)"/>
</clipPath>
</defs>
</svg>
