<svg width="64" height="64" viewBox="0 0 64 64" fill="none" xmlns="http://www.w3.org/2000/svg">
<rect x="0.632812" y="0.360352" width="63.377" height="63.377" rx="4.52693" fill="#1E60C6"/>
<g clip-path="url(#clip0_3148_61194)">
<path d="M23.4662 36.6905C23.3641 36.1382 23.2314 35.596 23.1599 35.0437C22.874 32.8855 23.3335 30.8909 24.6099 29.1111C25.6105 27.7098 26.9788 26.7381 28.5513 26.063C30.4404 25.2549 32.4724 24.8151 34.5248 24.7742C36.3526 24.7231 37.9456 25.3981 39.3343 26.5437C40.7638 27.7303 41.8666 29.1929 42.7142 30.8397C43.1226 31.6376 43.5004 32.4559 43.8884 33.2741C43.9293 33.3662 43.9599 33.4685 43.9803 33.5708C43.4391 33.8981 42.9184 34.2356 42.367 34.5323C40.3248 35.6574 38.1192 36.4246 35.8217 36.8235C34.5657 37.0383 33.2995 37.161 32.0333 37.2428C30.8284 37.3247 29.6235 37.3656 28.4186 37.3349C26.7746 37.294 25.1408 37.0383 23.4662 36.6905ZM26.0598 31.208C26.0292 33.0082 27.4894 34.4607 29.2661 34.4811C30.9816 34.5016 32.5847 33.1821 32.5847 31.2489C32.5847 29.2441 31.0429 27.9757 29.3172 27.9757C27.5302 27.9757 26.07 29.418 26.0598 31.208ZM38.6093 32.149C39.5793 32.2206 40.6617 31.4125 40.6719 30.0828C40.6821 28.9781 39.7938 28.078 38.691 28.0678H38.6501C37.5269 28.0473 36.6079 28.9475 36.5875 30.0624V30.0931C36.5875 31.2591 37.4554 32.149 38.6093 32.149Z" fill="white"/>
<path d="M44.0442 34.0312C44.1872 35.7496 43.7583 37.2635 42.9006 38.6546C41.7365 40.5366 40.0006 41.7231 37.9584 42.4698C35.8753 43.2267 33.6595 43.5234 31.4539 43.3597C30.1367 43.2676 28.8092 43.0733 27.6247 42.4494C25.5825 41.3651 24.3163 39.6365 23.6526 37.4374C23.622 37.3044 23.6118 37.1612 23.6016 37.0282C30.8004 38.6955 37.6316 37.959 44.0442 34.0312Z" fill="white"/>
<path d="M43.7093 27.781C44.2402 27.5866 44.2402 27.5764 44.1892 27.0752C44.1586 26.7888 44.1483 26.5024 44.2913 26.2262C44.3526 26.1137 44.3424 25.9705 44.3526 25.8376C44.373 25.4284 44.71 25.1113 45.1184 25.1113C45.5268 25.1113 45.874 25.4386 45.8944 25.8478C45.8944 26.2569 45.5677 26.5945 45.1592 26.6149C45.0265 26.6252 44.8938 26.6149 44.71 26.6149C44.6895 26.8195 44.6487 27.0036 44.6691 27.1775C44.7304 27.6787 44.6487 28.0981 44.0769 28.3129L45.2409 30.379L43.4948 31.4633C42.7596 29.7551 41.6364 28.3436 40.2885 27.0548L41.3301 25.7864C42.3001 26.2467 43.0251 26.9832 43.7093 27.781ZM22.6948 34.1125L20.9997 33.5397C20.918 32.5168 21.1325 31.5656 21.5103 30.6348L20.918 29.6937C20.7036 29.6937 20.4892 29.7346 20.3054 29.6835C19.8969 29.5914 19.4987 29.4687 19.1209 29.3153C18.8248 29.1925 18.692 28.7834 18.7737 28.4868C18.886 28.1288 19.223 27.9037 19.5906 27.9344C19.9378 27.9651 20.2237 28.231 20.2747 28.5788C20.2952 28.7425 20.2747 28.9164 20.2747 29.1209H21.1733C21.5511 29.2744 21.5307 29.7346 21.8166 30.0313C22.3782 29.2948 22.9296 28.5584 23.7669 28.0367L24.543 28.6402C23.9507 29.4585 23.3177 30.2256 23.1032 31.1769C22.8888 32.1384 22.8275 33.0999 22.6948 34.1125Z" fill="white"/>
<path d="M29.6362 25.48L29.2891 24.6208C30.2489 23.8537 31.3415 23.5366 32.4954 23.3832C32.5158 23.0763 32.3626 22.9433 32.1278 22.8206C31.3313 22.4115 31.1985 21.45 31.8316 20.8669C32.2094 20.5192 32.6587 20.468 33.108 20.6419C33.5165 20.7851 33.8024 21.1636 33.833 21.6034C33.9045 22.0739 33.6798 22.5342 33.2714 22.7695C33.1591 22.8308 33.0365 22.882 32.9242 22.9331L33.0468 23.3218C34.0781 23.3013 35.089 23.3116 36.0897 23.7105L35.9467 24.5595C33.833 24.5697 31.6887 24.4572 29.6362 25.48Z" fill="white"/>
</g>
<defs>
<clipPath id="clip0_3148_61194">
<rect width="27.1616" height="27.1616" fill="white" transform="translate(18.7422 18.4678)"/>
</clipPath>
</defs>
</svg>
