<svg width="71" height="70" viewBox="0 0 71 70" fill="none" xmlns="http://www.w3.org/2000/svg">
<circle opacity="0.2" cx="22.4409" cy="47.763" r="22.1997" fill="#4CAF50"/>
<g clip-path="url(#clip0_4134_42028)">
<path d="M43.941 50.6745V47.1872C43.941 45.3373 43.2062 43.5633 41.8981 42.2553C40.5901 40.9472 38.8161 40.2124 36.9662 40.2124H23.0167C21.1669 40.2124 19.3929 40.9472 18.0848 42.2553C16.7768 43.5633 16.042 45.3373 16.042 47.1872V50.6745M54.4031 50.6745V47.1872C54.402 45.6418 53.8876 44.1405 52.9408 42.9192C51.994 41.6978 50.6684 40.8254 49.1721 40.4391M42.1973 19.5148C43.6976 19.899 45.0274 20.7715 45.977 21.9949C46.9266 23.2183 47.4421 24.7229 47.4421 26.2716C47.4421 27.8203 46.9266 29.325 45.977 30.5483C45.0274 31.7717 43.6976 32.6443 42.1973 33.0284M36.9662 26.2629C36.9662 30.1149 33.8435 33.2377 29.9915 33.2377C26.1394 33.2377 23.0167 30.1149 23.0167 26.2629C23.0167 22.4108 26.1394 19.2881 29.9915 19.2881C33.8435 19.2881 36.9662 22.4108 36.9662 26.2629Z" stroke="#2E6B12" stroke-width="3.48738" stroke-linecap="round" stroke-linejoin="round"/>
</g>
<defs>
<clipPath id="clip0_4134_42028">
<rect width="41.8485" height="41.8485" fill="white" transform="translate(14.2988 14.0571)"/>
</clipPath>
</defs>
</svg>
