<svg width="64" height="64" viewBox="0 0 64 64" fill="none" xmlns="http://www.w3.org/2000/svg">
<rect x="0.632812" y="0.123047" width="63.377" height="63.377" rx="4.52693" fill="#FF4500"/>
<path d="M32.323 45.3921C39.8234 45.3921 45.9038 39.3117 45.9038 31.8113C45.9038 24.3108 39.8234 18.2305 32.323 18.2305C24.8225 18.2305 18.7422 24.3108 18.7422 31.8113C18.7422 39.3117 24.8225 45.3921 32.323 45.3921Z" fill="white"/>
<path d="M41.383 31.8117C41.3833 31.552 41.3324 31.2947 41.2332 31.0547C41.1339 30.8146 40.9883 30.5965 40.8047 30.4129C40.621 30.2292 40.4029 30.0836 40.1629 29.9843C39.9228 29.8851 39.6656 29.8342 39.4058 29.8346C38.8711 29.8346 38.3848 30.0451 38.0283 30.3856C36.6671 29.4132 34.8033 28.7812 32.7288 28.7002L33.6363 24.4541L36.5859 25.0861C36.6029 25.4542 36.7633 25.801 37.0327 26.0523C37.3021 26.3037 37.6592 26.4397 38.0276 26.4312C38.3959 26.4227 38.7464 26.2704 39.0039 26.0069C39.2615 25.7434 39.4057 25.3896 39.4058 25.0212C39.4056 24.6473 39.257 24.2889 38.9926 24.0245C38.7283 23.7602 38.3698 23.6116 37.996 23.6113C37.732 23.612 37.4736 23.6868 37.2501 23.8272C37.0266 23.9677 36.847 24.168 36.7318 24.4055L33.4421 23.7086C33.3448 23.6923 33.2475 23.7086 33.1826 23.7572C33.1016 23.8059 33.053 23.8868 33.037 23.9841L32.0319 28.7162C29.9252 28.7812 28.029 29.4132 26.6515 30.4019C26.2805 30.0475 25.787 29.8501 25.274 29.8509C25.0143 29.8505 24.757 29.9014 24.517 30.0006C24.2769 30.0999 24.0588 30.2455 23.8752 30.4292C23.6915 30.6128 23.5459 30.8309 23.4466 31.071C23.3474 31.311 23.2965 31.5683 23.2969 31.828C23.2969 32.6382 23.7829 33.3188 24.4638 33.6269C24.4308 33.8251 24.4145 34.0257 24.4152 34.2266C24.4152 37.2731 27.9644 39.7529 32.3401 39.7529C36.7158 39.7529 40.2649 37.2894 40.2649 34.2266C40.2649 34.032 40.2486 33.8212 40.2163 33.6269C40.5642 33.4679 40.8591 33.2123 41.0659 32.8905C41.2728 32.5687 41.3828 32.1942 41.383 31.8117ZM27.8022 33.2215C27.8024 32.8476 27.9511 32.4891 28.2155 32.2248C28.4799 31.9604 28.8384 31.8119 29.2123 31.8117C29.9902 31.8117 30.6221 32.4437 30.6221 33.2215C30.6221 33.9994 29.9902 34.6317 29.2123 34.6317C28.4341 34.6477 27.8022 33.9994 27.8022 33.2215ZM35.6947 36.9653C34.7223 37.9377 32.8748 38.0026 32.3401 38.0026C31.7891 38.0026 29.9415 37.9214 28.9851 36.9653C28.9505 36.9315 28.9231 36.8912 28.9043 36.8466C28.8856 36.8021 28.8759 36.7542 28.8759 36.7059C28.8759 36.6576 28.8856 36.6098 28.9043 36.5652C28.9231 36.5207 28.9505 36.4803 28.9851 36.4466C29.0189 36.412 29.0592 36.3845 29.1038 36.3658C29.1483 36.347 29.1961 36.3374 29.2445 36.3374C29.2928 36.3374 29.3406 36.347 29.3852 36.3658C29.4297 36.3845 29.47 36.412 29.5038 36.4466C30.1197 37.0625 31.4163 37.2731 32.3401 37.2731C33.2638 37.2731 34.5764 37.0625 35.176 36.4466C35.2098 36.412 35.2501 36.3845 35.2947 36.3658C35.3392 36.347 35.387 36.3374 35.4354 36.3374C35.4837 36.3374 35.5315 36.347 35.5761 36.3658C35.6206 36.3845 35.6609 36.412 35.6947 36.4466C35.7574 36.5184 35.7919 36.6106 35.7919 36.7059C35.7919 36.8013 35.7574 36.8934 35.6947 36.9653ZM35.4352 34.6477C34.6574 34.6477 34.0254 34.0157 34.0254 33.2378C34.0254 32.46 34.6574 31.828 35.4352 31.828C35.8091 31.8282 36.1676 31.9768 36.432 32.2411C36.6965 32.5055 36.8451 32.864 36.8454 33.2378C36.8454 33.9994 36.2134 34.6477 35.4352 34.6477Z" fill="#FF4500"/>
</svg>
