<svg width="26" height="26" viewBox="0 0 26 26" fill="none" xmlns="http://www.w3.org/2000/svg">
<path d="M24.129 25.3649C24.4906 25.7265 25.077 25.7265 25.4386 25.3649C25.8003 25.0033 25.8003 24.4169 25.4386 24.0553L24.7838 24.7101L24.129 25.3649ZM24.7838 24.7101L25.4386 24.0553L18.653 17.2696L17.9982 17.9244L17.3434 18.5793L24.129 25.3649L24.7838 24.7101ZM20.7923 11.1388H19.8662C19.8662 15.9181 15.9918 19.7925 11.2125 19.7925V20.7185V21.6446C17.0147 21.6446 21.7183 16.941 21.7183 11.1388H20.7923ZM11.2125 20.7185V19.7925C6.43324 19.7925 2.55885 15.9181 2.55885 11.1388H1.63281H0.706772C0.706772 16.941 5.41036 21.6446 11.2125 21.6446V20.7185ZM1.63281 11.1388H2.55885C2.55885 6.35951 6.43324 2.48512 11.2125 2.48512V1.55908V0.633042C5.41036 0.633042 0.706772 5.33663 0.706772 11.1388H1.63281ZM11.2125 1.55908V2.48512C15.9918 2.48512 19.8662 6.35951 19.8662 11.1388H20.7923H21.7183C21.7183 5.33663 17.0147 0.633042 11.2125 0.633042V1.55908Z" fill="white"/>
</svg>
