<svg width="64" height="65" viewBox="0 0 64 65" fill="none" xmlns="http://www.w3.org/2000/svg">
<rect x="0.632812" y="0.838867" width="63.377" height="63.377" rx="4.52693" fill="#EDEFF5"/>
<g clip-path="url(#clip0_3148_61213)">
<path fill-rule="evenodd" clip-rule="evenodd" d="M28.7347 18.9463C27.2364 18.9474 26.0238 20.1634 26.0249 21.6619C26.0238 23.1603 27.2375 24.3764 28.7359 24.3775H31.4468V21.663C31.4479 20.1645 30.2342 18.9485 28.7347 18.9463C28.7359 18.9463 28.7359 18.9463 28.7347 18.9463V18.9463ZM28.7347 26.1894H21.5078C20.0095 26.1905 18.7958 27.4065 18.7969 28.905C18.7947 30.4034 20.0084 31.6195 21.5067 31.6217H28.7347C30.2331 31.6206 31.4468 30.4045 31.4457 28.9061C31.4468 27.4065 30.2331 26.1905 28.7347 26.1894Z" fill="#36C5F0"/>
<path fill-rule="evenodd" clip-rule="evenodd" d="M45.8988 28.905C45.8999 27.4065 44.6862 26.1905 43.1879 26.1894C41.6896 26.1905 40.4758 27.4065 40.4769 28.905V31.6217H43.1879C44.6862 31.6206 45.8999 30.4045 45.8988 28.905ZM38.6708 28.905V21.6619C38.6719 20.1645 37.4593 18.9485 35.9609 18.9463C34.4626 18.9474 33.2489 20.1634 33.25 21.6619V28.905C33.2478 30.4034 34.4615 31.6195 35.9598 31.6217C37.4582 31.6206 38.6719 30.4045 38.6708 28.905Z" fill="#2EB67D"/>
<path fill-rule="evenodd" clip-rule="evenodd" d="M35.9609 46.1082C37.4593 46.1071 38.673 44.891 38.6719 43.3926C38.673 41.8941 37.4593 40.6781 35.9609 40.677H33.25V43.3926C33.2489 44.8899 34.4626 46.106 35.9609 46.1082ZM35.9609 38.864H43.189C44.6873 38.8629 45.901 37.6468 45.8999 36.1484C45.9021 34.6499 44.6884 33.4339 43.1901 33.4316H35.962C34.4637 33.4327 33.25 34.6488 33.2511 36.1472C33.25 37.6468 34.4626 38.8629 35.9609 38.864Z" fill="#ECB22E"/>
<path fill-rule="evenodd" clip-rule="evenodd" d="M18.7969 36.1482C18.7958 37.6467 20.0095 38.8627 21.5078 38.8638C23.0061 38.8627 24.2198 37.6467 24.2187 36.1482V33.4326H21.5078C20.0095 33.4337 18.7958 34.6498 18.7969 36.1482ZM26.0249 36.1482V43.3913C26.0227 44.8898 27.2364 46.1058 28.7347 46.108C30.2331 46.1069 31.4468 44.8909 31.4457 43.3924V36.1504C31.4479 34.652 30.2342 33.4359 28.7359 33.4337C27.2364 33.4337 26.0238 34.6498 26.0249 36.1482C26.0249 36.1493 26.0249 36.1482 26.0249 36.1482Z" fill="#E01E5A"/>
</g>
<defs>
<clipPath id="clip0_3148_61213">
<rect width="27.1616" height="27.1616" fill="white" transform="translate(18.7422 18.9463)"/>
</clipPath>
</defs>
</svg>
