<svg width="71" height="70" viewBox="0 0 71 70" fill="none" xmlns="http://www.w3.org/2000/svg">
<circle opacity="0.2" cx="22.4409" cy="47.763" r="22.1997" fill="#2A5DBD"/>
<path d="M38.7093 17.5444H24.7598C23.8349 17.5444 22.9479 17.9119 22.2939 18.5659C21.6399 19.2199 21.2725 20.1069 21.2725 21.0318V48.9308C21.2725 49.8557 21.6399 50.7428 22.2939 51.3968C22.9479 52.0508 23.8349 52.4182 24.7598 52.4182H45.6841C46.609 52.4182 47.496 52.0508 48.15 51.3968C48.8041 50.7428 49.1715 49.8557 49.1715 48.9308V28.0066M38.7093 17.5444L49.1715 28.0066M38.7093 17.5444V28.0066H49.1715M42.1967 36.725H28.2472M42.1967 43.6998H28.2472M31.7346 29.7503H28.2472" stroke="#2A5DBD" stroke-opacity="0.9" stroke-width="3.48738" stroke-linecap="round" stroke-linejoin="round"/>
</svg>
