<svg width="1441" height="758" viewBox="0 0 1441 758" fill="none" xmlns="http://www.w3.org/2000/svg">
<g clip-path="url(#clip0_3768_4968)">
<rect width="1440" height="757" transform="translate(0.5 0.757812)" fill="url(#paint0_linear_3768_4968)"/>
<path d="M284.317 379.011V277.753C284.317 231.143 294.363 192.568 314.453 162.03C335.348 131.492 365.484 111.401 404.862 101.758V143.948C380.753 150.378 363.475 162.432 353.028 180.112C342.58 196.988 336.553 219.088 334.946 246.412H380.753V379.011H284.317ZM143.5 379.011V277.753C143.5 231.143 153.545 192.568 173.636 162.03C194.531 131.492 224.667 111.401 264.045 101.758V143.948C239.936 150.378 222.658 162.432 212.211 180.112C201.763 196.988 195.736 219.088 194.129 246.412H239.936V379.011H143.5Z" fill="url(#paint1_linear_3768_4968)"/>
<path d="M1175.04 205.011V103.753C1175.04 57.1426 1165 18.5682 1144.91 -11.9698C1124.01 -42.5078 1093.88 -62.5986 1054.5 -72.2422V-30.0516C1078.61 -23.6225 1095.89 -11.568 1106.33 6.11192C1116.78 22.9882 1122.81 45.0881 1124.42 72.4116H1078.61V205.011H1175.04ZM1315.86 205.011V103.753C1315.86 57.1426 1305.82 18.5682 1285.73 -11.9698C1264.83 -42.5078 1234.69 -62.5986 1195.32 -72.2422V-30.0516C1219.43 -23.6225 1236.7 -11.568 1247.15 6.11192C1257.6 22.9882 1263.63 45.0881 1265.23 72.4116H1219.43V205.011H1315.86Z" fill="url(#paint2_linear_3768_4968)"/>
</g>
<defs>
<linearGradient id="paint0_linear_3768_4968" x1="-771.5" y1="-952.401" x2="2334.07" y2="2093.97" gradientUnits="userSpaceOnUse">
<stop stop-color="#82ACF1" stop-opacity="0.55"/>
<stop offset="0.406152" stop-color="white"/>
<stop offset="0.522805" stop-color="white"/>
<stop offset="1" stop-color="#0558E2" stop-opacity="0.1"/>
</linearGradient>
<linearGradient id="paint1_linear_3768_4968" x1="-126.139" y1="641.758" x2="379.089" y2="76.5389" gradientUnits="userSpaceOnUse">
<stop stop-color="#96B7F5"/>
<stop offset="0.9999" stop-color="#E8F1FF" stop-opacity="0.45"/>
</linearGradient>
<linearGradient id="paint2_linear_3768_4968" x1="1585.5" y1="467.758" x2="1080.27" y2="-97.4611" gradientUnits="userSpaceOnUse">
<stop stop-color="#96B7F5"/>
<stop offset="0.9999" stop-color="#E8F1FF" stop-opacity="0.45"/>
</linearGradient>
<clipPath id="clip0_3768_4968">
<rect width="1440" height="757" fill="white" transform="translate(0.5 0.757812)"/>
</clipPath>
</defs>
</svg>
