<svg width="36" height="25" viewBox="0 0 36 25" fill="none" xmlns="http://www.w3.org/2000/svg">
<path d="M29.025 10.0486C28.005 4.87362 23.46 0.988617 18 0.988617C13.665 0.988617 9.9 3.44862 8.025 7.04862C3.51 7.52862 0 11.3536 0 15.9886C0 20.9536 4.035 24.9886 9 24.9886H28.5C32.64 24.9886 36 21.6286 36 17.4886C36 13.5286 32.925 10.3186 29.025 10.0486ZM28.5 21.9886H9C5.685 21.9886 3 19.3036 3 15.9886C3 12.9136 5.295 10.3486 8.34 10.0336L9.945 9.86862L10.695 8.44362C12.12 5.69862 14.91 3.98862 18 3.98862C21.93 3.98862 25.32 6.77862 26.085 10.6336L26.535 12.8836L28.83 13.0486C31.17 13.1986 33 15.1636 33 17.4886C33 19.9636 30.975 21.9886 28.5 21.9886ZM12 14.4886H15.825V18.9886H20.175V14.4886H24L18 8.48862L12 14.4886Z" fill="#1849D6"/>
</svg>
