<svg width="20" height="21" viewBox="0 0 20 21" fill="none" xmlns="http://www.w3.org/2000/svg">
<path d="M3.26562 5.52784V15.3521C3.26563 15.6778 3.39501 15.9902 3.62531 16.2205C3.85561 16.4508 4.16797 16.5802 4.49366 16.5802H16.774C16.9369 16.5802 17.0931 16.5155 17.2082 16.4003C17.3234 16.2852 17.3881 16.129 17.3881 15.9662V7.3699C17.3881 7.20705 17.3234 7.05087 17.2082 6.93572C17.0931 6.82057 16.9369 6.75588 16.774 6.75588H4.49366C4.16797 6.75588 3.85561 6.6265 3.62531 6.3962C3.39501 6.16589 3.26563 5.85354 3.26562 5.52784ZM3.26562 5.52784C3.26562 5.20215 3.39501 4.88979 3.62531 4.65949C3.85561 4.42919 4.16797 4.2998 4.49366 4.2998H14.932" stroke="#0A65CC" stroke-width="1.22804" stroke-linecap="round" stroke-linejoin="round"/>
<path d="M14.0068 11.3604C14.1763 11.3604 14.3144 11.4975 14.3145 11.667C14.3145 11.8365 14.1764 11.9746 14.0068 11.9746C13.8373 11.9745 13.7002 11.8365 13.7002 11.667C13.7003 11.4975 13.8374 11.3604 14.0068 11.3604Z" fill="#18191C" stroke="#0A65CC" stroke-width="1.22804"/>
</svg>
