<svg width="20" height="24" viewBox="0 0 20 24" fill="none" xmlns="http://www.w3.org/2000/svg">
<path d="M15.254 23.7101V5.18367H-0.00585938V23.7101H3.54856V22.611C3.54856 21.229 4.63236 20.1025 5.94478 20.1025H9.30308C10.6172 20.1025 11.7084 21.229 11.7084 22.611V23.7101H15.254ZM4.20762 17.0869C4.20762 17.1852 4.18995 17.2874 4.15431 17.3782C4.11868 17.469 4.0688 17.5529 4.00295 17.6226C3.9371 17.692 3.85757 17.7447 3.77119 17.7822C3.6851 17.8198 3.58847 17.8385 3.49497 17.8385H1.8114C1.71819 17.8385 1.62155 17.8198 1.53518 17.7822C1.44909 17.7447 1.36956 17.692 1.30371 17.6226C1.23757 17.5532 1.18797 17.4693 1.15234 17.3782C1.11671 17.2874 1.09875 17.1855 1.09875 17.0869V15.33C1.09875 15.2317 1.11642 15.1298 1.15234 15.0387C1.18797 14.9479 1.23786 14.864 1.30371 14.7943C1.36956 14.7248 1.44909 14.6722 1.53518 14.6346C1.62155 14.597 1.71819 14.5781 1.8114 14.5781H3.49497C3.58818 14.5781 3.68482 14.5967 3.77119 14.6346C3.85728 14.6722 3.93681 14.7248 4.00295 14.7943C4.0688 14.864 4.11868 14.9476 4.15431 15.0387C4.18995 15.1295 4.20762 15.2314 4.20762 15.33V17.0869ZM4.20762 11.8914C4.20762 11.9897 4.18995 12.0916 4.15431 12.1827C4.11868 12.2735 4.0688 12.3573 4.00295 12.4268C3.9371 12.4965 3.85757 12.5488 3.77119 12.5864C3.6851 12.624 3.58847 12.6429 3.49497 12.6429H1.8114C1.71819 12.6429 1.62155 12.6243 1.53518 12.5864C1.44909 12.5488 1.36956 12.4962 1.30371 12.4268C1.23757 12.3573 1.18797 12.2735 1.15234 12.1827C1.11671 12.0919 1.09875 11.9897 1.09875 11.8914V10.1252C1.09875 10.0268 1.11642 9.93425 1.15234 9.84316C1.18797 9.75237 1.23786 9.66849 1.30371 9.59875C1.36956 9.5293 1.44909 9.46737 1.53518 9.42949C1.62155 9.39191 1.71819 9.37297 1.8114 9.37297H3.49497C3.58818 9.37297 3.68482 9.39161 3.77119 9.42949C3.85728 9.46707 3.93681 9.529 4.00295 9.59875C4.0688 9.66819 4.11868 9.75207 4.15431 9.84316C4.18995 9.93395 4.20762 10.0265 4.20762 10.1252V11.8914ZM6.06964 10.0407C6.06964 9.94237 6.08731 9.84046 6.12323 9.74936C6.15886 9.65857 6.20875 9.5747 6.2746 9.50495C6.34073 9.4355 6.41998 9.38289 6.50635 9.34532C6.59244 9.30774 6.68936 9.2891 6.78257 9.2891H8.28798C8.38119 9.2891 8.47783 9.30774 8.5642 9.34532C8.65029 9.38289 8.72982 9.4355 8.79595 9.50495C8.8618 9.5744 8.91169 9.65827 8.94732 9.74936C8.98295 9.84015 9.00091 9.94207 9.00091 10.0407V11.619C9.00091 11.7173 8.98324 11.8099 8.94732 11.9007C8.91169 11.9915 8.8618 12.0753 8.79595 12.1451C8.73011 12.2145 8.65057 12.2765 8.5642 12.3141C8.47811 12.3516 8.38119 12.3706 8.28798 12.3706H6.78257C6.68936 12.3706 6.59244 12.3519 6.50635 12.3141C6.42026 12.2765 6.34073 12.2145 6.2746 12.1451C6.20875 12.0756 6.15886 11.9918 6.12323 11.9007C6.08759 11.8099 6.06964 11.7173 6.06964 11.619V10.0407ZM9.04481 16.8614C9.04481 16.9597 9.02714 17.0523 8.99122 17.1434C8.95559 17.2342 8.9057 17.3181 8.83986 17.3875C8.77401 17.4573 8.69447 17.5189 8.60839 17.5568C8.52201 17.5943 8.42538 17.613 8.33216 17.613H6.782C6.68879 17.613 6.59187 17.5943 6.50578 17.5568C6.41969 17.5192 6.34016 17.4573 6.27402 17.3875C6.20818 17.3181 6.15829 17.2342 6.12266 17.1434C6.08703 17.0526 6.06907 16.96 6.06907 16.8614V15.2362C6.06907 15.1379 6.08674 15.036 6.12266 14.9449C6.15829 14.8541 6.20818 14.7702 6.27402 14.7008C6.34016 14.6313 6.41941 14.5787 6.50578 14.5411C6.59187 14.5035 6.68879 14.4846 6.782 14.4846H8.33216C8.42538 14.4846 8.52201 14.5032 8.60839 14.5411C8.69447 14.5787 8.77401 14.6313 8.83986 14.7008C8.90599 14.7702 8.95559 14.8541 8.99122 14.9449C9.02685 15.036 9.04481 15.1379 9.04481 15.2362V16.8614ZM11.0402 10.1252C11.0402 10.0268 11.0579 9.93425 11.0938 9.84316C11.1295 9.75237 11.1793 9.66849 11.2452 9.59875C11.311 9.5293 11.3906 9.46737 11.4767 9.42949C11.563 9.39191 11.6597 9.37297 11.7529 9.37297H13.4365C13.5297 9.37297 13.6263 9.39161 13.7127 9.42949C13.7988 9.46707 13.8783 9.529 13.9444 9.59875C14.0103 9.66819 14.0602 9.75207 14.0958 9.84316C14.1314 9.93395 14.1491 10.0265 14.1491 10.1252V11.8914C14.1491 11.9897 14.1314 12.0916 14.0958 12.1827C14.0602 12.2735 14.0103 12.3573 13.9444 12.4268C13.8786 12.4965 13.7991 12.5488 13.7127 12.5864C13.6266 12.624 13.5297 12.6429 13.4365 12.6429H11.7529C11.6597 12.6429 11.563 12.6243 11.4767 12.5864C11.3906 12.5488 11.311 12.4962 11.2452 12.4268C11.1791 12.3573 11.1295 12.2735 11.0938 12.1827C11.0582 12.0919 11.0402 11.9897 11.0402 11.8914V10.1252ZM11.477 17.7819C11.3909 17.7444 11.3113 17.6917 11.2455 17.6223C11.1793 17.5529 11.1297 17.469 11.0941 17.3779C11.0585 17.2871 11.0405 17.1852 11.0405 17.0866V15.33C11.0405 15.2317 11.0582 15.1298 11.0941 15.0387C11.1297 14.9479 11.1796 14.864 11.2455 14.7943C11.3113 14.7248 11.3909 14.6722 11.477 14.6346C11.5633 14.597 11.66 14.5781 11.7532 14.5781H13.4367C13.53 14.5781 13.6266 14.5967 13.713 14.6346C13.7991 14.6722 13.8786 14.7248 13.9447 14.7943C14.0106 14.864 14.0605 14.9476 14.0961 15.0387C14.1317 15.1295 14.1494 15.2314 14.1494 15.33V17.0869C14.1494 17.1852 14.1317 17.2874 14.0961 17.3782C14.0605 17.469 14.0106 17.5529 13.9447 17.6226C13.8789 17.692 13.7993 17.7447 13.713 17.7822C13.6269 17.8198 13.53 17.8385 13.4367 17.8385H11.7529C11.6597 17.8385 11.563 17.8195 11.477 17.7819Z" fill="white"/>
<path d="M18.4712 0.559082H3.77375L0.94766 3.67964H15.6351L18.4712 0.559082Z" fill="white"/>
<path d="M16.6787 22.5845L19.441 19.5343V1.6645L16.6787 4.70389V22.5845Z" fill="white"/>
<path d="M5.94334 21.6024C5.40287 21.6024 4.97129 22.0584 4.97129 22.6125V23.7077H10.2791V22.6125C10.2791 22.0584 9.84867 21.6024 9.30421 21.6024H5.94334Z" fill="white"/>
</svg>
